<svg width="22" height="21" viewBox="0 0 22 21" fill="none" xmlns="http://www.w3.org/2000/svg">
<path d="M15.84 10.63C16.2405 10.635 16.638 10.5596 17.009 10.4085C17.38 10.2574 17.7169 10.0335 18 9.75L20.83 6.92C21.0162 6.73264 21.1208 6.47919 21.1208 6.215C21.1208 5.95082 21.0162 5.69737 20.83 5.51C20.737 5.41628 20.6264 5.34188 20.5046 5.29111C20.3827 5.24034 20.252 5.2142 20.12 5.2142C19.988 5.2142 19.8573 5.24034 19.7354 5.29111C19.6136 5.34188 19.5029 5.41628 19.41 5.51L16.55 8.33C16.457 8.42373 16.3464 8.49813 16.2246 8.54889C16.1027 8.59966 15.972 8.6258 15.84 8.6258C15.708 8.6258 15.5773 8.59966 15.4554 8.54889C15.3336 8.49813 15.2229 8.42373 15.13 8.33L18.67 4.8C18.7632 4.70677 18.8372 4.59608 18.8876 4.47425C18.9381 4.35243 18.9641 4.22186 18.9641 4.09C18.9641 3.95814 18.9381 3.82758 18.8876 3.70575C18.8372 3.58393 18.7632 3.47324 18.67 3.38C18.5767 3.28677 18.4661 3.2128 18.3442 3.16234C18.2224 3.11188 18.0918 3.08591 17.96 3.08591C17.8281 3.08591 17.6976 3.11188 17.5757 3.16234C17.4539 3.2128 17.3432 3.28677 17.25 3.38L13.72 6.92C13.5337 6.73264 13.4292 6.47919 13.4292 6.215C13.4292 5.95082 13.5337 5.69737 13.72 5.51L16.55 2.68C16.6432 2.58677 16.7172 2.47607 16.7676 2.35425C16.8181 2.23243 16.8441 2.10186 16.8441 1.97C16.8441 1.83814 16.8181 1.70758 16.7676 1.58575C16.7172 1.46393 16.6432 1.35324 16.55 1.26C16.4567 1.16677 16.3461 1.0928 16.2242 1.04234C16.1024 0.991884 15.9718 0.965912 15.84 0.965912C15.7081 0.965912 15.5776 0.991884 15.4557 1.04234C15.3339 1.0928 15.2232 1.16677 15.13 1.26L12.3 4.09C11.7382 4.65251 11.4226 5.415 11.4226 6.21C11.4226 7.00501 11.7382 7.7675 12.3 8.33L11 9.62L2.72999 1.32L2.62999 1.26C2.57887 1.2154 2.52162 1.17836 2.45999 1.15L2.27999 1.08L2.15999 1H2.08999H1.88999C1.83037 0.99047 1.76961 0.99047 1.70999 1C1.64945 1.02204 1.59224 1.05232 1.53999 1.09L1.37999 1.19H1.30999L1.24999 1.29C1.20766 1.3428 1.17081 1.39976 1.13999 1.46C1.1107 1.52098 1.08726 1.5846 1.06999 1.65C1.06999 1.65 1.06999 1.72 1.06999 1.76C0.827323 3.45141 0.982037 5.1761 1.52186 6.79732C2.06169 8.41853 2.97179 9.8917 4.17999 11.1L6.81999 13.73L1.40999 19.13C1.31626 19.223 1.24186 19.3336 1.1911 19.4554C1.14033 19.5773 1.11419 19.708 1.11419 19.84C1.11419 19.972 1.14033 20.1027 1.1911 20.2246C1.24186 20.3464 1.31626 20.457 1.40999 20.55C1.50343 20.6427 1.61424 20.716 1.73608 20.7658C1.85792 20.8155 1.98838 20.8408 2.11999 20.84C2.25159 20.8408 2.38206 20.8155 2.50389 20.7658C2.62573 20.716 2.73655 20.6427 2.82999 20.55L8.89999 14.57L11.73 11.74L13.73 9.74C14.288 10.304 15.0466 10.624 15.84 10.63ZM8.18999 12.45L5.55999 9.81C4.11844 8.34874 3.21583 6.44127 2.99999 4.4L9.60999 11L8.18999 12.45ZM14.43 13.02C14.2417 12.8304 13.9858 12.7233 13.7185 12.7224C13.4513 12.7214 13.1946 12.8267 13.005 13.015C12.8154 13.2033 12.7083 13.4592 12.7074 13.7265C12.7064 13.9937 12.8117 14.2504 13 14.44L19.3 20.74C19.491 20.9138 19.7418 21.007 20 21C20.1316 21.0008 20.2621 20.9755 20.3839 20.9258C20.5057 20.876 20.6165 20.8027 20.71 20.71C20.8037 20.617 20.8781 20.5064 20.9289 20.3846C20.9796 20.2627 21.0058 20.132 21.0058 20C21.0058 19.868 20.9796 19.7373 20.9289 19.6154C20.8781 19.4936 20.8037 19.383 20.71 19.29L14.43 13.02Z" fill="#040921"/>
</svg>
