<svg width="11" height="7" viewBox="0 0 11 7" fill="none" xmlns="http://www.w3.org/2000/svg">
<path d="M9.80598 0.197199C9.74401 0.134713 9.67027 0.0851169 9.58903 0.0512711C9.50779 0.0174253 9.42066 0 9.33265 0C9.24464 0 9.1575 0.0174253 9.07626 0.0512711C8.99502 0.0851169 8.92129 0.134713 8.85932 0.197199L3.89265 5.17053L1.80598 3.0772C1.74163 3.01504 1.66567 2.96616 1.58244 2.93336C1.4992 2.90056 1.41032 2.88447 1.32086 2.88602C1.23141 2.88757 1.14314 2.90672 1.06108 2.94238C0.979032 2.97804 0.904808 3.02952 0.842649 3.09387C0.78049 3.15821 0.731614 3.23417 0.698811 3.31741C0.666008 3.40065 0.649921 3.48953 0.651469 3.57898C0.653017 3.66844 0.672169 3.75671 0.707831 3.83876C0.743493 3.92082 0.794968 3.99504 0.859315 4.0572L3.41932 6.6172C3.48129 6.67968 3.55503 6.72928 3.63626 6.76313C3.7175 6.79697 3.80464 6.8144 3.89265 6.8144C3.98066 6.8144 4.06779 6.79697 4.14903 6.76313C4.23027 6.72928 4.30401 6.67968 4.36598 6.6172L9.80598 1.1772C9.87365 1.11477 9.92766 1.039 9.9646 0.95467C10.0015 0.870337 10.0206 0.779267 10.0206 0.687199C10.0206 0.595131 10.0015 0.504061 9.9646 0.419728C9.92766 0.335395 9.87365 0.259627 9.80598 0.197199Z" fill="#34C488"/>
</svg>
