<svg width="14" height="14" viewBox="0 0 14 14" fill="none" xmlns="http://www.w3.org/2000/svg">
<path d="M6.9987 0.332031C5.68016 0.332031 4.39123 0.723024 3.2949 1.45557C2.19857 2.18811 1.34409 3.2293 0.839504 4.44747C0.33492 5.66565 0.202898 7.00609 0.460132 8.2993C0.717367 9.59251 1.35231 10.7804 2.28466 11.7127C3.21701 12.6451 4.40489 13.28 5.6981 13.5373C6.99131 13.7945 8.33175 13.6625 9.54992 13.1579C10.7681 12.6533 11.8093 11.7988 12.5418 10.7025C13.2744 9.60617 13.6654 8.31724 13.6654 6.9987C13.6654 6.12322 13.4929 5.25631 13.1579 4.44747C12.8229 3.63864 12.3318 2.90371 11.7127 2.28465C11.0937 1.6656 10.3588 1.17453 9.54992 0.839501C8.74109 0.50447 7.87418 0.332031 6.9987 0.332031ZM6.9987 12.332C5.94387 12.332 4.91272 12.0192 4.03566 11.4332C3.1586 10.8472 2.47501 10.0142 2.07134 9.03968C1.66768 8.06514 1.56206 6.99278 1.76785 5.95822C1.97363 4.92365 2.48158 3.97334 3.22746 3.22746C3.97334 2.48158 4.92365 1.97363 5.95822 1.76784C6.99278 1.56206 8.06514 1.66767 9.03968 2.07134C10.0142 2.47501 10.8472 3.15859 11.4332 4.03566C12.0192 4.91272 12.332 5.94386 12.332 6.9987C12.332 8.41319 11.7701 9.76974 10.7699 10.7699C9.76974 11.7701 8.41319 12.332 6.9987 12.332ZM9.66537 6.33203H7.66537V4.33203C7.66537 4.15522 7.59513 3.98565 7.47011 3.86063C7.34508 3.7356 7.17551 3.66536 6.9987 3.66536C6.82189 3.66536 6.65232 3.7356 6.5273 3.86063C6.40227 3.98565 6.33203 4.15522 6.33203 4.33203V6.33203H4.33203C4.15522 6.33203 3.98565 6.40227 3.86063 6.52729C3.73561 6.65232 3.66537 6.82189 3.66537 6.9987C3.66537 7.17551 3.73561 7.34508 3.86063 7.4701C3.98565 7.59513 4.15522 7.66536 4.33203 7.66536H6.33203V9.66537C6.33203 9.84218 6.40227 10.0117 6.5273 10.1368C6.65232 10.2618 6.82189 10.332 6.9987 10.332C7.17551 10.332 7.34508 10.2618 7.47011 10.1368C7.59513 10.0117 7.66537 9.84218 7.66537 9.66537V7.66536H9.66537C9.84218 7.66536 10.0117 7.59513 10.1368 7.4701C10.2618 7.34508 10.332 7.17551 10.332 6.9987C10.332 6.82189 10.2618 6.65232 10.1368 6.52729C10.0117 6.40227 9.84218 6.33203 9.66537 6.33203Z" fill="url(#paint0_linear_1_13430)"/>
<defs>
<linearGradient id="paint0_linear_1_13430" x1="9.7987" y1="-3.38592" x2="-5.20039" y2="3.25498" gradientUnits="userSpaceOnUse">
<stop offset="0.0001" stop-color="#9D50FF"/>
<stop offset="1" stop-color="#583CF0"/>
</linearGradient>
</defs>
</svg>
