<svg width="18" height="18" viewBox="0 0 18 18" fill="none" xmlns="http://www.w3.org/2000/svg">
<path d="M14.8346 7.33464C14.6136 7.33464 14.4017 7.42243 14.2454 7.57871C14.0891 7.73499 14.0013 7.94696 14.0013 8.16797V10.9846L12.768 9.7513C12.3325 9.31926 11.7439 9.07682 11.1305 9.07682C10.517 9.07682 9.92845 9.31926 9.49297 9.7513L8.90964 10.343L6.84297 8.26797C6.40749 7.83592 5.81891 7.59349 5.20547 7.59349C4.59203 7.59349 4.00345 7.83592 3.56797 8.26797L2.33464 9.50964V4.83464C2.33464 4.61362 2.42243 4.40166 2.57871 4.24538C2.73499 4.0891 2.94696 4.0013 3.16797 4.0013H9.83464C10.0556 4.0013 10.2676 3.9135 10.4239 3.75722C10.5802 3.60094 10.668 3.38898 10.668 3.16797C10.668 2.94696 10.5802 2.73499 10.4239 2.57871C10.2676 2.42243 10.0556 2.33464 9.83464 2.33464H3.16797C2.50493 2.33464 1.86904 2.59803 1.4002 3.06687C0.931361 3.53571 0.667969 4.17159 0.667969 4.83464V15.018C0.670165 15.6317 0.914946 16.2197 1.34893 16.6537C1.78291 17.0877 2.37089 17.3324 2.98464 17.3346H13.3513C13.5771 17.3328 13.8016 17.2992 14.018 17.2346C14.4992 17.0997 14.9228 16.8106 15.2239 16.4116C15.5249 16.0127 15.6868 15.5261 15.6846 15.0263V8.16797C15.6847 8.05712 15.6626 7.94738 15.6196 7.84517C15.5767 7.74296 15.5139 7.65035 15.4347 7.57274C15.3555 7.49514 15.2617 7.43411 15.1587 7.39322C15.0556 7.35234 14.9455 7.33242 14.8346 7.33464ZM3.16797 15.668C2.94696 15.668 2.73499 15.5802 2.57871 15.4239C2.42243 15.2676 2.33464 15.0556 2.33464 14.8346V11.8596L4.74297 9.4513C4.86476 9.33019 5.02954 9.26221 5.2013 9.26221C5.37306 9.26221 5.53784 9.33019 5.65964 9.4513L11.8846 15.668H3.16797ZM14.0013 14.8346C13.996 14.996 13.9438 15.1523 13.8513 15.2846L10.0846 11.5013L10.6763 10.918C10.736 10.857 10.8074 10.8086 10.8861 10.7755C10.9648 10.7424 11.0493 10.7254 11.1346 10.7254C11.22 10.7254 11.3045 10.7424 11.3832 10.7755C11.4619 10.8086 11.5332 10.857 11.593 10.918L14.0013 13.343V14.8346ZM16.5013 2.33464H15.668V1.5013C15.668 1.28029 15.5802 1.06833 15.4239 0.912046C15.2676 0.755766 15.0556 0.667969 14.8346 0.667969C14.6136 0.667969 14.4017 0.755766 14.2454 0.912046C14.0891 1.06833 14.0013 1.28029 14.0013 1.5013V2.33464H13.168C12.947 2.33464 12.735 2.42243 12.5787 2.57871C12.4224 2.73499 12.3346 2.94696 12.3346 3.16797C12.3346 3.38898 12.4224 3.60094 12.5787 3.75722C12.735 3.9135 12.947 4.0013 13.168 4.0013H14.0013V4.83464C14.0013 5.05565 14.0891 5.26761 14.2454 5.42389C14.4017 5.58017 14.6136 5.66797 14.8346 5.66797C15.0556 5.66797 15.2676 5.58017 15.4239 5.42389C15.5802 5.26761 15.668 5.05565 15.668 4.83464V4.0013H16.5013C16.7223 4.0013 16.9343 3.9135 17.0906 3.75722C17.2468 3.60094 17.3346 3.38898 17.3346 3.16797C17.3346 2.94696 17.2468 2.73499 17.0906 2.57871C16.9343 2.42243 16.7223 2.33464 16.5013 2.33464Z" fill="#040921"/>
</svg>
