<svg width="14" height="20" viewBox="0 0 14 20" fill="none" xmlns="http://www.w3.org/2000/svg">
<path d="M12.7081 7.71189C12.8018 7.61893 12.8762 7.50833 12.927 7.38647C12.9778 7.26461 13.0039 7.1339 13.0039 7.00189C13.0039 6.86988 12.9778 6.73917 12.927 6.61732C12.8762 6.49546 12.8018 6.38486 12.7081 6.29189L7.70811 1.29189C7.61514 1.19816 7.50454 1.12377 7.38268 1.073C7.26083 1.02223 7.13012 0.996093 6.99811 0.996093C6.8661 0.996093 6.73539 1.02223 6.61353 1.073C6.49167 1.12377 6.38107 1.19816 6.28811 1.29189L1.28811 6.29189C1.19438 6.38485 1.11998 6.49546 1.06922 6.61731C1.01845 6.73917 0.992309 6.86988 0.992309 7.00189C0.992309 7.1339 1.01845 7.26461 1.06922 7.38647C1.11998 7.50833 1.19438 7.61893 1.28811 7.71189C1.38107 7.80562 1.49167 7.88001 1.61353 7.93078C1.73539 7.98155 1.8661 8.00769 1.99811 8.00769C2.13012 8.00769 2.26082 7.98155 2.38268 7.93078C2.50454 7.88001 2.61514 7.80562 2.70811 7.71189L6.99811 3.41189L11.2881 7.71189C11.3811 7.80562 11.4917 7.88001 11.6135 7.93078C11.7354 7.98155 11.8661 8.00769 11.9981 8.00769C12.1301 8.00769 12.2608 7.98155 12.3827 7.93078C12.5045 7.88001 12.6151 7.80562 12.7081 7.71189ZM7.70811 18.7119L12.7081 13.7119C12.8013 13.6187 12.8753 13.508 12.9258 13.3861C12.9762 13.2643 13.0022 13.1338 13.0022 13.0019C13.0022 12.7356 12.8964 12.4802 12.7081 12.2919C12.6149 12.1987 12.5042 12.1247 12.3824 12.0742C12.2605 12.0238 12.13 11.9978 11.9981 11.9978C11.7318 11.9978 11.4764 12.1036 11.2881 12.2919L6.99811 16.5919L2.70811 12.2919C2.61514 12.1982 2.50454 12.1238 2.38268 12.073C2.26082 12.0222 2.13012 11.9961 1.99811 11.9961C1.8661 11.9961 1.73539 12.0222 1.61353 12.073C1.49167 12.1238 1.38107 12.1982 1.28811 12.2919C1.19438 12.3849 1.11998 12.4955 1.06922 12.6173C1.01845 12.7392 0.992309 12.8699 0.992309 13.0019C0.992309 13.1339 1.01845 13.2646 1.06922 13.3865C1.11998 13.5083 1.19438 13.6189 1.28811 13.7119L6.28811 18.7119C6.38107 18.8056 6.49167 18.88 6.61353 18.9308C6.73539 18.9816 6.8661 19.0077 6.99811 19.0077C7.13012 19.0077 7.26082 18.9816 7.38268 18.9308C7.50454 18.88 7.61514 18.8056 7.70811 18.7119Z" fill="#040921"/>
</svg>
