<svg width="22" height="13" viewBox="0 0 22 13" fill="none" xmlns="http://www.w3.org/2000/svg">
<path d="M20.9219 0.62C20.8204 0.375651 20.6262 0.181475 20.3819 0.0799999C20.2617 0.028759 20.1326 0.00157999 20.0019 0H15.0019C14.7367 0 14.4823 0.105357 14.2948 0.292893C14.1072 0.48043 14.0019 0.734784 14.0019 1C14.0019 1.26522 14.1072 1.51957 14.2948 1.70711C14.4823 1.89464 14.7367 2 15.0019 2H17.5919L12.0019 7.59L8.71189 4.29C8.61893 4.19627 8.50833 4.12188 8.38647 4.07111C8.26461 4.02034 8.1339 3.9942 8.00189 3.9942C7.86988 3.9942 7.73917 4.02034 7.61732 4.07111C7.49546 4.12188 7.38486 4.19627 7.29189 4.29L1.29189 10.29C1.19816 10.383 1.12377 10.4936 1.073 10.6154C1.02223 10.7373 0.996094 10.868 0.996094 11C0.996094 11.132 1.02223 11.2627 1.073 11.3846C1.12377 11.5064 1.19816 11.617 1.29189 11.71C1.38486 11.8037 1.49546 11.8781 1.61732 11.9289C1.73917 11.9797 1.86988 12.0058 2.00189 12.0058C2.1339 12.0058 2.26461 11.9797 2.38647 11.9289C2.50833 11.8781 2.61893 11.8037 2.71189 11.71L8.00189 6.41L11.2919 9.71C11.3849 9.80373 11.4955 9.87812 11.6173 9.92889C11.7392 9.97966 11.8699 10.0058 12.0019 10.0058C12.1339 10.0058 12.2646 9.97966 12.3865 9.92889C12.5083 9.87812 12.6189 9.80373 12.7119 9.71L19.0019 3.41V6C19.0019 6.26522 19.1072 6.51957 19.2948 6.70711C19.4823 6.89464 19.7367 7 20.0019 7C20.2671 7 20.5215 6.89464 20.709 6.70711C20.8965 6.51957 21.0019 6.26522 21.0019 6V1C21.0003 0.869323 20.9731 0.740222 20.9219 0.62Z" fill="#040921"/>
</svg>
