<svg width="12" height="8" viewBox="0 0 12 8" fill="none" xmlns="http://www.w3.org/2000/svg">
<path d="M11.0326 0.407502C10.9629 0.337206 10.8799 0.28141 10.7885 0.243334C10.6971 0.205257 10.5991 0.185654 10.5001 0.185654C10.4011 0.185654 10.303 0.205257 10.2117 0.243334C10.1203 0.28141 10.0373 0.337206 9.96759 0.407502L4.38008 6.0025L2.03258 3.6475C1.96019 3.57757 1.87474 3.52259 1.7811 3.48568C1.68745 3.44878 1.58746 3.43068 1.48683 3.43243C1.38619 3.43417 1.28688 3.45571 1.19457 3.49583C1.10227 3.53595 1.01876 3.59386 0.948834 3.66625C0.878905 3.73864 0.82392 3.8241 0.787017 3.91774C0.750114 4.01138 0.732016 4.11138 0.733757 4.21201C0.735498 4.31265 0.757044 4.41195 0.797164 4.50426C0.837284 4.59657 0.895193 4.68007 0.967584 4.75L3.84758 7.63C3.91731 7.7003 4.00026 7.75609 4.09165 7.79417C4.18305 7.83225 4.28108 7.85185 4.38008 7.85185C4.47909 7.85185 4.57712 7.83225 4.66852 7.79417C4.75991 7.75609 4.84286 7.7003 4.91258 7.63L11.0326 1.51C11.1087 1.43977 11.1695 1.35453 11.211 1.25966C11.2526 1.16478 11.274 1.06233 11.274 0.958753C11.274 0.855176 11.2526 0.752722 11.211 0.657848C11.1695 0.562973 11.1087 0.477734 11.0326 0.407502Z" fill="white"/>
</svg>
