<svg width="20" height="22" viewBox="0 0 20 22" fill="none" xmlns="http://www.w3.org/2000/svg">
<path d="M13.7085 11.7116C14.6889 10.9402 15.4045 9.88251 15.7558 8.68553C16.107 7.48855 16.0765 6.21185 15.6683 5.03306C15.2602 3.85426 14.4948 2.83198 13.4786 2.10845C12.4624 1.38491 11.246 0.996094 9.99853 0.996094C8.75108 0.996094 7.53465 1.38491 6.51846 2.10845C5.50228 2.83198 4.73688 3.85426 4.32874 5.03306C3.92061 6.21185 3.89004 7.48855 4.24129 8.68553C4.59254 9.88251 5.30814 10.9402 6.28853 11.7116C4.60861 12.3846 3.14282 13.5009 2.04742 14.9415C0.95203 16.3821 0.268095 18.0929 0.0685318 19.8916C0.0540864 20.0229 0.0656484 20.1558 0.102557 20.2826C0.139466 20.4095 0.200999 20.5278 0.283643 20.6309C0.450551 20.8391 0.693315 20.9724 0.958532 21.0016C1.22375 21.0308 1.48969 20.9534 1.69786 20.7865C1.90602 20.6196 2.03936 20.3768 2.06853 20.1116C2.28812 18.1568 3.22022 16.3514 4.68675 15.0404C6.15328 13.7294 8.05143 13.0046 10.0185 13.0046C11.9856 13.0046 13.8838 13.7294 15.3503 15.0404C16.8168 16.3514 17.7489 18.1568 17.9685 20.1116C17.9957 20.3573 18.113 20.5842 18.2976 20.7486C18.4823 20.913 18.7213 21.0031 18.9685 21.0016H19.0785C19.3407 20.9714 19.5803 20.8389 19.7451 20.6328C19.9099 20.4268 19.9866 20.164 19.9585 19.9016C19.758 18.0978 19.0704 16.3826 17.9694 14.9398C16.8684 13.497 15.3954 12.3811 13.7085 11.7116ZM9.99853 11.0016C9.20741 11.0016 8.43405 10.767 7.77625 10.3275C7.11845 9.88794 6.60576 9.26323 6.30301 8.53232C6.00026 7.80142 5.92105 6.99715 6.07539 6.22123C6.22973 5.4453 6.61069 4.73257 7.1701 4.17316C7.72951 3.61375 8.44225 3.23279 9.21817 3.07845C9.99409 2.92411 10.7984 3.00332 11.5293 3.30607C12.2602 3.60882 12.8849 4.12151 13.3244 4.77931C13.7639 5.43711 13.9985 6.21046 13.9985 7.00159C13.9985 8.06246 13.5771 9.07987 12.827 9.83002C12.0768 10.5802 11.0594 11.0016 9.99853 11.0016Z" fill="black"/>
</svg>
