<svg width="14" height="14" viewBox="0 0 14 14" fill="none" xmlns="http://www.w3.org/2000/svg">
<path d="M5.80537 8.83203C5.86734 8.89452 5.94107 8.94411 6.02231 8.97796C6.10355 9.01181 6.19069 9.02923 6.2787 9.02923C6.36671 9.02923 6.45384 9.01181 6.53508 8.97796C6.61632 8.94411 6.69006 8.89452 6.75203 8.83203L9.47203 6.11203C9.59757 5.9865 9.66809 5.81623 9.66809 5.6387C9.66809 5.46116 9.59757 5.2909 9.47203 5.16537C9.3465 5.03983 9.17623 4.9693 8.9987 4.9693C8.82116 4.9693 8.6509 5.03983 8.52537 5.16537L6.2787 7.4187L5.47203 6.60537C5.3465 6.47983 5.17623 6.4093 4.9987 6.4093C4.82116 6.4093 4.6509 6.47983 4.52536 6.60537C4.39983 6.7309 4.3293 6.90116 4.3293 7.0787C4.3293 7.25623 4.39983 7.4265 4.52536 7.55203L5.80537 8.83203ZM12.9987 0.332031H0.998698C0.821887 0.332031 0.652318 0.402269 0.527293 0.527293C0.402269 0.652318 0.332031 0.821887 0.332031 0.998698V12.9987C0.332031 13.1755 0.402269 13.3451 0.527293 13.4701C0.652318 13.5951 0.821887 13.6654 0.998698 13.6654H12.9987C13.1755 13.6654 13.3451 13.5951 13.4701 13.4701C13.5951 13.3451 13.6654 13.1755 13.6654 12.9987V0.998698C13.6654 0.821887 13.5951 0.652318 13.4701 0.527293C13.3451 0.402269 13.1755 0.332031 12.9987 0.332031ZM12.332 12.332H1.66536V1.66536H12.332V12.332Z" fill="white"/>
</svg>
