<svg width="22" height="20" viewBox="0 0 22 20" fill="none" xmlns="http://www.w3.org/2000/svg">
<path d="M10.25 14.2697C10.25 13.8557 10.586 13.5137 11 13.5137C11.414 13.5137 11.75 13.8447 11.75 14.2587V14.2697C11.75 14.6837 11.414 15.0197 11 15.0197C10.586 15.0197 10.25 14.6837 10.25 14.2697Z" fill="#F9B50B"/>
<path d="M3.79535 18.418H18.2774C19.4244 18.358 20.3064 17.381 20.2474 16.234C20.2344 16.002 20.1844 15.773 20.0964 15.559L12.8194 2.82298C12.2634 1.81798 10.9984 1.45398 9.99335 2.01098C9.65135 2.19898 9.36935 2.48098 9.18035 2.82298L1.90335 15.559C1.47135 16.623 1.98335 17.835 3.04635 18.268C3.26235 18.355 3.49035 18.405 3.72235 18.418" stroke="#F9B50B" stroke-width="2" stroke-linecap="round" stroke-linejoin="round"/>
<path d="M10.9883 11.3964V8.29639" stroke="#F9B50B" stroke-width="2" stroke-linecap="round" stroke-linejoin="round"/>
</svg>
