<svg width="139" height="118" viewBox="0 0 139 118" fill="none" xmlns="http://www.w3.org/2000/svg">
<path d="M18.7524 102.653C21.5639 101.327 16.3023 96.8654 15.3384 96.0214C14.6556 95.4185 13.7318 96.1821 14.2539 96.986C14.8966 97.9507 15.5794 98.8751 16.2622 99.8398C16.5433 100.242 16.8245 100.684 17.0253 101.126C17.0655 101.247 17.1458 101.407 17.2261 101.528C17.2663 101.608 17.3065 101.649 17.3466 101.689C17.3065 102.372 17.9491 103.055 18.7524 102.653ZM17.6278 101.005C17.5876 101.046 17.5876 101.086 17.5475 101.086C17.5876 101.086 17.6278 101.046 17.6278 101.005Z" fill="#040921" fill-opacity="0.4"/>
<path d="M3.89182 94.9352C3.49017 92.4834 3.32951 89.9913 3.28935 87.4993C3.16885 82.3947 3.65083 77.2498 4.21314 72.1854C5.29759 62.2574 7.2255 52.2491 6.66319 42.2006C6.62302 41.5173 5.45824 41.5977 5.45824 42.281C5.33775 52.4903 3.32951 62.579 2.0844 72.6677C1.4016 77.9331 0.919625 83.2387 0.999954 88.5443C1.08028 93.0059 1.32127 98.1909 3.36968 102.251C3.89182 103.296 5.57874 102.773 5.33775 101.607C4.9361 99.3565 4.29347 97.1861 3.89182 94.9352Z" fill="#040921" fill-opacity="0.4"/>
<path d="M120.926 113.866C112.973 115.232 44.9404 114.75 36.9877 113.946C29.9991 113.223 22.8096 112.017 15.7406 112.419C15.6201 111.534 15.0979 110.57 14.7766 109.846C14.0537 108.118 13.2905 106.39 12.4471 104.742C10.8003 101.566 8.75191 98.4714 5.37807 96.9039C4.85592 96.6627 4.41411 97.547 4.93625 97.8283C7.86828 99.4361 9.59537 103.094 10.9208 106.028C11.6438 107.595 12.2462 109.203 12.8085 110.811C13.0094 111.374 13.17 112.137 13.4512 112.821C13.2504 113.142 13.411 113.705 13.893 113.745C13.9733 113.745 14.0135 113.745 14.0938 113.745C14.1742 113.826 14.2143 113.866 14.2946 113.906C14.6561 114.147 15.1381 114.067 15.4193 113.826C22.8497 114.268 30.1597 115.152 37.5501 116.036C45.4223 117.001 113.495 117.724 121.287 115.875C122.573 115.554 122.211 113.665 120.926 113.866Z" fill="#040921" fill-opacity="0.4"/>
<path d="M6.7837 39.022C7.02469 40.1475 8.91243 40.1475 8.87227 38.9014C8.75177 35.2438 9.31408 31.6665 9.59523 28.0491C9.83622 24.9541 9.55507 21.618 7.4665 19.126C6.98452 18.5633 6.02057 19.2064 6.38205 19.8495C9.47474 26.2001 5.37793 32.5508 6.7837 39.022Z" fill="#040921" fill-opacity="0.4"/>
<path d="M119.641 37.8191C116.549 36.1711 112.813 36.0104 109.359 36.0104C105.021 35.9702 50.7238 36.4123 46.4262 36.7339C35.3407 37.4975 24.2151 35.93 13.1296 36.5329C12.4468 36.5731 12.3263 37.6583 13.0492 37.6583C23.6929 37.6985 34.3366 39.3867 44.9802 38.9847C52.6116 38.7034 111.287 37.0956 118.597 39.9896C119.842 40.4317 120.846 38.4622 119.641 37.8191Z" fill="#040921" fill-opacity="0.4"/>
<path d="M118.156 44.8504C100.282 43.524 32.65 47.1817 14.857 47.7042C13.9332 47.7444 13.7726 49.1512 14.7365 49.1512C32.5295 49.2717 100.202 45.8954 117.995 46.7395C119.24 46.8199 119.401 44.9308 118.156 44.8504Z" fill="#040921" fill-opacity="0.4"/>
<path d="M138.96 26.2816C139.04 23.4681 139.08 20.2525 137.916 17.5997C136.711 14.8665 133.618 13.8215 130.887 13.3794C127.834 12.897 124.742 13.0176 121.649 13.2186C121.488 9.23937 120.082 4.77784 117.954 1.76328C117.07 0.477074 115.504 0.959402 115.062 2.04464C114.62 1.60251 113.817 1.80348 113.777 2.56716C113.576 5.98366 113.897 9.44034 113.897 12.8568C113.897 13.098 113.897 13.3392 113.897 13.5803C111.568 13.6205 109.238 13.6607 106.908 13.7009C102.33 13.8215 37.7107 13.9421 33.1319 13.9823C32.8507 10.4854 32.0073 6.82773 31.8868 3.85337C31.8466 2.92891 31.0835 1.92406 30.0392 2.00445C28.7941 2.12503 27.9105 2.48678 27.2678 3.12988C27.2678 3.04949 27.2277 2.9691 27.2277 2.92891C27.1072 2.24561 26.1031 2.326 25.9424 2.92891C25.0186 6.14443 25.0989 9.7619 24.9785 13.098C24.9785 13.4196 24.9383 13.7009 24.9383 14.0225C20.6407 13.9823 16.3029 13.9019 12.0052 14.1832C11.4429 14.2234 11.2421 14.9067 11.6437 15.1881C11.6036 15.2685 11.6036 15.3489 11.6036 15.4293C12.1659 17.5595 11.8044 20.2123 11.5634 22.3828C11.2823 25.0356 10.72 27.6884 10.3183 30.3011C9.95682 32.5117 9.23386 35.888 9.59534 38.7418C8.87238 38.782 8.10924 38.8222 7.38628 38.8624C6.98463 38.8624 6.86414 39.5055 7.30595 39.5859C8.18957 39.7467 9.03303 39.9074 9.87649 40.0682C9.95682 40.3094 10.0372 40.5907 10.1175 40.8319C9.91666 40.9525 9.79617 41.1534 9.67567 41.3946C9.67567 41.475 9.63551 41.5554 9.55518 41.5956C8.9527 41.8367 8.99287 42.7612 9.71584 42.7612C9.79617 42.7612 9.83633 42.7612 9.91666 42.7612C9.67567 42.922 9.59534 43.2033 9.67567 43.6455C9.51501 44.9719 9.35435 46.2983 9.23386 47.6247C8.99287 50.2373 8.79205 52.8901 8.63139 55.5429C8.2699 61.0897 7.90842 66.5963 7.74776 72.1431C7.62727 76.4036 7.42644 80.6642 7.18545 84.9248C7.0248 87.0148 7.0248 89.0245 7.18545 91.0342C7.30595 92.8028 7.46661 95.335 8.91254 96.5408C9.47485 97.0232 10.3183 97.1839 11.0011 96.9428C11.0413 97.827 11.2421 98.5505 11.7241 99.5554C12.6479 101.364 13.9733 102.891 15.2987 104.419C16.6643 105.946 18.1103 107.393 19.5964 108.8C20.8013 110.006 21.9661 111.453 23.3317 112.417C24.2153 113.061 25.0588 112.699 25.5006 111.975C28.7941 112.217 32.1278 112.056 35.3811 112.096C39.5583 112.136 103.695 112.216 107.872 112.297C112.009 112.377 116.146 112.498 120.323 112.659C124.501 112.779 128.999 113.543 133.136 112.98C133.939 112.86 134.421 112.297 134.582 111.614C135.225 111.332 135.747 110.729 135.827 109.765C136.309 104.258 135.907 98.5103 135.988 92.9636C136.028 87.3766 136.148 81.7494 136.229 76.1625C136.309 70.5755 136.43 64.9483 136.349 59.3212C136.309 56.6683 136.309 53.9753 136.189 51.3225C136.108 49.4334 136.229 47.1825 135.907 45.1327C135.948 45.0523 136.028 44.9719 136.068 44.8513C136.389 44.1278 136.671 43.4043 136.871 42.6406C136.911 42.6004 136.992 42.5602 137.032 42.52C138.116 41.7564 138.116 40.5907 137.514 39.827C137.675 38.9428 137.795 38.0585 137.956 37.1742C138.478 33.6372 138.839 29.9795 138.96 26.2816ZM28.272 20.0918C28.2318 19.1673 28.1916 18.283 28.1515 17.3586C28.4728 17.3586 28.7941 17.3586 29.1154 17.3988C28.9949 18.4036 28.7539 19.3281 28.272 20.0918ZM27.9105 13.1382C27.8302 11.5304 27.79 9.88248 27.7097 8.23452C27.9506 8.23452 28.1916 8.19433 28.3925 8.11394C28.5933 10.0834 28.9146 12.0932 29.0753 14.0627C28.7138 14.0627 28.3523 14.0627 27.9908 14.0627C27.9506 13.7411 27.9506 13.4597 27.9105 13.1382ZM12.8889 36.1292C12.8085 33.6372 13.1298 31.1451 13.3708 28.6933C13.8528 24.2318 14.4553 19.6898 12.4872 15.5498C16.4635 16.6753 20.6808 17.0772 24.8178 17.2782C24.7776 19.4889 24.7375 21.6995 24.4563 23.9102C24.2957 25.1964 25.8621 26.2415 27.0269 25.8797C31.445 24.3925 32.8909 21.2172 33.1319 17.4792C36.4254 17.4792 39.7189 17.4792 43.0124 17.3988C46.5871 17.3184 110.162 17.3586 113.736 17.2782C113.656 19.4889 113.576 21.7397 113.576 23.9504C113.576 25.5983 115.182 26.2816 116.387 25.7993C116.548 25.8797 116.668 25.9601 116.869 26.0405C117.432 26.2415 117.954 26.4022 118.516 26.5228C119.801 26.8042 120.926 25.9601 120.966 24.6337C121.046 22.4632 121.006 20.3329 120.846 18.1625C121.006 17.7605 121.167 17.3184 121.287 16.9164C123.055 16.7959 124.822 16.7155 126.589 16.7557C128.838 16.7959 132.855 16.7557 134.301 18.8859C135.506 20.6143 135.144 23.8298 135.104 25.7993C135.024 30.502 134.461 35.3655 133.337 39.9878C131.529 40.3898 129.682 40.1888 127.754 39.9476C124.822 39.5859 121.85 39.4653 118.918 39.4251C112.813 39.3447 46.7076 39.3447 40.5624 39.1035C34.859 38.9026 29.1556 38.8222 23.4522 38.7418C20.6407 38.7016 17.8693 38.6614 15.0578 38.6212C14.4553 38.6212 13.8528 38.6212 13.2503 38.6212C13.0897 37.8575 12.929 37.0536 12.8889 36.1292ZM17.9095 103.334C16.5438 102.088 15.2987 100.801 14.0938 99.3946C13.4512 98.6309 12.3265 97.3447 11.8847 96.2193C11.9651 96.0585 12.0052 95.8977 12.0454 95.7369C12.0454 95.6968 12.0454 95.6164 12.0856 95.5762C14.5356 95.5762 17.0258 95.2948 19.4357 95.5762C19.516 98.9123 20.48 102.208 20.48 105.584C19.5964 104.821 18.7529 104.097 17.9095 103.334ZM121.087 109.76C116.668 109.76 112.291 109.76 107.872 109.8C103.695 109.84 39.5583 108.961 35.3811 109.122C32.0876 109.242 27.7138 109.282 24.4203 109.765C24.0186 109.242 23.4563 108.8 22.894 108.358C23.2555 108.036 23.4965 107.554 23.4965 106.911C23.4161 102.49 22.5325 98.028 21.8899 93.6469C21.7292 92.6018 21.5644 92.2803 20.721 92.4008C17.8291 92.843 13.8971 93.1243 11.0052 93.5263C10.8446 92.5214 10.5233 91.4764 10.4429 90.4715C10.2421 88.2207 10.3224 85.9698 10.4028 83.7189C10.6036 79.0564 10.6437 74.4341 10.7241 69.7716C10.8044 64.2248 12.0856 58.7182 12.1659 53.1715C12.2061 50.5187 12.2462 47.906 12.0856 45.2532C12.0454 44.7709 12.1257 43.9268 12.0454 43.1631C13.2102 43.4445 14.6963 42.5602 14.1741 41.1534C14.134 41.0329 14.0938 40.9123 14.0135 40.7917C14.134 40.7917 14.2545 40.8319 14.4151 40.8319C17.4275 41.1534 20.48 41.3142 23.4924 41.475C29.4367 41.7965 35.341 42.1181 41.2854 42.5602C47.7117 43.0426 114.098 42.9622 120.524 43.1631C123.577 43.2435 126.589 43.6053 129.642 43.967C130.525 44.0474 131.409 44.1278 132.333 44.0876C132.373 44.9317 133.056 45.615 133.859 45.8561C133.658 47.4237 133.698 49.1119 133.618 50.599C133.417 53.5332 133.297 56.4674 133.176 59.4015C132.895 64.9885 133.694 70.6157 133.493 76.2428C133.293 81.8298 133.092 87.457 132.931 93.044C132.77 98.1888 132.288 104.575 132.57 109.72C129.115 109.358 124.46 109.76 121.087 109.76Z" fill="#040921"/>
<path d="M68.6705 83.3077C69.7798 85.1564 69.8976 85.2374 72.056 86.783C73.2144 88.2989 75.9601 87.8157 77.6531 87.3401C83.5 85.6978 85.0791 71.7615 82.6732 68.4028C82.3465 67.9272 79.8213 69.3242 80.0292 69.9484C83.3656 76 80.476 80.7828 78 84C77.1483 84.85 75.4752 85.4458 75 85C73.4126 84.7401 71.6126 82.9929 71.1495 82.459C70.7061 81.7195 70.4854 80.9372 70.0403 80.2405C67.5721 76.377 66.6338 72.3262 70.6732 68.0461C73.3463 65.2224 78.3659 66.9463 80.0292 69.9484C80.9797 71.6723 83.6534 70.1267 82.6732 68.4028C79.911 63.5876 72.7523 61.9825 68.5941 65.9952C66.2476 68.2541 64.6406 72.7502 65.7693 75.6631C66.1422 78.9402 66.0823 79.5602 68.6705 83.3077Z" fill="#040921"/>
</svg>
