<svg width="128" height="119" viewBox="0 0 128 119" fill="none" xmlns="http://www.w3.org/2000/svg">
<g clip-path="url(#clip0_1_983)">
<path d="M36.4411 102.023C38.2658 97.165 41.4322 93.2677 44.4914 89.1569C46.1014 87.0214 50.4486 82.9106 49.1069 79.9743C48.8922 79.5472 48.4092 79.7607 48.2482 80.0811C46.6918 83.8182 42.9886 87.2349 40.4125 90.3848C37.6754 93.7482 34.7773 97.2717 34.2406 101.703C34.1333 103.038 36.0654 103.091 36.4411 102.023Z" fill="#040921" fill-opacity="0.4"/>
<path d="M34.6698 108.375C34.0258 109.496 35.6359 110.831 36.5482 109.817C39.4464 106.56 41.9688 102.93 44.5449 99.4062C47.0137 96.0428 49.8044 92.3057 50.8241 88.2482C50.9315 87.8211 50.3411 87.3407 50.0191 87.7678C47.3357 90.971 45.1889 94.6013 42.6128 97.9113C39.822 101.275 36.7629 104.585 34.6698 108.375Z" fill="#040921" fill-opacity="0.4"/>
<path d="M38.4804 117.078C42.7739 112.701 49.9119 107.736 50.3949 101.062C50.4485 100.261 49.1605 100.101 48.9458 100.849C47.5504 107.042 40.4662 110.672 36.7093 115.37C35.797 116.598 37.3534 118.253 38.4804 117.078Z" fill="#040921" fill-opacity="0.4"/>
<path d="M70.0913 83.3377C72.9894 79.0133 75.9949 74.8491 79.1613 70.6849C81.7374 67.3215 85.2796 63.6912 86.3529 59.527C86.6213 58.5126 85.1722 58.1923 84.8502 59.0999C84.0452 61.3421 82.3814 63.0505 80.8787 64.8657C79.2687 66.7876 77.7123 68.8163 76.1022 70.7383C73.1504 74.2618 70.0376 77.8922 68.0519 82.0564C67.3542 83.5512 69.2326 84.6723 70.0913 83.3377Z" fill="#040921" fill-opacity="0.4"/>
<path d="M70.0912 92.841C74.9214 85.3135 82.0594 79.4942 86.5139 71.7531C86.9969 70.8989 85.8162 70.2583 85.2258 71.0057C79.8053 77.9994 71.7013 83.4449 67.9445 91.6131C67.3004 93.0546 69.2325 94.2291 70.0912 92.841Z" fill="#040921" fill-opacity="0.4"/>
<path d="M68.8566 104.855C74.1698 97.7542 80.3418 91.3477 85.1719 83.8735C85.7623 82.966 84.3132 81.8448 83.6692 82.699C78.1413 89.7461 71.4864 95.939 66.7636 103.627C65.8512 105.015 67.8906 106.083 68.8566 104.855Z" fill="#040921" fill-opacity="0.4"/>
<path d="M70.7355 110.511C70.0379 112.059 72.1309 113.34 73.0433 111.846C77.3905 104.638 85.4944 100.634 89.1439 92.9999C89.6269 91.9855 88.2316 91.1313 87.6412 92.0923C83.294 99.4064 74.4387 102.77 70.7355 110.511Z" fill="#040921" fill-opacity="0.4"/>
<path d="M87.3731 105.813C87.4804 104.799 85.924 104.692 85.6557 105.6C84.4213 109.551 79.1617 111.633 76.371 114.355C75.1366 115.53 77.015 117.345 78.2494 116.224C81.5768 113.181 86.8364 110.832 87.3731 105.813Z" fill="#040921" fill-opacity="0.4"/>
<path d="M109.27 70.0429C114.905 62.9424 120.755 55.8419 125.048 47.8339C125.531 46.8729 124.19 46.0721 123.599 46.9797C118.662 54.5073 112.436 61.1273 107.391 68.6015C106.64 69.6692 108.411 71.1107 109.27 70.0429Z" fill="#040921" fill-opacity="0.4"/>
<path d="M109.162 83.0167C113.348 75.1688 118.876 68.3352 123.492 60.7543C124.082 59.7933 122.633 58.9925 121.989 59.8467C116.783 66.8404 109.538 73.5138 106.962 82.1091C106.586 83.3904 108.518 84.2446 109.162 83.0167Z" fill="#040921" fill-opacity="0.4"/>
<path d="M109.055 97.6993C111.416 93.2148 113.939 88.7836 116.622 84.4593C119.198 80.2951 122.687 76.3978 124.082 71.6464C124.458 70.2583 122.472 69.7778 121.935 71.0591C120.164 75.3835 116.622 79.1206 113.992 82.9111C111.094 87.1286 108.518 91.5064 106.479 96.1511C105.727 97.9128 108.142 99.4611 109.055 97.6993Z" fill="#040921" fill-opacity="0.4"/>
<path d="M107.767 111.578C110.826 107.254 113.778 102.769 116.89 98.4982C119.52 94.9213 123.062 91.2376 124.136 86.8598C124.511 85.4184 122.365 84.8311 121.882 86.2726C120.593 90.33 116.837 93.6934 114.261 97.0034C110.987 101.221 107.713 105.439 105.244 110.137C104.385 111.792 106.693 113.126 107.767 111.578Z" fill="#040921" fill-opacity="0.4"/>
<path d="M119.037 102.022C115.925 106.026 112.007 109.817 110.021 114.568C109.27 116.33 112.007 117.238 112.973 115.796C115.71 111.632 118.554 107.521 121.291 103.304C122.204 101.862 120.057 100.741 119.037 102.022Z" fill="#040921" fill-opacity="0.4"/>
<path d="M124.512 109.656C125.263 108.162 123.117 106.88 122.204 108.322C121.453 109.55 120.272 110.404 119.145 111.258C118.555 111.739 118.233 112.486 118.662 113.18C119.038 113.821 119.95 114.088 120.594 113.66C122.258 112.699 123.653 111.365 124.512 109.656Z" fill="#040921" fill-opacity="0.4"/>
<path d="M4.82986 106.828C9.17703 100.528 14.9733 95.3499 19.0521 88.8901C19.6424 87.9825 18.247 86.9148 17.5494 87.7156C12.6655 93.6415 6.06424 98.4998 2.41476 105.387C1.55606 107.042 3.81015 108.323 4.82986 106.828Z" fill="#040921" fill-opacity="0.4"/>
<path d="M18.2475 98.873C13.5246 102.984 8.69442 107.308 6.11832 113.127C5.52796 114.462 7.3527 115.583 8.10406 114.302C11.2169 109.07 15.2957 104.532 19.4818 100.101C20.2332 99.3001 19.1062 98.179 18.2475 98.873Z" fill="#040921" fill-opacity="0.4"/>
<path d="M17.4962 110.778C16.6375 111.792 15.6714 112.807 14.6517 113.608C13.6857 114.355 14.9737 115.957 15.9398 115.263C17.2278 114.355 18.2475 113.287 19.1599 112.059C19.8576 111.098 18.2475 109.817 17.4962 110.778Z" fill="#040921" fill-opacity="0.4"/>
<path d="M1.55639 116.599C1.66373 116.759 1.77106 116.866 1.98574 116.919C4.88385 117.56 7.83564 117.506 10.7874 117.56C13.7929 117.613 16.852 118.093 19.8574 117.987C21.1992 118.2 22.8092 117.132 22.4335 115.424C21.7895 112.434 22.0042 109.391 22.2189 106.402C22.4335 102.985 22.3799 99.6749 22.2189 96.2581C21.8969 90.3855 21.1992 84.5129 20.5015 78.6937C22.0042 78.2132 21.7895 75.8642 20.0721 75.5972C19.8574 75.1168 19.1061 74.9566 18.8914 75.4905C15.9396 75.3303 12.9342 75.5972 9.98239 75.7574C7.29895 75.9176 4.34717 75.9709 1.7174 76.5582C1.50272 76.4514 1.23438 76.4514 1.12704 76.7184C1.07337 76.7184 1.0197 76.7718 0.912364 76.7718C0.536683 76.8785 0.536683 77.4124 0.912364 77.4658C0.590351 79.4411 0.590351 81.5766 0.375676 83.5519C-5.06639e-06 86.5416 -5.05429e-06 89.5313 -5.05429e-06 92.5744C-0.0536738 99.9418 0.0536637 107.416 0.375676 114.783C0.429345 115.744 0.966033 116.332 1.55639 116.599ZM9.98239 78.4268C12.7732 78.5335 15.6176 78.8005 18.4621 78.8005C17.9254 84.6197 19.1937 90.4389 19.3547 96.2581C19.5157 102.237 18.2813 108.537 19.0327 114.516C14.4172 114.677 7.90901 114.57 3.2935 115.157C3.2935 115.05 3.34717 114.944 3.34717 114.837C3.61551 107.469 2.81048 99.9952 2.54213 92.6277C2.4348 89.3711 2.32746 86.1145 2.27379 82.8045C2.27379 81.4164 3.27379 79.3877 2.62976 77.9463C5.09853 78.3734 7.62096 78.32 9.98239 78.4268Z" fill="#040921"/>
<path d="M53.83 88.9969C53.8836 83.8717 53.8836 78.6931 53.83 73.568C53.83 69.1902 53.1323 64.8125 54.152 60.4881C54.4203 59.3136 53.6153 58.1391 52.3272 58.1391C48.7314 58.0857 45.1893 58.2458 41.6472 58.2458C38.8027 58.2992 36.0656 58.3526 33.4895 59.4204C33.1138 59.2068 32.6308 59.4204 32.5771 59.8475C32.1478 60.1144 32.2551 60.5949 32.5771 60.8618C32.5235 69.9376 33.0065 79.0668 33.0601 88.196C33.0601 93.1611 33.1138 98.1794 33.2212 103.144C33.2748 105.227 33.2212 107.309 33.3285 109.391C33.4358 111.313 33.8115 113.341 33.2748 115.21C32.6845 117.345 35.2606 118.413 36.656 117.292C41.2715 118.36 46.9604 119.054 51.3075 117.612C51.7369 117.452 52.0052 117.239 52.2736 116.972C53.2396 116.758 54.0983 116.064 54.2593 114.836C55.118 106.348 53.7226 97.5922 53.83 88.9969ZM42.0228 114.729C40.5738 114.729 38.0711 114.676 36.5683 114.729C36.9977 111.686 36.3 108.216 36.2463 105.227C36.1926 99.5141 35.978 93.8551 35.9243 88.1427C35.8706 82.9641 36.3339 77.8389 35.9583 72.7138C35.6899 69.03 35.9583 64.4388 34.3482 60.8618C37.0316 60.7017 39.7687 61.022 42.4522 61.2355C44.9746 61.4491 50.0195 61.6626 50.0195 61.6626C50.0195 61.6626 50.7511 68.336 50.8585 71.6994C51.0195 76.6644 50.8048 81.6828 50.6975 86.6478C50.5901 91.3993 50.4291 96.0974 50.5901 100.795C50.7511 105.173 51.0195 109.551 50.6438 113.929C48.1214 114.516 44.6526 114.783 42.0228 114.729Z" fill="#040921"/>
<path d="M89.4121 53.9751C89.3048 50.6651 89.1438 47.4085 89.0364 44.0985C88.9291 40.8953 88.8754 37.2649 87.8557 34.1685C87.6947 33.7414 87.158 33.7414 86.997 34.1685C86.836 34.7023 86.675 35.2896 86.5677 35.8769C86.4603 35.8235 86.4067 35.8235 86.2993 35.8235C83.1329 35.2362 79.4834 35.7167 76.2633 35.7167C73.2578 35.7167 69.9304 35.9302 67.3543 37.5852C66.7639 37.959 66.7639 38.8132 67.1932 39.1869C67.4079 41.3757 67.0859 43.4044 66.7639 45.5933C66.3345 48.3695 66.4956 51.199 66.5492 53.9751C66.7102 61.0756 66.6566 68.1761 66.6566 75.2766C66.6566 82.644 66.7639 89.9581 67.1932 97.3255C67.4079 100.689 67.5689 104.052 67.5689 107.416C67.5689 110.245 67.5689 113.235 68.4813 115.958C68.9106 117.186 69.9304 117.613 70.8964 117.452C75.6192 119.214 81.8985 119.321 86.7823 118.68C87.1044 118.627 87.3727 118.52 87.5337 118.413C88.8218 118.734 90.3782 118.04 90.3782 116.331C90.4318 102.557 90.2708 88.7835 90.0025 75.0097C89.9488 67.9625 89.6805 60.9688 89.4121 53.9751ZM78.9467 115.21C76.9073 115.317 73.8142 115.21 71.7748 115.21C71.7748 115.05 71.7748 114.89 71.7211 114.73C71.0771 111.687 71.0234 108.697 71.0234 105.601C70.9698 102.077 70.7014 98.5534 70.4867 95.0298C70.0574 87.3421 70.9501 79.7077 70.8427 71.9666C70.7354 64.9195 70.4134 57.819 69.8767 50.7719C69.662 48.2093 69.662 45.6467 69.6083 43.0841C69.5547 41.8562 69.4473 40.3614 68.7496 39.2936C71.6478 39.1335 74.4385 39.0267 77.3366 39.2402C80.1274 39.4538 83.6159 40.2012 86.2993 39.1869C86.192 40.4682 87.192 41.7494 87.0847 43.0307C86.87 46.6611 86.8163 50.3448 86.7626 53.9751C86.6553 60.9688 86.6016 67.9092 86.6016 74.9029C86.6016 88.3031 86.87 101.703 86.9237 115.05C84.6159 114.89 81.2545 115.157 78.9467 115.21Z" fill="#040921"/>
<path d="M103.581 64.0633C103.527 72.4985 103.044 80.9336 103.098 89.3688C103.152 97.6972 103.527 106.079 103.796 114.407C103.849 116.169 105.674 116.81 106.908 116.276C109.055 118.091 112.383 118.091 115.066 117.984C118.716 117.878 122.365 117.344 125.961 117.13C127.786 117.023 128.322 115.101 127.625 113.98C127.786 113.66 127.947 113.286 127.947 112.859C127.893 109.015 127.034 105.278 126.712 101.434C126.39 97.4837 126.336 93.533 126.39 89.529C126.551 81.0938 127.195 72.6586 127.195 64.1701C127.195 55.6281 127.195 47.0862 127.303 38.4909C127.41 30.8565 128 22.6349 126.712 15.0005C126.819 14.6268 126.712 14.1997 126.497 13.826C126.497 13.7726 126.497 13.7726 126.497 13.7192C126.444 13.5057 126.283 13.3989 126.122 13.3455C125.746 13.0252 125.209 12.8116 124.673 12.9184C122.687 13.2387 120.862 13.7726 118.823 13.9861C116.944 14.1463 115.012 14.1463 113.134 14.2531C110.021 14.4132 106.372 14.52 103.796 16.442C103.527 16.6555 103.42 17.0292 103.527 17.2961C103.42 17.4029 103.366 17.5631 103.366 17.7232C103.527 24.9305 103.903 32.0844 103.796 39.345C103.635 47.6201 103.688 55.8417 103.581 64.0633ZM115.012 17.3495C118.232 17.4029 121.989 17.6699 125.048 16.442C123.975 23.3289 124.082 30.5362 123.76 37.4231C123.385 45.9651 124.277 54.507 124.17 63.1023C124.116 71.5909 123.472 80.0261 123.15 88.4612C122.989 92.4119 123.043 96.4159 123.258 100.367C123.526 104.531 123.546 108.642 123.599 112.859C123.599 112.966 123.599 113.073 123.653 113.18C121.292 113.34 118.93 113.82 116.622 114.194C113.832 114.621 110.88 114.301 108.089 114.674C108.089 114.621 108.089 114.514 108.089 114.461C107.982 106.132 106.66 97.7506 106.606 89.4222C106.552 80.987 106.928 72.5519 106.928 64.1167C106.928 55.8951 106.767 47.6734 106.713 39.4518C106.66 32.4047 107.821 24.3966 104.923 17.7766C108.304 17.5097 111.578 17.2428 115.012 17.3495Z" fill="#040921"/>
<path d="M24.7411 39.8796C30.913 36.7831 37.1923 33.8468 43.3642 30.8571C49.9655 27.6005 56.6204 24.5574 63.168 21.194C69.5009 17.9374 75.8875 13.9334 82.7571 11.7979C83.2938 12.919 84.0451 13.9334 85.2258 14.2003C85.7088 15.0011 86.7822 15.2147 87.7483 14.841C88.607 14.4673 89.1437 13.3461 89.6803 12.5987C90.5927 11.3708 91.5587 10.1429 92.4711 8.86161C93.7592 7.09984 95.8522 4.37709 95.1009 2.02806C93.7592 -2.45647 83.6694 1.70773 80.8787 2.29499C80.503 2.40177 80.342 2.72209 80.3956 3.0958C80.181 3.25596 80.02 3.57628 80.1273 3.89661C80.5567 5.12451 80.9323 6.29903 81.308 7.52694C81.2543 7.58032 81.147 7.58032 81.0933 7.63371C69.6619 13.6131 58.1768 19.5924 46.6917 25.465C40.7344 28.5081 34.7772 31.6045 28.8736 34.8078C28.4443 35.0213 18.8912 40.4134 19.1059 40.627C18.5156 40.0397 17.5495 40.7871 17.9252 41.5346C18.9986 43.4031 23.6141 40.4668 24.7411 39.8796ZM86.5139 3.57628C87.8019 3.46951 89.0363 3.30935 90.3244 3.25596C90.8074 3.25596 91.2367 3.25596 91.6661 3.30935C91.0757 5.12451 89.3583 6.88629 88.1776 8.32774C87.6946 8.915 86.8896 9.66242 86.1919 10.5166C86.0845 10.3565 85.9235 10.2497 85.8162 10.0895C85.1722 9.23532 84.7428 8.22097 84.3135 7.31339C83.7768 6.13887 83.1864 4.85758 82.2204 3.89661C83.6694 3.94999 85.1185 3.73645 86.5139 3.57628Z" fill="#040921"/>
</g>
<defs>
<clipPath id="clip0_1_983">
<rect width="128" height="119" fill="white"/>
</clipPath>
</defs>
</svg>
