<svg width="179" height="117" viewBox="0 0 179 117" fill="none" xmlns="http://www.w3.org/2000/svg">
<g clip-path="url(#clip0_1_867)">
<path d="M47.3636 49.8275C46.9075 51.8768 45.1589 53.7364 44.1326 55.558C42.6881 58.1006 41.5858 61.0607 40.5974 63.7931C40.1413 65.0834 42.0039 65.6527 42.6881 64.666C44.6267 61.8956 45.425 58.2524 46.9075 55.2164C47.5157 53.9641 49.2642 51.004 48.0098 49.6757C47.7818 49.486 47.4016 49.5619 47.3636 49.8275Z" fill="#040921" fill-opacity="0.4"/>
<path d="M49.6061 52.4857C48.3897 54.9145 46.7552 57.0397 45.1967 59.2408C44.2844 60.5311 42.4218 62.4666 43.068 64.1743C43.2961 64.7815 44.3604 65.161 44.6645 64.3641C45.5008 62.4286 46.299 60.6829 47.4014 58.8234C48.5418 56.8879 49.9862 54.9145 50.0623 52.5616C50.0623 52.3719 49.7202 52.258 49.6061 52.4857Z" fill="#040921" fill-opacity="0.4"/>
<path d="M50.8984 55.1046C50.4423 55.56 50.3282 56.1672 50.0241 56.7364C49.568 57.5713 48.9598 58.3683 48.4276 59.1273C47.5913 60.2658 46.1849 61.9736 46.679 63.4916C46.9071 64.2126 47.7434 64.2126 48.1235 63.6813C48.6557 62.9982 48.8077 61.9736 49.2259 61.2146C49.682 60.3417 50.2142 59.5068 50.7083 58.6339C51.2025 57.6852 52.1148 56.0913 51.2785 55.1425C51.1645 54.9907 51.0124 54.9907 50.8984 55.1046Z" fill="#040921" fill-opacity="0.4"/>
<path d="M53.483 54.6486C53.4069 55.066 53.0648 55.5214 52.8367 55.9009C52.5707 56.3563 52.3046 56.8117 52.0005 57.2671C51.6204 57.8364 52.5326 58.3677 52.9128 57.7984C53.483 57.0015 54.6233 55.5973 53.9391 54.6106C53.8631 54.3829 53.559 54.3829 53.483 54.6486Z" fill="#040921" fill-opacity="0.4"/>
<path d="M51.0506 61.4048C50.7085 62.4295 49.9482 63.2264 49.7202 64.289C49.5301 65.1619 50.7465 65.807 51.2407 64.9342C51.8109 63.9095 52.267 62.7331 52.267 61.5566C52.267 60.8356 51.2787 60.7597 51.0506 61.4048Z" fill="#040921" fill-opacity="0.4"/>
<path d="M41.5095 54.8388C41.2435 55.7496 40.6733 56.5466 40.4072 57.4574C40.1791 58.2543 41.3575 58.7856 41.7756 58.0266C42.2318 57.1538 42.5739 56.1291 42.6879 55.1424C42.802 54.3834 41.7376 54.0419 41.5095 54.8388Z" fill="#040921" fill-opacity="0.4"/>
<path d="M67.092 54.9888C66.9399 56.0514 66.1797 57.0002 65.9136 58.0248C65.6855 58.8218 66.9019 59.1254 67.13 58.3664C67.5101 57.2279 68.1563 56.0135 67.5861 54.837C67.4721 54.5714 67.13 54.7611 67.092 54.9888Z" fill="#040921" fill-opacity="0.4"/>
<path d="M72.7553 49.9417C70.0564 53.6229 68.84 57.9492 67.0914 62.0858C66.5212 63.452 68.7259 64.0212 69.2961 62.6929C70.3225 60.2262 70.7026 57.5697 71.7669 55.1029C72.4512 53.509 73.5155 51.7633 73.2114 50.0176C73.1734 49.7899 72.8693 49.7899 72.7553 49.9417Z" fill="#040921" fill-opacity="0.4"/>
<path d="M74.4659 53.4335C74.6179 53.6233 71.843 58.0634 71.5389 58.6327C70.8927 59.8091 68.3839 62.7692 69.1061 64.1734C69.2202 64.439 69.6003 64.6667 69.9044 64.6288C71.0068 64.5149 71.2729 63.3764 71.653 62.5036C72.2992 61.0994 72.9454 59.6953 73.5156 58.2911C73.8957 57.4183 75.7583 54.1166 74.808 53.1679C74.656 52.9781 74.3138 53.2058 74.4659 53.4335Z" fill="#040921" fill-opacity="0.4"/>
<path d="M76.899 55.1394C76.899 55.1394 75.6066 57.3025 75.4926 57.5682C74.8084 59.0103 73.744 61.0596 73.8581 62.6535C73.9341 63.5263 74.9224 63.7161 75.4166 63.0709C76.1008 62.1601 76.1768 60.9078 76.4429 59.8072C76.671 58.8585 76.899 57.9477 77.2031 56.9989C77.3932 56.3538 77.8874 55.2153 77.2031 54.7219C76.9371 54.6081 76.709 54.9496 76.899 55.1394Z" fill="#040921" fill-opacity="0.4"/>
<path d="M76.4807 61.0232C76.4427 61.4786 76.3666 61.934 76.2146 62.3514C76.0625 62.7689 75.9865 63.2242 75.8725 63.6417C75.6824 64.3627 76.6327 64.7043 77.0509 64.1351C77.393 63.6038 77.583 63.1863 77.6591 62.5412C77.7351 61.9719 77.6971 61.4406 77.583 60.8713C77.469 60.1882 76.5187 60.416 76.4807 61.0232Z" fill="#040921" fill-opacity="0.4"/>
<path d="M66.9776 62.6913C66.9776 63.1088 66.8636 63.5262 66.7115 63.9057C66.5595 64.3232 66.4834 64.7407 66.4454 65.1961C66.3694 66.0689 67.7378 66.2207 67.9659 65.3858C68.232 64.4371 68.4221 63.4883 68.27 62.4636C68.156 61.7426 67.0156 61.9703 66.9776 62.6913Z" fill="#040921" fill-opacity="0.4"/>
<path d="M92.9408 54.7595C92.7508 55.2908 92.3707 55.7462 92.1046 56.2395C91.8005 56.7708 91.6484 57.1503 91.6484 57.7576C91.6484 58.3268 92.4847 58.5925 92.7508 58.0612C93.2829 57.0745 93.7771 55.898 93.473 54.7595C93.397 54.4938 93.0169 54.5318 92.9408 54.7595Z" fill="#040921" fill-opacity="0.4"/>
<path d="M97.6158 50.9679C96.5894 55.2562 92.066 59.5446 92.6742 64.0606C92.8262 65.0473 94.3087 64.8955 94.5748 64.0606C95.297 61.5559 95.9432 59.2789 97.0456 56.8501C97.8819 54.9526 98.5281 53.131 98.376 51.0438C98.3 50.6643 97.7298 50.5125 97.6158 50.9679Z" fill="#040921" fill-opacity="0.4"/>
<path d="M100.276 53.1702C99.4022 54.8779 98.5279 56.5857 97.6916 58.2934C96.8554 60.0391 95.5629 61.8607 95.1828 63.7203C95.0308 64.5172 95.9431 65.1624 96.5893 64.5172C97.9957 63.1131 98.5659 60.7602 99.2501 58.9386C99.8964 57.1549 100.999 55.2195 100.733 53.284C100.733 53.0943 100.391 52.9045 100.276 53.1702Z" fill="#040921" fill-opacity="0.4"/>
<path d="M102.367 55.6365C102.748 55.4847 102.139 55.5606 102.101 55.5985C101.873 55.7883 101.721 56.3575 101.607 56.6232C101.265 57.4201 100.923 58.255 100.581 59.052C100.011 60.3423 99.2505 61.6705 99.2885 63.1126C99.3265 63.8716 100.277 64.0614 100.695 63.4921C101.531 62.3157 101.797 60.7597 102.215 59.4315C102.634 58.0653 103.052 56.737 103.128 55.2949C103.166 54.9534 102.748 54.8016 102.52 54.9534C102.367 55.0293 102.329 55.1431 102.177 55.219C101.987 55.3329 102.101 55.7503 102.367 55.6365Z" fill="#040921" fill-opacity="0.4"/>
<path d="M101.987 61.2526C101.721 62.1255 101.417 63.1501 101.455 64.0988C101.493 64.8958 102.633 65.0855 102.861 64.2886C103.089 63.4158 103.051 62.467 103.203 61.5942C103.356 60.7972 102.215 60.4936 101.987 61.2526Z" fill="#040921" fill-opacity="0.4"/>
<path d="M117.762 54.8387C117.42 55.1803 117.23 55.5977 117.002 56.0152C116.736 56.4706 116.508 56.9639 116.508 57.4952C116.546 58.2163 117.382 58.3681 117.762 57.8368C118.066 57.4193 118.218 56.888 118.332 56.3947C118.446 55.9393 118.56 55.4459 118.408 54.9905C118.294 54.7628 117.99 54.649 117.762 54.8387Z" fill="#040921" fill-opacity="0.4"/>
<path d="M123.502 49.2969C122.21 52.9401 117.534 56.1279 117.952 60.3024C118.028 61.0614 119.017 61.4409 119.435 60.7198C120.575 58.7085 120.955 56.3176 122.134 54.2683C123.046 52.7124 123.958 51.2323 124.072 49.4107C124.11 49.0312 123.616 48.9933 123.502 49.2969Z" fill="#040921" fill-opacity="0.4"/>
<path d="M124.984 51.6515C122.78 55.5603 120.689 59.4312 118.712 63.4539C118.142 64.6304 119.739 65.5791 120.461 64.4786C121.867 62.3154 122.4 59.6969 123.464 57.344C124.262 55.5983 125.517 53.7387 125.441 51.7653C125.441 51.5376 125.099 51.4238 124.984 51.6515Z" fill="#040921" fill-opacity="0.4"/>
<path d="M126.733 54.1197C125.555 55.1823 124.794 56.7383 124.034 58.1045C123.274 59.5466 122.438 61.1025 122.172 62.6964C121.981 63.9488 123.616 64.4042 124.072 63.2277C124.642 61.7477 124.984 60.1917 125.555 58.7496C126.125 57.3075 126.923 55.9033 127.151 54.3474C127.151 54.1197 126.885 53.9679 126.733 54.1197Z" fill="#040921" fill-opacity="0.4"/>
<path d="M129.622 54.9526C130.002 55.6736 128.177 58.5199 127.911 59.1271C127.227 60.5312 126.353 61.9354 126.049 63.4534C125.897 64.2883 126.961 64.7816 127.417 64.0226C128.405 62.3908 129.052 60.5312 129.66 58.7476C130.04 57.5711 130.8 55.8634 130.078 54.7249C129.888 54.4592 129.47 54.6869 129.622 54.9526Z" fill="#040921" fill-opacity="0.4"/>
<path d="M144.333 55.2905C143.383 55.9357 142.851 57.3398 142.889 58.4783C142.927 59.3891 144.181 59.3512 144.257 58.4783C144.371 57.5296 144.941 56.6188 144.979 55.67C145.017 55.3664 144.599 55.1387 144.333 55.2905Z" fill="#040921" fill-opacity="0.4"/>
<path d="M149.16 51.1171C147.906 55.4434 144.675 59.0487 143.839 63.5648C143.649 64.5135 144.903 65.1207 145.435 64.2479C146.88 61.9709 147.146 58.9728 148.324 56.506C149.122 54.7983 150.035 53.0526 149.769 51.1171C149.731 50.7756 149.237 50.8135 149.16 51.1171Z" fill="#040921" fill-opacity="0.4"/>
<path d="M150.757 54.0039C149.427 56.926 146.994 60.0379 146.576 63.2637C146.462 64.0606 147.678 64.2883 148.02 63.6432C148.894 62.2011 149.389 60.4933 150.035 58.9374C150.681 57.3814 151.175 55.8634 151.289 54.1557C151.365 53.8521 150.871 53.7382 150.757 54.0039Z" fill="#040921" fill-opacity="0.4"/>
<path d="M152.696 55.1023C152.087 57.9486 150.035 60.4153 150.111 63.3754C150.111 64.2483 151.441 64.438 151.669 63.6031C152.429 60.8328 153.684 58.1383 153.874 55.2541C153.912 54.609 152.848 54.4572 152.696 55.1023Z" fill="#040921" fill-opacity="0.4"/>
<path d="M152.771 62.2745C152.733 62.5401 152.657 62.8058 152.581 63.0714C152.505 63.375 152.505 63.6786 152.505 63.9822C152.505 64.4756 153.227 64.7412 153.455 64.2479C153.607 63.9443 153.759 63.6407 153.873 63.3371C153.987 62.9955 154.025 62.654 154.101 62.3124C154.139 61.9709 153.759 61.6673 153.455 61.6673C153.037 61.6293 152.809 61.9329 152.771 62.2745Z" fill="#040921" fill-opacity="0.4"/>
<path d="M0.000230866 89.1813C1.40669 92.5588 7.37462 90.2818 9.61735 89.2572C14.9011 86.7904 19.6906 82.0846 21.3632 76.4301C21.7053 75.2916 20.0327 74.9121 19.6146 75.9367C17.79 80.3769 14.673 84.058 10.6057 86.6386C9.08517 87.5874 1.93886 91.5342 0.380354 89.0295C0.304329 88.8018 -0.0757938 88.9536 0.000230866 89.1813Z" fill="#040921"/>
<path d="M27.4828 85.7288C26.0384 85.8047 24.784 86.2981 23.4915 86.9812C21.4009 88.0438 19.5383 89.0305 17.2575 89.5997C12.582 90.8141 8.02053 91.3834 3.53508 89.3341C2.6608 88.9166 1.67248 89.9792 2.47073 90.7382C5.47371 93.5845 10.7574 92.8634 14.4446 92.0665C16.6873 91.5731 19.0441 91.0039 21.0588 89.9033C23.2635 88.7269 25.0881 86.8294 27.5589 86.2601C27.8249 86.1463 27.7489 85.6909 27.4828 85.7288Z" fill="#040921"/>
<path d="M21.4772 75.52C17.5619 71.5352 17.4099 64.5145 17.638 59.2773C17.9421 52.1427 20.6029 45.3117 24.3661 39.3156C31.8546 27.3613 43.4863 17.8359 56.0684 11.5741C69.3727 4.93286 83.8554 2.27636 98.6802 2.20046C113.353 2.12456 128.292 3.79436 142.014 9.10737C153.798 13.6614 163.643 21.1755 169.953 32.219C175.579 42.048 178.164 53.8884 176.035 65.0837C173.526 78.1385 164.289 88.423 154.216 96.6202C142.242 106.335 128.178 111.99 112.897 113.85C98.3001 115.633 83.0191 114.836 68.5745 112.256C61.5042 110.965 54.6239 108.726 48.542 104.855C43.2203 101.44 38.3927 97.0756 34.0213 92.5216C31.9306 90.3205 29.9159 88.0435 28.2434 85.5008C27.6352 84.59 26.1527 85.4249 26.7609 86.3737C30.22 91.8764 35.1236 96.5822 39.9892 100.871C45.1969 105.463 50.8227 109.258 57.3988 111.648C64.3931 114.191 71.8055 115.14 79.1799 115.937C87.2005 116.81 95.2591 117.227 103.356 116.886C119.207 116.202 134.716 112.559 148.134 103.831C159.576 96.3925 171.208 85.7665 176.187 72.7876C184.854 50.1693 172.918 22.9212 152.164 11.4223C138.669 3.98411 123.084 0.986055 107.803 0.189103C92.2181 -0.607848 76.6331 0.758354 62.0364 6.52676C48.1619 11.9916 35.5798 20.9478 26.3808 32.7123C18.3982 42.9209 13.0005 56.5829 16.8017 69.5618C17.5619 72.1045 18.7023 74.4574 20.793 76.1651C21.2871 76.5826 21.9334 75.9754 21.4772 75.52Z" fill="#040921"/>
<path d="M46.6028 46.5999C45.6144 47.9661 44.8922 49.2944 44.17 50.8503C43.5998 52.1027 42.6495 53.5448 42.9916 54.9869C43.1436 55.632 44.0179 55.8597 44.4741 55.3664C45.5764 54.2279 46.0706 52.1027 46.5648 50.6226C46.9069 49.56 47.7811 47.6625 47.0969 46.6379C46.9829 46.4101 46.7548 46.4481 46.6028 46.5999Z" fill="#040921"/>
<path d="M46.9069 47.2812H46.9449C46.7929 47.1673 46.6028 47.0155 46.4508 46.9017C46.5648 48.154 47.059 49.4064 47.3631 50.5828C47.7052 51.9111 48.1613 53.2014 48.7695 54.4158C49.4158 55.7061 51.3924 54.5676 50.7462 53.2773C49.7198 51.228 49.3017 47.6607 47.059 46.5601C46.4888 46.2945 46.1847 47.2053 46.7549 47.2812C46.7929 47.2812 46.8689 47.2812 46.9069 47.2812Z" fill="#040921"/>
<path d="M56.7138 54.4171C55.6495 53.5063 54.091 53.5443 52.7606 53.4684C51.5822 53.3925 49.9857 53.0509 49.0353 53.8858C48.5792 54.3033 48.8833 54.9864 49.3775 55.1761C50.3278 55.5177 51.7722 55.29 52.7606 55.2521C54.015 55.2141 55.4214 55.252 56.5998 54.7966C56.7518 54.7587 56.8659 54.531 56.7138 54.4171Z" fill="#040921"/>
<path d="M56.2957 54.5304C55.8016 54.5683 55.4595 54.9099 55.0413 55.1755C54.5091 55.555 54.015 55.8966 53.4828 56.2761C52.4565 57.0351 51.5062 57.9459 50.898 59.0844C50.2137 60.3747 52.1904 61.5511 52.8746 60.2229C53.4448 59.1223 54.4331 58.3254 55.2314 57.4146C55.8016 56.7694 56.8659 55.6689 56.5238 54.7201C56.5618 54.6063 56.4478 54.4924 56.2957 54.5304Z" fill="#040921"/>
<path d="M53.9776 66.3728C54.2436 65.0066 53.7875 63.6025 53.4834 62.2742C53.1793 60.9839 53.2173 59.5798 52.343 58.5172C51.7728 57.8341 50.8606 58.5931 50.9746 59.3141C51.3167 61.667 52.153 64.1338 52.9132 66.3728C53.1033 66.8282 53.8635 66.9421 53.9776 66.3728Z" fill="#040921"/>
<path d="M53.4446 66.2597C53.0644 65.2731 52.1141 64.6279 51.2398 64.0587C50.0234 63.2997 48.731 62.6545 47.4766 62.0093C46.4503 61.516 45.576 62.996 46.6023 63.5273C47.8187 64.1345 48.9591 64.8176 50.1755 65.4628C51.1258 65.9561 52.1901 66.6013 53.2925 66.5254C53.3685 66.5254 53.5206 66.4116 53.4446 66.2597Z" fill="#040921"/>
<path d="M40.7491 66.8672C41.8135 66.5636 42.8778 65.9943 43.9042 65.5769C45.0445 65.0835 46.0329 64.3625 47.1732 63.8312C48.1615 63.3758 47.2873 61.9716 46.3369 62.3891C45.1586 62.8824 44.1322 63.7553 43.0299 64.3625C42.1176 64.8558 40.9012 65.3871 40.407 66.3738C40.255 66.6395 40.445 66.9431 40.7491 66.8672Z" fill="#040921"/>
<path d="M40.711 66.6762C41.3572 65.8792 41.5093 64.8166 41.8134 63.8299C42.1935 62.5776 42.5736 61.3632 42.9157 60.1108C43.2579 58.9723 41.5093 58.5169 41.1672 59.6175C40.787 60.9457 40.4069 62.274 40.1788 63.6022C40.0268 64.5889 39.8367 65.6515 40.2549 66.5623C40.3309 66.7521 40.597 66.79 40.711 66.6762Z" fill="#040921"/>
<path d="M36.4155 55.2519C36.6436 55.7073 37.0997 55.9729 37.4799 56.3145C37.898 56.7319 38.3161 57.1494 38.7343 57.6048C39.5706 58.5156 40.4068 59.4643 41.3191 60.2992C42.4215 61.2859 44.056 59.6161 42.9156 58.7053C41.8133 57.7945 40.7869 56.7699 39.6086 55.897C38.8483 55.3278 37.4799 54.417 36.4916 54.8724C36.3775 54.9483 36.3395 55.138 36.4155 55.2519Z" fill="#040921"/>
<path d="M36.9474 55.3664C38.2018 55.5182 39.4943 55.5182 40.7487 55.5941C41.9651 55.67 43.1815 55.7838 44.3598 55.4802C45.3862 55.2146 45.1961 53.4689 44.0938 53.5827C42.7253 53.7345 41.3949 53.7725 40.0264 53.8484C38.8861 53.9243 37.7077 54.0381 36.7954 54.7212C36.5293 54.9489 36.6433 55.3284 36.9474 55.3664Z" fill="#040921"/>
<path d="M72.1477 46.5999C71.1594 47.9661 70.4371 49.2944 69.7149 50.8503C69.1447 52.1027 68.1944 53.5448 68.5365 54.9869C68.6886 55.632 69.5628 55.8597 70.019 55.3664C71.1213 54.2279 71.6155 52.1027 72.1097 50.6226C72.4518 49.56 73.3261 47.6625 72.6418 46.6379C72.5278 46.4101 72.2997 46.4481 72.1477 46.5999Z" fill="#040921"/>
<path d="M72.4518 47.2812H72.4898C72.3377 47.1673 72.1477 47.0155 71.9576 46.9017C72.0717 48.154 72.5658 49.4064 72.8699 50.5828C73.212 51.9111 73.6682 53.2014 74.2764 54.4158C74.9226 55.7061 76.8992 54.5676 76.253 53.2773C75.2267 51.228 74.8085 47.6607 72.5658 46.5601C71.9956 46.2945 71.6915 47.2053 72.2617 47.2812C72.3378 47.2812 72.4138 47.2812 72.4518 47.2812Z" fill="#040921"/>
<path d="M82.2587 54.4171C81.1944 53.5063 79.6359 53.5443 78.3055 53.4684C77.1271 53.3925 75.5306 53.0509 74.5803 53.8858C74.1241 54.3033 74.4282 54.9864 74.9224 55.1761C75.8727 55.5177 77.3172 55.29 78.3055 55.2521C79.5599 55.2141 80.9663 55.252 82.1447 54.7966C82.2968 54.7587 82.4108 54.531 82.2587 54.4171Z" fill="#040921"/>
<path d="M81.8407 54.5304C81.3465 54.5683 81.0044 54.9099 80.5862 55.1755C80.0541 55.555 79.5599 55.8966 79.0277 56.2761C78.0014 57.0351 77.0511 57.9459 76.4429 59.0844C75.7587 60.3747 77.7353 61.5511 78.4195 60.2229C78.9897 59.1223 79.978 58.3254 80.7763 57.4146C81.3465 56.7694 82.4108 55.6689 82.0687 54.7201C82.1067 54.6063 81.9927 54.4924 81.8407 54.5304Z" fill="#040921"/>
<path d="M79.5225 66.3728C79.7886 65.0066 79.3324 63.6025 79.0283 62.2742C78.7242 60.9839 78.7622 59.5798 77.888 58.5172C77.3178 57.8341 76.4055 58.5931 76.5195 59.3141C76.8616 61.667 77.6979 64.1338 78.4581 66.3728C78.6482 66.8282 79.4085 66.9421 79.5225 66.3728Z" fill="#040921"/>
<path d="M78.9895 66.2597C78.6093 65.2731 77.659 64.6279 76.7848 64.0587C75.5684 63.2997 74.2759 62.6545 73.0215 62.0093C71.9952 61.516 71.1209 62.996 72.1473 63.5273C73.3636 64.1345 74.504 64.8176 75.7204 65.4628C76.6707 65.9561 77.7351 66.6013 78.8374 66.5254C78.9134 66.5254 79.0655 66.4116 78.9895 66.2597Z" fill="#040921"/>
<path d="M66.2941 66.8672C67.3584 66.5636 68.4228 65.9943 69.4491 65.5769C70.5895 65.0835 71.5778 64.3625 72.7182 63.8312C73.7065 63.3758 72.8322 61.9716 71.8819 62.3891C70.7035 62.8824 69.6772 63.7553 68.5748 64.3625C67.6625 64.8558 66.4461 65.3871 65.952 66.3738C65.7999 66.6395 65.99 66.9431 66.2941 66.8672Z" fill="#040921"/>
<path d="M66.2559 66.6762C66.9022 65.8792 67.0542 64.8166 67.3583 63.8299C67.7384 62.5776 68.1186 61.3632 68.4607 60.1108C68.8028 58.9723 67.0542 58.5169 66.7121 59.6175C66.332 60.9457 65.9518 62.274 65.7238 63.6022C65.5717 64.5889 65.3817 65.6515 65.7998 66.5623C65.8758 66.7521 66.1419 66.79 66.2559 66.6762Z" fill="#040921"/>
<path d="M61.9605 55.2519C62.1885 55.7073 62.6447 55.9729 63.0248 56.3145C63.4429 56.7319 63.8611 57.1494 64.2792 57.6048C65.1155 58.5156 65.9517 59.4643 66.864 60.2992C67.9664 61.2859 69.6009 59.6161 68.4606 58.7053C67.3582 57.7945 66.3319 56.7699 65.1535 55.897C64.3932 55.3278 63.0248 54.417 62.0365 54.8724C61.9224 54.9483 61.8844 55.138 61.9605 55.2519Z" fill="#040921"/>
<path d="M62.4924 55.3664C63.7468 55.5182 65.0392 55.5182 66.2936 55.5941C67.51 55.67 68.7264 55.7838 69.9047 55.4802C70.9311 55.2146 70.741 53.4689 69.6387 53.5827C68.2702 53.7345 66.9398 53.7725 65.5714 53.8484C64.431 53.9243 63.2526 54.0381 62.3403 54.7212C62.0742 54.9489 62.1883 55.3284 62.4924 55.3664Z" fill="#040921"/>
<path d="M97.6914 46.5999C96.7031 47.9661 95.9808 49.2944 95.2586 50.8503C94.6884 52.1027 93.7381 53.5448 94.0802 54.9869C94.2323 55.632 95.1065 55.8597 95.5627 55.3664C96.665 54.2279 97.1592 52.1027 97.6534 50.6226C97.9955 49.56 98.8698 47.6625 98.1855 46.6379C98.0715 46.4101 97.8434 46.4481 97.6914 46.5999Z" fill="#040921"/>
<path d="M97.9958 47.2812H98.0338C97.8818 47.1673 97.6917 47.0155 97.5397 46.9017C97.6537 48.154 98.1479 49.4064 98.452 50.5828C98.7941 51.9111 99.2502 53.2014 99.8584 54.4158C100.505 55.7061 102.481 54.5676 101.835 53.2773C100.809 51.228 100.391 47.6607 98.1479 46.5601C97.5777 46.2945 97.2736 47.2053 97.8438 47.2812C97.8818 47.2812 97.9578 47.2812 97.9958 47.2812Z" fill="#040921"/>
<path d="M107.803 54.4171C106.738 53.5063 105.18 53.5443 103.849 53.4684C102.671 53.3925 101.075 53.0509 100.124 53.8858C99.6681 54.3033 99.9722 54.9864 100.466 55.1761C101.417 55.5177 102.861 55.29 103.849 55.2521C105.104 55.2141 106.51 55.252 107.689 54.7966C107.841 54.7587 107.955 54.531 107.803 54.4171Z" fill="#040921"/>
<path d="M107.385 54.5304C106.89 54.5683 106.548 54.9099 106.13 55.1755C105.598 55.555 105.104 55.8966 104.572 56.2761C103.545 57.0351 102.595 57.9459 101.987 59.0844C101.303 60.3747 103.279 61.5511 103.963 60.2229C104.534 59.1223 105.522 58.3254 106.32 57.4146C106.89 56.7694 107.955 55.6689 107.613 54.7201C107.651 54.6063 107.537 54.4924 107.385 54.5304Z" fill="#040921"/>
<path d="M105.066 66.3728C105.333 65.0066 104.876 63.6025 104.572 62.2742C104.268 60.9839 104.306 59.5798 103.432 58.5172C102.862 57.8341 101.949 58.5931 102.063 59.3141C102.406 61.667 103.242 64.1338 104.002 66.3728C104.192 66.8282 104.952 66.9421 105.066 66.3728Z" fill="#040921"/>
<path d="M104.533 66.2597C104.153 65.2731 103.203 64.6279 102.329 64.0587C101.112 63.2997 99.8199 62.6545 98.5655 62.0093C97.5391 61.516 96.6649 62.996 97.6912 63.5273C98.9076 64.1345 100.048 64.8176 101.264 65.4628C102.215 65.9561 103.279 66.6013 104.381 66.5254C104.457 66.5254 104.609 66.4116 104.533 66.2597Z" fill="#040921"/>
<path d="M91.838 66.8672C92.9024 66.5636 93.9667 65.9943 94.993 65.5769C96.1334 65.0835 97.1217 64.3625 98.2621 63.8312C99.2504 63.3758 98.3761 61.9716 97.4258 62.3891C96.2474 62.8824 95.2211 63.7553 94.1187 64.3625C93.2065 64.8558 91.9901 65.3871 91.4959 66.3738C91.3438 66.6395 91.5339 66.9431 91.838 66.8672Z" fill="#040921"/>
<path d="M91.7999 66.6762C92.4461 65.8792 92.5981 64.8166 92.9022 63.8299C93.2823 62.5776 93.6625 61.3632 94.0046 60.1108C94.3467 58.9723 92.5981 58.5169 92.256 59.6175C91.8759 60.9457 91.4958 62.274 91.2677 63.6022C91.1157 64.5889 90.9256 65.6515 91.3437 66.5623C91.4198 66.7521 91.6858 66.79 91.7999 66.6762Z" fill="#040921"/>
<path d="M87.5044 55.2519C87.7325 55.7073 88.1886 55.9729 88.5687 56.3145C88.9869 56.7319 89.405 57.1494 89.8231 57.6048C90.6594 58.5156 91.4957 59.4643 92.408 60.2992C93.5103 61.2859 95.1449 59.6161 94.0045 58.7053C92.9021 57.7945 91.8758 56.7699 90.6974 55.897C89.9372 55.3278 88.5687 54.417 87.5804 54.8724C87.4664 54.9483 87.4284 55.138 87.5044 55.2519Z" fill="#040921"/>
<path d="M88.0363 55.3664C89.2907 55.5182 90.5831 55.5182 91.8375 55.5941C93.0539 55.67 94.2703 55.7838 95.4487 55.4802C96.475 55.2146 96.285 53.4689 95.1826 53.5827C93.8142 53.7345 92.4837 53.7725 91.1153 53.8484C89.9749 53.9243 88.7966 54.0381 87.8843 54.7212C87.6182 54.9489 87.7322 55.3284 88.0363 55.3664Z" fill="#040921"/>
<path d="M123.236 46.5999C122.247 47.9661 121.525 49.2944 120.803 50.8503C120.233 52.1027 119.282 53.5448 119.624 54.9869C119.776 55.632 120.651 55.8597 121.107 55.3664C122.209 54.2279 122.703 52.1027 123.198 50.6226C123.54 49.56 124.414 47.6625 123.73 46.6379C123.616 46.4101 123.388 46.4481 123.236 46.5999Z" fill="#040921"/>
<path d="M123.54 47.2812H123.578C123.388 47.1673 123.236 47.0155 123.046 46.9017C123.16 48.154 123.654 49.4064 123.958 50.5828C124.3 51.9111 124.756 53.2014 125.364 54.4158C126.01 55.7061 127.987 54.5676 127.341 53.2773C126.315 51.228 125.896 47.6607 123.654 46.5601C123.084 46.2945 122.779 47.2053 123.35 47.2812C123.426 47.2812 123.502 47.2812 123.54 47.2812Z" fill="#040921"/>
<path d="M133.347 54.4171C132.282 53.5063 130.724 53.5443 129.393 53.4684C128.215 53.3925 126.618 53.0509 125.668 53.8858C125.212 54.3033 125.516 54.9864 126.01 55.1761C126.961 55.5177 128.405 55.29 129.393 55.2521C130.648 55.2141 132.054 55.252 133.233 54.7966C133.385 54.7587 133.499 54.531 133.347 54.4171Z" fill="#040921"/>
<path d="M132.929 54.5304C132.434 54.5683 132.092 54.9099 131.674 55.1755C131.142 55.555 130.648 55.8966 130.116 56.2761C129.089 57.0351 128.139 57.9459 127.531 59.0844C126.847 60.3747 128.823 61.5511 129.507 60.2229C130.078 59.1223 131.066 58.3254 131.864 57.4146C132.434 56.7694 133.499 55.6689 133.157 54.7201C133.195 54.6063 133.081 54.4924 132.929 54.5304Z" fill="#040921"/>
<path d="M130.61 66.3728C130.876 65.0066 130.42 63.6025 130.116 62.2742C129.812 60.9839 129.85 59.5798 128.976 58.5172C128.406 57.8341 127.493 58.5931 127.607 59.3141C127.95 61.667 128.786 64.1338 129.546 66.3728C129.736 66.8282 130.496 66.9421 130.61 66.3728Z" fill="#040921"/>
<path d="M130.077 66.2597C129.697 65.2731 128.747 64.6279 127.873 64.0587C126.656 63.2997 125.364 62.6545 124.109 62.0093C123.083 61.516 122.209 62.996 123.235 63.5273C124.452 64.1345 125.592 64.8176 126.808 65.4628C127.759 65.9561 128.823 66.6013 129.925 66.5254C130.001 66.5254 130.153 66.4116 130.077 66.2597Z" fill="#040921"/>
<path d="M117.382 66.8672C118.446 66.5636 119.511 65.9943 120.537 65.5769C121.677 65.0835 122.666 64.3625 123.806 63.8312C124.794 63.3758 123.92 61.9716 122.97 62.3891C121.791 62.8824 120.765 63.7553 119.663 64.3625C118.75 64.8558 117.534 65.3871 117.04 66.3738C116.888 66.6395 117.078 66.9431 117.382 66.8672Z" fill="#040921"/>
<path d="M117.344 66.6762C117.99 65.8792 118.142 64.8166 118.446 63.8299C118.826 62.5776 119.206 61.3632 119.548 60.1108C119.89 58.9723 118.142 58.5169 117.8 59.6175C117.42 60.9457 117.039 62.274 116.811 63.6022C116.659 64.5889 116.469 65.6515 116.887 66.5623C116.963 66.7521 117.23 66.79 117.344 66.6762Z" fill="#040921"/>
<path d="M113.048 55.2519C113.276 55.7073 113.733 55.9729 114.113 56.3145C114.531 56.7319 114.949 57.1494 115.367 57.6048C116.203 58.5156 117.04 59.4643 117.952 60.2992C119.054 61.2859 120.689 59.6161 119.548 58.7053C118.446 57.7945 117.42 56.7699 116.241 55.897C115.481 55.3278 114.113 54.417 113.124 54.8724C113.01 54.9483 112.972 55.138 113.048 55.2519Z" fill="#040921"/>
<path d="M113.58 55.3664C114.835 55.5182 116.127 55.5182 117.381 55.5941C118.598 55.67 119.814 55.7838 120.993 55.4802C122.019 55.2146 121.829 53.4689 120.727 53.5827C119.358 53.7345 118.028 53.7725 116.659 53.8484C115.519 53.9243 114.34 54.0381 113.428 54.7212C113.162 54.9489 113.276 55.3284 113.58 55.3664Z" fill="#040921"/>
<path d="M148.781 46.5999C147.792 47.9661 147.07 49.2944 146.348 50.8503C145.778 52.1027 144.827 53.5448 145.169 54.9869C145.321 55.632 146.196 55.8597 146.652 55.3664C147.754 54.2279 148.248 52.1027 148.742 50.6226C149.085 49.56 149.959 47.6625 149.275 46.6379C149.161 46.4101 148.933 46.4481 148.781 46.5999Z" fill="#040921"/>
<path d="M149.085 47.2812H149.123C148.971 47.1673 148.781 47.0155 148.629 46.9017C148.743 48.154 149.237 49.4064 149.541 50.5828C149.883 51.9111 150.339 53.2014 150.947 54.4158C151.594 55.7061 153.57 54.5676 152.924 53.2773C151.898 51.228 151.479 47.6607 149.237 46.5601C148.667 46.2945 148.362 47.2053 148.933 47.2812C148.971 47.2812 149.047 47.2812 149.085 47.2812Z" fill="#040921"/>
<path d="M158.892 54.4171C157.827 53.5063 156.269 53.5443 154.939 53.4684C153.76 53.3925 152.164 53.0509 151.213 53.8858C150.757 54.3033 151.061 54.9864 151.555 55.1761C152.506 55.5177 153.95 55.29 154.939 55.2521C156.193 55.2141 157.599 55.252 158.778 54.7966C158.93 54.7587 159.044 54.531 158.892 54.4171Z" fill="#040921"/>
<path d="M158.474 54.5304C157.98 54.5683 157.637 54.9099 157.219 55.1755C156.687 55.555 156.193 55.8966 155.661 56.2761C154.634 57.0351 153.684 57.9459 153.076 59.0844C152.392 60.3747 154.368 61.5511 155.053 60.2229C155.623 59.1223 156.611 58.3254 157.409 57.4146C157.98 56.7694 159.044 55.6689 158.702 54.7201C158.74 54.6063 158.626 54.4924 158.474 54.5304Z" fill="#040921"/>
<path d="M156.155 66.3728C156.421 65.0066 155.965 63.6025 155.661 62.2742C155.357 60.9839 155.395 59.5798 154.521 58.5172C153.951 57.8341 153.038 58.5931 153.152 59.3141C153.494 61.667 154.331 64.1338 155.091 66.3728C155.281 66.8282 156.041 66.9421 156.155 66.3728Z" fill="#040921"/>
<path d="M155.622 66.2597C155.242 65.2731 154.292 64.6279 153.418 64.0587C152.201 63.2997 150.909 62.6545 149.654 62.0093C148.628 61.516 147.754 62.996 148.78 63.5273C149.996 64.1345 151.137 64.8176 152.353 65.4628C153.304 65.9561 154.368 66.6013 155.47 66.5254C155.546 66.5254 155.698 66.4116 155.622 66.2597Z" fill="#040921"/>
<path d="M142.927 66.8672C143.991 66.5636 145.056 65.9943 146.082 65.5769C147.222 65.0835 148.211 64.3625 149.351 63.8312C150.339 63.3758 149.465 61.9716 148.515 62.3891C147.336 62.8824 146.31 63.7553 145.208 64.3625C144.295 64.8558 143.079 65.3871 142.585 66.3738C142.433 66.6395 142.623 66.9431 142.927 66.8672Z" fill="#040921"/>
<path d="M142.889 66.6762C143.535 65.8792 143.687 64.8166 143.991 63.8299C144.371 62.5776 144.751 61.3632 145.132 60.1108C145.474 58.9723 143.725 58.5169 143.383 59.6175C143.003 60.9457 142.623 62.274 142.395 63.6022C142.243 64.5889 142.053 65.6515 142.471 66.5623C142.509 66.7521 142.775 66.79 142.889 66.6762Z" fill="#040921"/>
<path d="M138.593 55.2519C138.821 55.7073 139.277 55.9729 139.658 56.3145C140.076 56.7319 140.494 57.1494 140.912 57.6048C141.748 58.5156 142.585 59.4643 143.497 60.2992C144.599 61.2859 146.234 59.6161 145.093 58.7053C143.991 57.7945 142.965 56.7699 141.786 55.897C141.026 55.3278 139.658 54.417 138.669 54.8724C138.555 54.9483 138.517 55.138 138.593 55.2519Z" fill="#040921"/>
<path d="M139.125 55.3664C140.38 55.5182 141.672 55.5182 142.927 55.5941C144.143 55.67 145.359 55.7838 146.538 55.4802C147.564 55.2146 147.374 53.4689 146.272 53.5827C144.903 53.7345 143.573 53.7725 142.204 53.8484C141.064 53.9243 139.886 54.0381 138.973 54.7212C138.707 54.9489 138.821 55.3284 139.125 55.3664Z" fill="#040921"/>
</g>
<defs>
<clipPath id="clip0_1_867">
<rect width="179" height="117" fill="white"/>
</clipPath>
</defs>
</svg>
