<svg width="179" height="112" viewBox="0 0 179 112" fill="none" xmlns="http://www.w3.org/2000/svg">
<path d="M5.37735 77.7142C3.77531 77.0285 3.20319 74.8571 2.74545 73.3713C2.05887 70.7428 1.71556 67.8856 1.48671 65.2571C0.914551 59.4285 0.800125 53.5999 0.685699 47.7713C0.571259 36.2285 -1.1452 24.3428 1.60115 13.0285C2.17329 10.6285 3.08875 8.22849 4.69078 6.28563C6.29282 4.34277 8.92473 3.54277 11.3278 2.97134C17.9648 1.37134 25.0595 1.82849 31.9254 1.94277C40.3933 2.17134 48.8611 1.48563 57.4435 1.14277C68.8866 0.685631 80.3297 0.457059 91.7728 0.114202C102.987 -0.228655 114.201 0.342773 125.415 1.02849C134.684 1.7142 143.839 2.62849 153.108 2.85706C159.287 2.97134 165.924 2.97134 171.874 5.14277C174.392 6.05706 176.681 7.54277 178.168 9.7142C179.999 12.4571 179.885 16.2285 179.999 19.5428C180.228 27.1999 179.541 34.8571 179.656 42.5142C179.656 46.9713 179.541 51.5428 179.313 55.9999C179.084 61.2571 178.855 66.5142 178.054 71.7713C177.825 73.5999 177.596 75.4285 177.024 77.1428C176.909 77.3713 176.795 77.7142 176.681 78.0571C177.024 78.2856 177.138 78.8571 176.681 79.0856C172.676 80.7999 168.098 81.2571 163.864 81.3713C159.058 81.5999 154.252 81.4856 149.446 81.7142C138.346 82.2856 127.361 84.1142 116.261 84.5713C104.932 85.0285 93.6037 84.5713 82.3894 84.7999C77.24 84.9142 71.9762 85.0285 66.8268 85.3713C62.9362 85.5999 59.0455 85.9428 55.1548 85.3713C54.2394 85.2571 53.324 84.9142 52.4085 84.4571C52.1796 84.3428 51.9508 84.1142 51.8363 83.8856C51.7219 84.3428 51.7219 84.7999 51.7219 85.2571C51.7219 86.5142 52.0652 87.7713 52.5229 89.0285C53.5528 92.2285 55.1548 95.1999 56.8713 98.1713C58.5878 101.028 60.4187 103.657 62.4784 106.286C63.6227 107.657 65.2248 110.171 67.0557 110.628C67.6278 110.743 67.399 111.543 66.8268 111.428C64.7671 111.086 62.9362 109.143 61.563 107.657C59.0455 105.028 56.7569 102.057 54.8116 98.9713C52.8662 95.8856 51.1498 92.6856 50.0054 89.1428C49.3189 87.0856 48.4034 83.3142 50.5776 81.8285C51.1498 81.3713 52.0652 81.9428 52.1796 82.5142C52.5229 82.0571 52.9807 81.8285 53.5528 82.0571C56.9857 83.3142 60.9908 82.9713 64.6526 82.7428C69.4587 82.5142 74.3793 82.2856 79.1854 82.1713C90.514 81.9428 101.843 82.0571 113.171 82.0571C124.271 82.0571 135.257 80.3428 146.356 79.6571C155.969 79.0856 165.924 80.4571 175.422 78.1713C175.651 78.1713 175.765 78.0571 175.994 78.0571C176.452 77.4856 176.566 74.9714 176.566 74.6285C176.566 71.9999 176.566 69.4856 176.795 66.9713C177.138 61.0285 177.253 54.9713 177.367 48.9142C177.367 43.0856 177.138 37.3713 177.367 31.6571C177.482 26.6285 177.71 21.7142 177.482 16.6856C177.253 13.5999 176.681 10.9713 174.049 9.14277C169.128 5.59992 161.919 5.7142 156.083 5.48563C147.386 5.25706 139.033 4.57135 130.565 3.99992C119.351 3.19992 108.251 2.5142 97.0366 2.5142C85.5935 2.62849 74.1504 3.08563 62.8217 3.42849C53.5528 3.77135 44.1695 4.68563 34.7861 4.57135C27.9203 4.45706 20.94 3.99992 14.1886 5.02849C11.7855 5.37135 8.81029 5.94277 6.86496 7.65706C5.1485 9.25706 4.57634 11.9999 4.00418 14.1713C2.63101 20.6856 2.85988 27.6571 3.08873 34.2856C3.3176 41.1428 3.43202 47.8856 3.66089 54.7428C3.77531 58.9714 4.00418 63.3142 4.57634 67.5428C4.80521 69.2571 5.1485 70.9713 5.60623 72.6856C5.72066 73.2571 5.94951 73.8285 6.2928 74.3999C6.52167 74.8571 6.52168 74.8571 6.75053 74.9713C7.55156 75.3142 7.66599 75.9999 7.55156 76.5713C8.00928 76.6856 8.467 77.0285 8.58142 77.7142C8.69586 78.3999 10.5267 79.1999 11.4422 79.5428C13.6164 80.3428 16.0194 80.7999 18.3081 81.2571C20.7111 81.7142 22.9997 82.1713 25.4028 82.7428C27.1192 83.1999 29.0646 83.5428 30.4378 84.6856C32.8408 86.7428 34.3284 90.0571 35.816 92.6856C37.8758 96.3428 40.2788 99.1999 43.7117 101.6C46.9158 104 50.4632 105.943 54.125 107.543C58.0156 109.257 62.0207 110.057 66.1402 110.857C66.4835 110.971 66.4835 111.543 66.1402 111.657C62.2496 112.228 58.0156 111.086 54.4683 109.828C50.4632 108.343 46.5725 106.4 43.0252 104C39.5922 101.714 36.8459 99.1999 34.6717 95.7713C33.6418 94.1713 32.8408 92.5713 31.9254 90.9713C31.1243 89.5999 29.98 87.5428 28.8357 86.7428C27.3481 85.5999 25.0595 85.3713 23.343 84.9142C20.7111 84.3428 17.9648 83.7713 15.3329 83.1999C12.9298 82.6285 5.72066 81.3713 6.40724 77.5999C5.94952 77.9428 5.72064 77.8285 5.37735 77.7142Z" fill="#040921"/>
</svg>
