<svg width="24" height="24" viewBox="0 0 24 24" fill="none" xmlns="http://www.w3.org/2000/svg">
<rect width="24" height="24" rx="6" fill="#DE1313"/>
<path d="M11.9997 8.66634C11.8229 8.66634 11.6533 8.73658 11.5283 8.8616C11.4032 8.98663 11.333 9.1562 11.333 9.33301V11.9997C11.333 12.1765 11.4032 12.3461 11.5283 12.4711C11.6533 12.5961 11.8229 12.6663 11.9997 12.6663C12.1765 12.6663 12.3461 12.5961 12.4711 12.4711C12.5961 12.3461 12.6663 12.1765 12.6663 11.9997V9.33301C12.6663 9.1562 12.5961 8.98663 12.4711 8.8616C12.3461 8.73658 12.1765 8.66634 11.9997 8.66634ZM12.613 14.413C12.5984 14.3705 12.5782 14.3302 12.553 14.293L12.473 14.193C12.3793 14.1005 12.2602 14.0378 12.1309 14.0129C12.0016 13.988 11.8678 14.002 11.7463 14.053C11.6656 14.0868 11.5911 14.1341 11.5263 14.193C11.4646 14.2553 11.4157 14.3292 11.3825 14.4104C11.3493 14.4916 11.3325 14.5786 11.333 14.6663C11.3341 14.7535 11.3522 14.8395 11.3863 14.9197C11.4163 15.0024 11.4641 15.0775 11.5263 15.1398C11.5885 15.202 11.6636 15.2497 11.7463 15.2797C11.8261 15.3149 11.9124 15.3332 11.9997 15.3332C12.0869 15.3332 12.1732 15.3149 12.253 15.2797C12.3357 15.2497 12.4109 15.202 12.4731 15.1398C12.5353 15.0775 12.5831 15.0024 12.613 14.9197C12.6472 14.8395 12.6653 14.7535 12.6663 14.6663C12.6696 14.622 12.6696 14.5774 12.6663 14.533C12.6549 14.4905 12.6369 14.45 12.613 14.413ZM11.9997 5.33301C10.6811 5.33301 9.3922 5.724 8.29588 6.45654C7.19955 7.18909 6.34506 8.23028 5.84048 9.44845C5.3359 10.6666 5.20387 12.0071 5.46111 13.3003C5.71834 14.5935 6.35328 15.7814 7.28563 16.7137C8.21798 17.6461 9.40587 18.281 10.6991 18.5382C11.9923 18.7955 13.3327 18.6635 14.5509 18.1589C15.7691 17.6543 16.8103 16.7998 17.5428 15.7035C18.2753 14.6071 18.6663 13.3182 18.6663 11.9997C18.6663 11.1242 18.4939 10.2573 18.1589 9.44845C17.8238 8.63961 17.3328 7.90469 16.7137 7.28563C16.0947 6.66657 15.3597 6.17551 14.5509 5.84048C13.7421 5.50545 12.8752 5.33301 11.9997 5.33301ZM11.9997 17.333C10.9448 17.333 9.9137 17.0202 9.03664 16.4342C8.15957 15.8481 7.47599 15.0152 7.07232 14.0407C6.66865 13.0661 6.56303 11.9938 6.76882 10.9592C6.97461 9.92463 7.48256 8.97432 8.22844 8.22844C8.97432 7.48256 9.92463 6.97461 10.9592 6.76882C11.9938 6.56303 13.0661 6.66865 14.0407 7.07232C15.0152 7.47598 15.8481 8.15957 16.4342 9.03663C17.0202 9.9137 17.333 10.9448 17.333 11.9997C17.333 13.4142 16.7711 14.7707 15.7709 15.7709C14.7707 16.7711 13.4142 17.333 11.9997 17.333Z" fill="white"/>
</svg>
