<svg width="12" height="15" viewBox="0 0 12 15" fill="none" xmlns="http://www.w3.org/2000/svg">
<path d="M3.64519 5.01442L3.64369 5.01566L3.64226 5.01707L3.64519 5.01442ZM10.2812 4.88793C10.2349 4.84246 10.1834 4.80268 10.1279 4.76939C10.0494 4.72237 9.96218 4.69224 9.87174 4.68086C9.78129 4.66948 9.68951 4.67709 9.60207 4.70322C9.51463 4.72935 9.43339 4.77344 9.36337 4.83278C9.29335 4.89212 9.23604 4.96543 9.19498 5.04819C8.96533 5.50842 8.64861 5.918 8.26298 6.25343C8.32195 5.91546 8.35168 5.57288 8.35185 5.22963C8.35309 4.18541 8.08226 3.1595 7.56695 2.25637C7.05164 1.35323 6.31025 0.605115 5.41826 0.0881994C5.32 0.0315414 5.2092 0.00120443 5.09625 3.51322e-05C4.98331 -0.00113417 4.87192 0.0269025 4.77255 0.0815144C4.67317 0.136126 4.58907 0.215523 4.52812 0.312254C4.46718 0.408986 4.43139 0.51988 4.42412 0.634533C4.38682 1.2775 4.22157 1.90607 3.93838 2.48216C3.6552 3.05825 3.25999 3.56986 2.77668 3.986L2.62303 4.11314C2.11764 4.45904 1.6703 4.88545 1.29817 5.37599C0.719716 6.11724 0.319003 6.98538 0.127811 7.91157C-0.0633804 8.83776 -0.0397928 9.79652 0.196704 10.7118C0.4332 11.6271 0.8761 12.4738 1.49028 13.1847C2.10446 13.8956 2.87303 14.4511 3.73504 14.8073C3.83625 14.8494 3.94608 14.8654 4.05485 14.8541C4.16362 14.8428 4.26798 14.8045 4.35872 14.7424C4.44947 14.6804 4.52381 14.5966 4.57519 14.4984C4.62657 14.4002 4.65341 14.2907 4.65334 14.1795C4.65286 14.1076 4.64167 14.0361 4.62014 13.9676C4.47099 13.3973 4.42804 12.8037 4.49351 12.2174C5.12433 13.4276 6.13693 14.3869 7.3685 14.9411C7.51883 15.0095 7.68877 15.0187 7.84539 14.9669C8.81843 14.6474 9.695 14.0802 10.3918 13.3191C11.0886 12.558 11.5826 11.6283 11.8266 10.6184C12.0707 9.60842 12.0569 8.55176 11.7864 7.54879C11.5159 6.54582 10.9978 5.62986 10.2812 4.88793ZM7.67806 13.5888C7.09694 13.2892 6.58431 12.8686 6.1735 12.3543C5.76269 11.84 5.4629 11.2435 5.29363 10.6035C5.24193 10.3881 5.20194 10.1699 5.17383 9.94993C5.15479 9.80986 5.09319 9.67936 4.99765 9.57665C4.90211 9.47395 4.7774 9.40418 4.64096 9.37711C4.59893 9.36868 4.55619 9.36446 4.51334 9.36453C4.39617 9.36449 4.28106 9.39587 4.17962 9.45552C4.07817 9.51516 3.99399 9.60096 3.93554 9.70426C3.38239 10.6747 3.10421 11.782 3.13183 12.9034C2.64533 12.5187 2.23873 12.0395 1.93562 11.4938C1.63251 10.948 1.4389 10.3465 1.36602 9.72404C1.29314 9.1016 1.34243 8.47064 1.51105 7.86773C1.67967 7.26482 1.96425 6.70194 2.34831 6.21173C2.63992 5.82645 2.9917 5.49245 3.38964 5.22304C3.40687 5.21173 3.42339 5.19935 3.43912 5.18596C3.43912 5.18596 3.63691 5.01949 3.64367 5.01568C4.59347 4.19853 5.26901 3.10037 5.57616 1.87421C6.30254 2.55722 6.78688 3.46507 6.95399 4.4568C7.1211 5.44852 6.96162 6.46862 6.50031 7.35869C6.43936 7.47746 6.41436 7.61193 6.42846 7.74514C6.44256 7.87835 6.49512 8.00432 6.57953 8.10718C6.66393 8.21003 6.77639 8.28516 6.90272 8.32308C7.02905 8.361 7.16359 8.36002 7.28937 8.32025C8.31056 7.99465 9.20917 7.35863 9.86424 6.49783C10.2579 7.08934 10.5153 7.7636 10.6172 8.47036C10.7191 9.17712 10.6629 9.89816 10.4528 10.5797C10.2427 11.2613 9.884 11.8859 9.40357 12.4069C8.92314 12.9279 8.33331 13.3319 7.67804 13.5888L7.67806 13.5888Z" fill="url(#paint0_linear_1_31361)"/>
<defs>
<linearGradient id="paint0_linear_1_31361" x1="8.52" y1="-4.18269" x2="-5.82564" y2="0.898575" gradientUnits="userSpaceOnUse">
<stop offset="0.0001" stop-color="#9D50FF"/>
<stop offset="1" stop-color="#583CF0"/>
</linearGradient>
</defs>
</svg>
