<svg width="32" height="32" viewBox="0 0 32 32" fill="none" xmlns="http://www.w3.org/2000/svg">
<rect width="32" height="32" rx="8" fill="white"/>
<path d="M16 18C17.1046 18 18 17.1046 18 16C18 14.8954 17.1046 14 16 14C14.8954 14 14 14.8954 14 16C14 17.1046 14.8954 18 16 18Z" stroke="#040921" stroke-width="1.33333" stroke-linecap="round" stroke-linejoin="round"/>
<path d="M20.9327 18.0003C20.8439 18.2014 20.8175 18.4245 20.8567 18.6407C20.8959 18.857 20.999 19.0565 21.1527 19.2137L21.1927 19.2537C21.3167 19.3775 21.415 19.5245 21.4821 19.6864C21.5492 19.8483 21.5837 20.0218 21.5837 20.197C21.5837 20.3722 21.5492 20.5457 21.4821 20.7076C21.415 20.8695 21.3167 21.0165 21.1927 21.1403C21.0689 21.2643 20.9218 21.3626 20.7599 21.4297C20.5981 21.4968 20.4246 21.5314 20.2494 21.5314C20.0741 21.5314 19.9006 21.4968 19.7388 21.4297C19.5769 21.3626 19.4299 21.2643 19.306 21.1403L19.266 21.1003C19.1089 20.9466 18.9093 20.8435 18.6931 20.8043C18.4768 20.7651 18.2538 20.7916 18.0527 20.8803C17.8555 20.9648 17.6873 21.1052 17.5689 21.284C17.4504 21.4629 17.3869 21.6725 17.386 21.887V22.0003C17.386 22.354 17.2455 22.6931 16.9955 22.9431C16.7454 23.1932 16.4063 23.3337 16.0527 23.3337C15.6991 23.3337 15.3599 23.1932 15.1099 22.9431C14.8598 22.6931 14.7194 22.354 14.7194 22.0003V21.9403C14.7142 21.7197 14.6428 21.5057 14.5144 21.3261C14.386 21.1466 14.2065 21.0099 13.9994 20.9337C13.7983 20.8449 13.5752 20.8185 13.359 20.8577C13.1427 20.8969 12.9431 21 12.786 21.1537L12.746 21.1937C12.6222 21.3176 12.4751 21.416 12.3133 21.4831C12.1514 21.5502 11.9779 21.5847 11.8027 21.5847C11.6275 21.5847 11.454 21.5502 11.2921 21.4831C11.1302 21.416 10.9832 21.3176 10.8594 21.1937C10.7354 21.0698 10.637 20.9228 10.5699 20.7609C10.5028 20.5991 10.4683 20.4256 10.4683 20.2503C10.4683 20.0751 10.5028 19.9016 10.5699 19.7397C10.637 19.5779 10.7354 19.4308 10.8594 19.307L10.8994 19.267C11.053 19.1099 11.1561 18.9103 11.1954 18.6941C11.2346 18.4778 11.2081 18.2547 11.1194 18.0537C11.0348 17.8565 10.8945 17.6883 10.7157 17.5699C10.5368 17.4514 10.3272 17.3879 10.1127 17.387H9.99935C9.64573 17.387 9.30659 17.2465 9.05654 16.9965C8.80649 16.7464 8.66602 16.4073 8.66602 16.0537C8.66602 15.7 8.80649 15.3609 9.05654 15.1109C9.30659 14.8608 9.64573 14.7203 9.99935 14.7203H10.0593C10.28 14.7152 10.494 14.6437 10.6735 14.5153C10.8531 14.3869 10.9898 14.2075 11.066 14.0003C11.1548 13.7993 11.1812 13.5762 11.142 13.3599C11.1028 13.1437 10.9997 12.9441 10.846 12.787L10.806 12.747C10.682 12.6232 10.5837 12.4761 10.5166 12.3142C10.4495 12.1524 10.415 11.9789 10.415 11.8037C10.415 11.6284 10.4495 11.4549 10.5166 11.2931C10.5837 11.1312 10.682 10.9842 10.806 10.8603C10.9298 10.7364 11.0769 10.638 11.2388 10.5709C11.4006 10.5038 11.5741 10.4693 11.7494 10.4693C11.9246 10.4693 12.0981 10.5038 12.2599 10.5709C12.4218 10.638 12.5689 10.7364 12.6927 10.8603L12.7327 10.9003C12.8898 11.054 13.0894 11.1571 13.3056 11.1963C13.5219 11.2355 13.7449 11.2091 13.946 11.1203H13.9994C14.1965 11.0358 14.3647 10.8955 14.4831 10.7166C14.6016 10.5378 14.6652 10.3282 14.666 10.1137V10.0003C14.666 9.6467 14.8065 9.30757 15.0565 9.05752C15.3066 8.80747 15.6457 8.66699 15.9994 8.66699C16.353 8.66699 16.6921 8.80747 16.9422 9.05752C17.1922 9.30757 17.3327 9.6467 17.3327 10.0003V10.0603C17.3335 10.2749 17.3971 10.4844 17.5156 10.6633C17.634 10.8422 17.8022 10.9825 17.9994 11.067C18.2004 11.1557 18.4235 11.1822 18.6397 11.143C18.856 11.1038 19.0556 11.0007 19.2127 10.847L19.2527 10.807C19.3765 10.683 19.5236 10.5847 19.6854 10.5176C19.8473 10.4505 20.0208 10.4159 20.196 10.4159C20.3712 10.4159 20.5447 10.4505 20.7066 10.5176C20.8685 10.5847 21.0155 10.683 21.1394 10.807C21.2633 10.9308 21.3617 11.0779 21.4288 11.2397C21.4959 11.4016 21.5304 11.5751 21.5304 11.7503C21.5304 11.9255 21.4959 12.0991 21.4288 12.2609C21.3617 12.4228 21.2633 12.5698 21.1394 12.6937L21.0994 12.7337C20.9457 12.8908 20.8426 13.0903 20.8034 13.3066C20.7641 13.5229 20.7906 13.7459 20.8794 13.947V14.0003C20.9639 14.1975 21.1042 14.3657 21.283 14.4841C21.4619 14.6026 21.6715 14.6661 21.886 14.667H21.9994C22.353 14.667 22.6921 14.8075 22.9422 15.0575C23.1922 15.3076 23.3327 15.6467 23.3327 16.0003C23.3327 16.354 23.1922 16.6931 22.9422 16.9431C22.6921 17.1932 22.353 17.3337 21.9994 17.3337H21.9394C21.7248 17.3345 21.5152 17.3981 21.3364 17.5165C21.1575 17.635 21.0172 17.8032 20.9327 18.0003V18.0003Z" stroke="#040921" stroke-width="1.33333" stroke-linecap="round" stroke-linejoin="round"/>
</svg>
