<svg width="86" height="86" viewBox="0 0 86 86" fill="none" xmlns="http://www.w3.org/2000/svg">
<rect width="86" height="86" rx="43" fill="#9D50FF"/>
<path d="M58.75 56.0007L58.75 65.3832C58.75 67.1607 56.77 68.2407 55.285 67.2732L43 59.3757L30.715 67.2732C29.23 68.2407 27.25 67.1607 27.25 65.3832L27.25 56.0007C27.25 54.5382 27.9475 53.1657 29.14 52.3332L41.695 43.4232C42.4825 42.8607 43.5175 42.8607 44.305 43.4232L56.86 52.3332C58.03 53.1657 58.75 54.5382 58.75 56.0007ZM54.25 61.6257L54.25 56.0007L43 48.1257L31.75 56.0007L31.75 61.6257L43 53.7507L54.25 61.6257Z" fill="white"/>
<path d="M55.536 29.3942L55.5495 29.4038C56.1217 29.8032 56.4775 30.4774 56.4775 31.2263L56.4775 44.8509L44.3091 36.1464C43.5262 35.5863 42.4738 35.5863 41.6909 36.1464L29.5223 44.8511C29.5221 44.8513 29.5218 44.8514 29.5216 44.8516C29.5206 44.8523 29.5198 44.8529 29.519 44.8534C29.5139 44.8521 29.5075 44.8499 29.5008 44.8465C29.5005 44.8464 29.5003 44.8463 29.5 44.8461L29.5 31.2264C29.5 30.4717 29.8588 29.8131 30.4042 29.4426C30.417 29.4339 30.4296 29.4252 30.4422 29.4162L42.9972 20.5063L43 20.5042L43.0035 20.5067L55.536 29.3942ZM43.0097 20.498C43.0097 20.498 43.0097 20.498 43.0096 20.498C43.0097 20.498 43.0097 20.498 43.0097 20.498Z" stroke="white" stroke-width="4.5" stroke-linejoin="round"/>
</svg>
