<svg width="16" height="23" viewBox="0 0 16 23" fill="none" xmlns="http://www.w3.org/2000/svg">
<path d="M13.0899 2.81995C12.1702 2.06353 11.0933 1.52198 9.9376 1.23479C8.78194 0.947605 7.57674 0.922035 6.40994 1.15995C4.85632 1.47377 3.43093 2.24202 2.31462 3.36723C1.19832 4.49243 0.441414 5.92388 0.139942 7.47995C-0.0802115 8.64667 -0.0402063 9.8476 0.257104 10.9971C0.554414 12.1466 1.1017 13.2163 1.85994 14.1299C2.56363 14.924 2.96698 15.9395 2.99994 16.9999V19.9999C2.99994 20.7956 3.31601 21.5587 3.87862 22.1213C4.44123 22.6839 5.20429 22.9999 5.99994 22.9999H9.99994C10.7956 22.9999 11.5587 22.6839 12.1213 22.1213C12.6839 21.5587 12.9999 20.7956 12.9999 19.9999V17.1899C13.0335 16.0191 13.4637 14.8944 14.2199 13.9999C15.5451 12.3607 16.1697 10.2648 15.9581 8.16757C15.7465 6.07038 14.7158 4.14143 13.0899 2.79995V2.81995ZM10.9999 19.9999C10.9999 20.2652 10.8946 20.5195 10.707 20.7071C10.5195 20.8946 10.2652 20.9999 9.99994 20.9999H5.99994C5.73473 20.9999 5.48037 20.8946 5.29284 20.7071C5.1053 20.5195 4.99994 20.2652 4.99994 19.9999V18.9999H10.9999V19.9999ZM12.6699 12.7599C11.6644 13.9525 11.0778 15.442 10.9999 16.9999H8.99994V13.9999C8.99994 13.7347 8.89458 13.4804 8.70705 13.2928C8.51951 13.1053 8.26516 12.9999 7.99994 12.9999C7.73473 12.9999 7.48037 13.1053 7.29284 13.2928C7.1053 13.4804 6.99994 13.7347 6.99994 13.9999V16.9999H4.99994C4.97356 15.468 4.40689 13.9947 3.39994 12.8399C2.73558 12.0439 2.28883 11.0894 2.10325 10.0693C1.91767 9.04922 1.99959 7.99846 2.34103 7.01948C2.68247 6.04049 3.27176 5.16669 4.05146 4.48327C4.83116 3.79985 5.77465 3.33015 6.78994 3.11995C7.66249 2.94029 8.5641 2.95719 9.42931 3.16942C10.2945 3.38164 11.1016 3.78387 11.792 4.3469C12.4824 4.90993 13.0387 5.61962 13.4206 6.42446C13.8025 7.22931 14.0004 8.10909 13.9999 8.99995C14.0073 10.3698 13.537 11.6994 12.6699 12.7599Z" fill="#9D50FF"/>
</svg>
