<svg width="14" height="15" viewBox="0 0 14 15" fill="none" xmlns="http://www.w3.org/2000/svg">
<path d="M10.9999 6.71203C10.8231 6.71203 10.6535 6.78227 10.5285 6.90729C10.4035 7.03232 10.3333 7.20189 10.3333 7.3787V12.1654C10.3333 12.3422 10.263 12.5117 10.138 12.6368C10.013 12.7618 9.8434 12.832 9.66659 12.832H2.33325C2.15644 12.832 1.98687 12.7618 1.86185 12.6368C1.73682 12.5117 1.66659 12.3422 1.66659 12.1654V4.83203C1.66659 4.65522 1.73682 4.48565 1.86185 4.36063C1.98687 4.2356 2.15644 4.16536 2.33325 4.16536H7.11992C7.29673 4.16536 7.4663 4.09513 7.59132 3.9701C7.71635 3.84508 7.78659 3.67551 7.78659 3.4987C7.78659 3.32189 7.71635 3.15232 7.59132 3.02729C7.4663 2.90227 7.29673 2.83203 7.11992 2.83203H2.33325C1.80282 2.83203 1.29411 3.04275 0.919038 3.41782C0.543966 3.79289 0.333252 4.3016 0.333252 4.83203V12.1654C0.333252 12.6958 0.543966 13.2045 0.919038 13.5796C1.29411 13.9547 1.80282 14.1654 2.33325 14.1654H9.66659C10.197 14.1654 10.7057 13.9547 11.0808 13.5796C11.4559 13.2045 11.6666 12.6958 11.6666 12.1654V7.3787C11.6666 7.20189 11.5963 7.03232 11.4713 6.90729C11.3463 6.78227 11.1767 6.71203 10.9999 6.71203ZM13.6133 1.24536C13.5456 1.08246 13.4162 0.953014 13.2533 0.885365C13.1731 0.851204 13.087 0.833085 12.9999 0.832031H8.99992C8.82311 0.832031 8.65354 0.902269 8.52851 1.02729C8.40349 1.15232 8.33325 1.32189 8.33325 1.4987C8.33325 1.67551 8.40349 1.84508 8.52851 1.9701C8.65354 2.09513 8.82311 2.16536 8.99992 2.16536H11.3933L4.52659 9.02536C4.4641 9.08734 4.4145 9.16107 4.38066 9.24231C4.34681 9.32355 4.32939 9.41069 4.32939 9.4987C4.32939 9.58671 4.34681 9.67384 4.38066 9.75508C4.4145 9.83632 4.4641 9.91006 4.52659 9.97203C4.58856 10.0345 4.66229 10.0841 4.74353 10.118C4.82477 10.1518 4.91191 10.1692 4.99992 10.1692C5.08793 10.1692 5.17506 10.1518 5.2563 10.118C5.33754 10.0841 5.41128 10.0345 5.47325 9.97203L12.3333 3.10536V5.4987C12.3333 5.67551 12.4035 5.84508 12.5285 5.9701C12.6535 6.09513 12.8231 6.16536 12.9999 6.16536C13.1767 6.16536 13.3463 6.09513 13.4713 5.9701C13.5963 5.84508 13.6666 5.67551 13.6666 5.4987V1.4987C13.6655 1.41158 13.6474 1.32551 13.6133 1.24536Z" fill="#040921"/>
</svg>
