<svg width="14" height="15" viewBox="0 0 14 15" fill="none" xmlns="http://www.w3.org/2000/svg">
<path d="M13 7.50003C12.8232 7.50003 12.6536 7.57027 12.5286 7.69529C12.4036 7.82032 12.3333 7.98989 12.3333 8.1667V12.1667C12.3333 12.3435 12.2631 12.5131 12.1381 12.6381C12.013 12.7631 11.8435 12.8334 11.6666 12.8334H2.33331C2.1565 12.8334 1.98693 12.7631 1.86191 12.6381C1.73688 12.5131 1.66665 12.3435 1.66665 12.1667V2.83336C1.66665 2.65655 1.73688 2.48698 1.86191 2.36196C1.98693 2.23694 2.1565 2.1667 2.33331 2.1667H6.33331C6.51012 2.1667 6.67969 2.09646 6.80472 1.97144C6.92974 1.84641 6.99998 1.67684 6.99998 1.50003C6.99998 1.32322 6.92974 1.15365 6.80472 1.02863C6.67969 0.903602 6.51012 0.833364 6.33331 0.833364H2.33331C1.80288 0.833364 1.29417 1.04408 0.9191 1.41915C0.544027 1.79422 0.333313 2.30293 0.333313 2.83336V12.1667C0.333313 12.6971 0.544027 13.2058 0.9191 13.5809C1.29417 13.956 1.80288 14.1667 2.33331 14.1667H11.6666C12.1971 14.1667 12.7058 13.956 13.0809 13.5809C13.4559 13.2058 13.6666 12.6971 13.6666 12.1667V8.1667C13.6666 7.98989 13.5964 7.82032 13.4714 7.69529C13.3464 7.57027 13.1768 7.50003 13 7.50003ZM2.99998 8.0067V10.8334C2.99998 11.0102 3.07022 11.1797 3.19524 11.3048C3.32027 11.4298 3.48984 11.5 3.66665 11.5H6.49331C6.58105 11.5005 6.66803 11.4837 6.74925 11.4505C6.83048 11.4174 6.90435 11.3685 6.96665 11.3067L11.58 6.6867L13.4733 4.83336C13.5358 4.77139 13.5854 4.69765 13.6192 4.61642C13.6531 4.53518 13.6705 4.44804 13.6705 4.36003C13.6705 4.27202 13.6531 4.18489 13.6192 4.10365C13.5854 4.02241 13.5358 3.94867 13.4733 3.8867L10.6466 1.0267C10.5847 0.964212 10.5109 0.914615 10.4297 0.88077C10.3485 0.846924 10.2613 0.829498 10.1733 0.829498C10.0853 0.829498 9.99817 0.846924 9.91693 0.88077C9.83569 0.914615 9.76195 0.964212 9.69998 1.0267L7.81998 2.91336L3.19331 7.53336C3.13153 7.59566 3.08264 7.66954 3.04947 7.75076C3.01629 7.83198 2.99947 7.91896 2.99998 8.0067ZM10.1733 2.44003L12.06 4.3267L11.1133 5.27336L9.22665 3.3867L10.1733 2.44003ZM4.33331 8.28003L8.28665 4.3267L10.1733 6.21336L6.21998 10.1667H4.33331V8.28003Z" fill="#040921"/>
</svg>
