<svg width="14" height="14" viewBox="0 0 14 14" fill="none" xmlns="http://www.w3.org/2000/svg">
<path d="M7.00261 0.332031C5.68406 0.332031 4.39513 0.723024 3.29881 1.45557C2.20248 2.18811 1.34799 3.2293 0.84341 4.44747C0.338826 5.66565 0.206804 7.00609 0.464039 8.2993C0.721273 9.59251 1.35621 10.7804 2.28856 11.7127C3.22091 12.6451 4.4088 13.28 5.702 13.5373C6.99521 13.7945 8.33566 13.6625 9.55383 13.1579C10.772 12.6533 11.8132 11.7988 12.5457 10.7025C13.2783 9.60617 13.6693 8.31724 13.6693 6.9987C13.6693 6.12322 13.4968 5.25631 13.1618 4.44747C12.8268 3.63864 12.3357 2.90371 11.7167 2.28465C11.0976 1.6656 10.3627 1.17453 9.55383 0.839501C8.74499 0.50447 7.87809 0.332031 7.00261 0.332031ZM7.00261 12.332C5.94777 12.332 4.91663 12.0192 4.03957 11.4332C3.1625 10.8472 2.47892 10.0142 2.07525 9.03968C1.67158 8.06514 1.56596 6.99278 1.77175 5.95822C1.97754 4.92365 2.48549 3.97334 3.23137 3.22746C3.97725 2.48158 4.92756 1.97363 5.96213 1.76784C6.99669 1.56206 8.06905 1.66767 9.04358 2.07134C10.0181 2.47501 10.8511 3.15859 11.4371 4.03566C12.0231 4.91272 12.3359 5.94386 12.3359 6.9987C12.3359 8.41319 11.774 9.76974 10.7738 10.7699C9.77365 11.7701 8.4171 12.332 7.00261 12.332ZM9.66927 6.33203H7.66927V4.33203C7.66927 4.15522 7.59904 3.98565 7.47401 3.86063C7.34899 3.7356 7.17942 3.66536 7.00261 3.66536C6.8258 3.66536 6.65623 3.7356 6.5312 3.86063C6.40618 3.98565 6.33594 4.15522 6.33594 4.33203V6.33203H4.33594C4.15913 6.33203 3.98956 6.40227 3.86454 6.52729C3.73951 6.65232 3.66927 6.82189 3.66927 6.9987C3.66927 7.17551 3.73951 7.34508 3.86454 7.4701C3.98956 7.59513 4.15913 7.66536 4.33594 7.66536H6.33594V9.66537C6.33594 9.84218 6.40618 10.0117 6.5312 10.1368C6.65623 10.2618 6.8258 10.332 7.00261 10.332C7.17942 10.332 7.34899 10.2618 7.47401 10.1368C7.59904 10.0117 7.66927 9.84218 7.66927 9.66537V7.66536H9.66927C9.84608 7.66536 10.0157 7.59513 10.1407 7.4701C10.2657 7.34508 10.3359 7.17551 10.3359 6.9987C10.3359 6.82189 10.2657 6.65232 10.1407 6.52729C10.0157 6.40227 9.84608 6.33203 9.66927 6.33203Z" fill="#040921"/>
</svg>
