<svg width="18" height="20" viewBox="0 0 18 20" fill="none" xmlns="http://www.w3.org/2000/svg">
<path d="M16.2901 1.70819C16.3831 1.80191 16.4937 1.87631 16.6156 1.92708C16.7374 1.97785 16.8681 2.00398 17.0001 2.00398C17.1322 2.00398 17.2629 1.97785 17.3847 1.92708C17.5066 1.87631 17.6172 1.80191 17.7101 1.70819C17.7985 1.61099 17.8695 1.49937 17.9201 1.37819C17.9714 1.25796 17.9986 1.12886 18.0001 0.998186C18.0009 0.86658 17.9757 0.736117 17.9259 0.61428C17.8761 0.492442 17.8028 0.381626 17.7101 0.288186L17.5601 0.168186C17.5044 0.13034 17.4439 0.100075 17.3801 0.0781863C17.198 0.0016069 16.9973 -0.0193158 16.8033 0.0180584C16.6093 0.0554325 16.4308 0.149429 16.2901 0.288186C16.1975 0.381626 16.1241 0.492442 16.0744 0.61428C16.0246 0.736117 15.9994 0.86658 16.0001 0.998186C16.0017 1.12886 16.0289 1.25796 16.0801 1.37819C16.1308 1.49937 16.2018 1.61099 16.2901 1.70819ZM17.0001 2.99819C16.7349 2.99819 16.4806 3.10354 16.293 3.29108C16.1055 3.47862 16.0001 3.73297 16.0001 3.99819V7.99819C16.0001 8.2634 16.1055 8.51776 16.293 8.70529C16.4806 8.89283 16.7349 8.99819 17.0001 8.99819C17.2654 8.99819 17.5197 8.89283 17.7072 8.70529C17.8948 8.51776 18.0001 8.2634 18.0001 7.99819V3.99819C18.0001 3.73297 17.8948 3.47862 17.7072 3.29108C17.5197 3.10354 17.2654 2.99819 17.0001 2.99819ZM17.0601 10.9982C16.7977 10.9671 16.5336 11.0412 16.3257 11.2042C16.1177 11.3672 15.9827 11.6059 15.9501 11.8682C15.738 13.5615 14.9146 15.1191 13.6348 16.2479C12.3549 17.3768 10.7067 17.9992 9.00014 17.9982H3.41014L4.05014 17.3682C4.23639 17.1808 4.34093 16.9274 4.34093 16.6632C4.34093 16.399 4.23639 16.1455 4.05014 15.9582C3.06763 14.9797 2.39784 13.7316 2.12572 12.3719C1.85361 11.0123 1.99142 9.60244 2.52168 8.32124C3.05195 7.04003 3.95078 5.94517 5.10416 5.17552C6.25755 4.40587 7.61354 3.9961 9.00014 3.99819C10.2263 3.99633 11.4308 4.32077 12.4901 4.93819C12.7157 5.04014 12.9711 5.05479 13.2069 4.97931C13.4427 4.90382 13.6421 4.74357 13.7665 4.52955C13.8909 4.31553 13.9315 4.06297 13.8805 3.82073C13.8294 3.57849 13.6904 3.36379 13.4901 3.21819C12.1293 2.41788 10.5789 1.99662 9.00014 1.99819C7.3076 2.00375 5.65094 2.48647 4.22033 3.39092C2.78971 4.29538 1.64313 5.58492 0.912208 7.1115C0.181286 8.63809 -0.104352 10.3398 0.088084 12.0214C0.28052 13.703 0.943231 15.2962 2.00014 16.6182L0.290139 18.2882C0.151382 18.4288 0.0573856 18.6074 0.0200115 18.8014C-0.0173626 18.9954 0.00356002 19.1961 0.0801395 19.3782C0.15516 19.5608 0.282557 19.7171 0.446278 19.8275C0.609998 19.9378 0.802714 19.9972 1.00014 19.9982H9.00014C11.1931 19.9982 13.3106 19.1975 14.9549 17.7465C16.5993 16.2955 17.6572 14.2941 17.9301 12.1182C17.9469 11.9875 17.9377 11.8547 17.903 11.7276C17.8684 11.6004 17.8089 11.4814 17.728 11.3773C17.6472 11.2732 17.5465 11.1861 17.4319 11.1211C17.3173 11.056 17.191 11.0142 17.0601 10.9982Z" fill="#040921"/>
</svg>
