<svg width="12" height="15" viewBox="0 0 12 15" fill="none" xmlns="http://www.w3.org/2000/svg">
<path d="M9.33366 5.5V4.16666C9.33366 3.28261 8.98247 2.43476 8.35735 1.80964C7.73223 1.18452 6.88438 0.833328 6.00033 0.833328C5.11627 0.833328 4.26842 1.18452 3.6433 1.80964C3.01818 2.43476 2.66699 3.28261 2.66699 4.16666V5.5C2.13656 5.5 1.62785 5.71071 1.25278 6.08578C0.877706 6.46085 0.666992 6.96956 0.666992 7.5V12.1667C0.666992 12.6971 0.877706 13.2058 1.25278 13.5809C1.62785 13.9559 2.13656 14.1667 2.66699 14.1667H9.33366C9.86409 14.1667 10.3728 13.9559 10.7479 13.5809C11.1229 13.2058 11.3337 12.6971 11.3337 12.1667V7.5C11.3337 6.96956 11.1229 6.46085 10.7479 6.08578C10.3728 5.71071 9.86409 5.5 9.33366 5.5ZM4.00033 4.16666C4.00033 3.63623 4.21104 3.12752 4.58611 2.75245C4.96118 2.37738 5.46989 2.16666 6.00033 2.16666C6.53076 2.16666 7.03947 2.37738 7.41454 2.75245C7.78961 3.12752 8.00033 3.63623 8.00033 4.16666V5.5H4.00033V4.16666ZM10.0003 12.1667C10.0003 12.3435 9.93009 12.513 9.80506 12.6381C9.68004 12.7631 9.51047 12.8333 9.33366 12.8333H2.66699C2.49018 12.8333 2.32061 12.7631 2.19559 12.6381C2.07056 12.513 2.00033 12.3435 2.00033 12.1667V7.5C2.00033 7.32318 2.07056 7.15361 2.19559 7.02859C2.32061 6.90357 2.49018 6.83333 2.66699 6.83333H9.33366C9.51047 6.83333 9.68004 6.90357 9.80506 7.02859C9.93009 7.15361 10.0003 7.32318 10.0003 7.5V12.1667Z" fill="#040921"/>
</svg>
