<svg width="50" height="42" viewBox="0 0 50 42" fill="none" xmlns="http://www.w3.org/2000/svg">
<path d="M48.9755 14.0234C48.9755 14.0002 48.9989 13.977 48.9989 13.9538C51.2703 9.14785 49.5609 3.62219 45.0415 1.23084C40.2412 -1.29982 34.5042 0.232502 31.7176 4.80626C31.1556 5.73495 29.3525 8.96212 27.3622 12.6072C26.9875 13.3037 26.2616 14.1163 25.0673 14.1163C24.1307 14.1163 23.3345 13.8145 22.4915 12.2822C20.1031 8.01022 18.6747 5.47956 18.2766 4.80626C18.2532 4.78305 18.2297 4.73661 18.2063 4.7134C18.1829 4.66696 18.1595 4.64374 18.1361 4.59731C18.1361 4.59731 18.1361 4.59731 18.1361 4.57409C18.1127 4.52766 18.0893 4.50444 18.0658 4.48123C15.6071 0.836146 10.5492 -1.46234 5.25706 1.06832C3.00908 2.1363 1.3231 4.13297 0.503524 6.64041C-0.31605 9.17107 -0.128719 11.8643 1.01869 13.977C1.27627 14.4646 1.65093 15.1611 2.09584 15.9737C3.75841 19.0615 6.56838 24.2389 9.05052 28.6038C10.6194 31.3666 11.8371 33.4561 12.7035 34.8259C15.6539 39.5158 19.9157 42 25.0205 42C31.9284 42 36.0731 36.8458 37.5249 34.6402C39.9368 30.9951 47.2427 17.3435 48.8584 14.2324C48.8584 14.2324 48.8584 14.2324 48.8584 14.2092C48.8818 14.1627 48.9053 14.0931 48.9287 14.0467C48.9755 14.0467 48.9755 14.0467 48.9755 14.0234ZM19.3537 14.0234C20.6182 16.2987 22.3745 17.506 24.5756 17.6685C23.3579 19.8741 22.351 21.6619 22.0232 22.1958C21.5783 22.9388 20.9929 23.3567 20.4543 23.3567C19.8923 23.3567 19.2835 22.8924 18.7917 22.0798C16.9887 19.1312 12.563 11.2606 11.5327 9.24072C11.2517 8.68351 11.1112 8.14952 11.1112 7.66196C11.1112 6.87258 11.4858 6.19929 12.2117 5.8046C12.3288 5.73495 12.4693 5.6653 12.6332 5.61886C12.6801 5.59564 12.7269 5.59564 12.7737 5.57243H12.7971C12.844 5.54921 12.8908 5.54921 12.9376 5.52599H12.9611C13.0079 5.52599 13.0547 5.50278 13.1016 5.50278H13.125C13.1718 5.50278 13.2186 5.50278 13.2655 5.50278H13.2889C13.5465 5.50278 13.804 5.54921 14.0616 5.6653C14.1319 5.68851 14.1787 5.73495 14.249 5.78138C14.366 5.85103 14.5065 5.96712 14.6236 6.0832C14.6939 6.15285 14.7407 6.22251 14.811 6.29216C14.811 6.29216 14.811 6.31537 14.8344 6.31537C14.9046 6.38502 14.9515 6.47789 14.9983 6.54754C14.9983 6.54754 14.9983 6.57076 15.0217 6.57076C15.0451 6.61719 15.0685 6.64041 15.092 6.68685C15.4666 7.12797 16.4267 8.77638 19.3537 14.0234ZM4.20332 12.3054C3.52424 11.0517 3.43058 9.33359 3.94574 7.75483C4.4609 6.17607 5.49122 4.92235 6.84937 4.29549C7.69236 3.9008 8.51194 3.66863 9.28468 3.59898C9.1676 3.69184 9.07393 3.80793 8.98027 3.92402C8.98027 3.94723 8.95685 3.94723 8.95685 3.97045C8.86318 4.08653 8.76952 4.1794 8.67585 4.29549C8.65244 4.31871 8.65244 4.31871 8.62902 4.34192C8.53535 4.45801 8.46511 4.57409 8.39486 4.69018C8.32461 4.80626 8.25436 4.92235 8.18411 5.06165C8.18411 5.08487 8.16069 5.08487 8.16069 5.10809C8.09044 5.22417 8.04361 5.36347 7.99678 5.47956C7.99678 5.50278 7.97336 5.52599 7.97336 5.54921C7.92653 5.68851 7.8797 5.8046 7.83286 5.9439C7.83286 5.96712 7.83286 5.96712 7.83286 5.99033C7.78603 6.12964 7.76261 6.24572 7.7392 6.38502C7.7392 6.40824 7.7392 6.40824 7.71578 6.43146C7.69236 6.57076 7.66895 6.71006 7.64553 6.84937C7.64553 6.87258 7.64553 6.8958 7.64553 6.94223C7.62211 7.08154 7.62211 7.22084 7.5987 7.36014C7.5987 7.38336 7.5987 7.40658 7.5987 7.42979C7.5987 7.5691 7.5987 7.7084 7.5987 7.82448C7.5987 7.8477 7.5987 7.8477 7.5987 7.87092C7.5987 8.01022 7.62211 8.14952 7.62211 8.28882C7.62211 8.31204 7.62211 8.35847 7.62211 8.38169C7.64553 8.52099 7.66895 8.6603 7.69236 8.7996C7.69236 8.82282 7.69236 8.84603 7.71578 8.89247C7.7392 9.03177 7.76261 9.17107 7.80945 9.31037C7.80945 9.33359 7.80945 9.33359 7.80945 9.35681C7.85628 9.49611 7.90311 9.65863 7.94994 9.79793C7.94994 9.82115 7.97336 9.86758 7.97336 9.8908C8.02019 10.0301 8.06703 10.1694 8.13728 10.3087C8.16069 10.3319 8.16069 10.3784 8.18411 10.4016C8.25436 10.5409 8.30119 10.6802 8.37144 10.8195C8.37144 10.8195 8.37144 10.8427 8.39486 10.8427C9.44859 12.8858 13.968 20.9189 15.7944 23.9139C16.9653 25.8177 18.6747 26.9089 20.5246 26.9089C22.351 26.9089 24.037 25.8641 25.161 24.03C25.6996 23.1477 27.7134 19.4794 29.8677 15.6022C32.022 11.6785 34.27 7.61553 34.8554 6.64041C36.6819 3.66863 40.288 2.71673 43.4258 4.36514C44.2454 4.80626 44.9245 5.40991 45.4162 6.12964H45.3928C45.2757 6.0832 45.1352 6.05999 45.0181 6.03677C44.9947 6.03677 44.9713 6.01355 44.9245 6.01355C44.8074 5.99033 44.6669 5.96712 44.5264 5.9439C44.503 5.9439 44.4561 5.9439 44.4327 5.9439C44.2922 5.92068 44.1751 5.92068 44.0346 5.92068C44.0112 5.92068 43.9644 5.92068 43.941 5.92068C43.8239 5.92068 43.6834 5.92068 43.5663 5.92068C43.5429 5.92068 43.5195 5.92068 43.5195 5.92068C43.4024 5.92068 43.2619 5.9439 43.1448 5.9439C43.1214 5.9439 43.0746 5.9439 43.0512 5.9439C42.9341 5.96712 42.7936 5.99033 42.6765 6.01355C42.6531 6.01355 42.6062 6.03677 42.5828 6.03677C42.4657 6.05999 42.3252 6.10642 42.2082 6.12964C42.1847 6.12964 42.1613 6.15285 42.1145 6.15285C41.9974 6.19929 41.8803 6.22251 41.7398 6.26894C41.7164 6.26894 41.7164 6.29216 41.693 6.29216C41.5759 6.33859 41.4588 6.38502 41.3418 6.45468C41.3183 6.47789 41.2949 6.47789 41.2715 6.50111C41.1544 6.54754 41.0373 6.61719 40.9203 6.68685C40.8968 6.71006 40.8734 6.71006 40.8266 6.73328C40.7095 6.80293 40.5924 6.87258 40.4988 6.94223C40.4753 6.96545 40.4519 6.96545 40.4285 6.98867C40.3114 7.05832 40.2178 7.15119 40.1007 7.22084L40.0773 7.24406C39.9602 7.33692 39.8665 7.42979 39.7729 7.52266C39.7494 7.54588 39.726 7.56909 39.7026 7.56909C39.6089 7.66196 39.5153 7.75483 39.4216 7.87092C39.3982 7.89413 39.3748 7.91735 39.3514 7.94057C39.2577 8.03344 39.164 8.14952 39.0938 8.26561C39.0704 8.28882 39.0704 8.31204 39.0469 8.33526C38.9533 8.45134 38.883 8.56743 38.7894 8.68351C38.7894 8.68351 38.7894 8.68351 38.7894 8.70673C38.2508 9.56576 36.9629 11.9571 35.3471 14.9753C33.0992 19.1544 30.3126 24.3782 28.533 27.1875C26.4723 30.4843 24.1073 31.8774 20.6416 31.8774C20.3841 31.8774 20.1265 31.8541 19.8923 31.8309C16.895 31.5523 13.8743 29.6021 12.3054 26.8857C12.3054 26.8857 12.3054 26.8625 12.282 26.8625C9.72959 22.5441 6.94304 17.3899 5.28047 14.3253C4.83556 13.4894 4.4609 12.7929 4.20332 12.3054ZM34.5276 32.69C33.3802 34.4312 30.1721 38.4478 25.0205 38.4478C21.9061 38.4478 19.3537 37.3102 17.2697 34.9652C17.6678 35.0813 18.0658 35.1742 18.4873 35.2438C18.5107 35.2438 18.5342 35.2438 18.5576 35.2671C18.6747 35.2903 18.7683 35.3135 18.8854 35.3135C18.9322 35.3135 19.0025 35.3367 19.0493 35.3367C19.143 35.3367 19.2132 35.3599 19.3069 35.3599C19.4006 35.3599 19.4942 35.3831 19.5879 35.3831C19.6347 35.3831 19.6816 35.3831 19.7284 35.4064C20.0094 35.4296 20.2904 35.4296 20.5714 35.4296C25.2547 35.4296 28.8374 33.34 31.5303 29.0449C33.3568 26.1195 36.1901 20.8493 38.4615 16.6237C39.9133 13.9074 41.2949 11.3535 41.7632 10.6105C42.5126 9.44968 43.8707 9.21751 44.7606 9.68185C44.9011 9.7515 45.0415 9.84437 45.1586 9.93724L45.182 9.96045C45.2289 10.0069 45.2757 10.0533 45.3225 10.0998C45.346 10.123 45.346 10.123 45.3694 10.1462C45.4162 10.1926 45.4396 10.2158 45.4865 10.2623C45.5099 10.2855 45.5099 10.3087 45.5333 10.3087C45.5567 10.3551 45.6035 10.3784 45.627 10.4248C45.6504 10.448 45.6504 10.4712 45.6738 10.4944C45.6972 10.5409 45.7206 10.5641 45.744 10.6105C45.7675 10.6337 45.7675 10.657 45.7675 10.6802C45.7909 10.7266 45.8143 10.7498 45.8143 10.7963C45.8143 10.8195 45.8377 10.8427 45.8377 10.8659C45.8611 10.9124 45.8611 10.9356 45.8845 10.982C45.8845 11.0052 45.908 11.0284 45.908 11.0749C45.908 11.1213 45.9314 11.1445 45.9314 11.191C45.9314 11.2142 45.9314 11.2606 45.9548 11.2838C45.9548 11.3303 45.9548 11.3535 45.9782 11.3999C45.9782 11.4231 45.9782 11.4696 45.9782 11.4928C45.9782 11.5392 45.9782 11.5624 45.9782 11.6089C45.9782 11.6321 45.9782 11.6785 45.9782 11.7017C45.9782 11.7482 45.9782 11.7714 45.9782 11.8178C45.9782 11.841 45.9782 11.8875 45.9782 11.9107C45.9782 11.9339 45.9782 11.9803 45.9548 12.0036C45.9548 12.0268 45.9314 12.0732 45.9314 12.0964C45.9314 12.1196 45.908 12.1661 45.908 12.1893C45.908 12.2125 45.8845 12.2589 45.8845 12.2822C45.8845 12.3054 45.8611 12.3518 45.8611 12.375C45.8611 12.3982 45.8377 12.4447 45.8143 12.4679C45.7909 12.5143 45.7909 12.5375 45.7675 12.584C45.7675 12.584 45.7675 12.6072 45.744 12.6072C44.1283 15.6254 36.8224 29.2074 34.5276 32.69Z" fill="#040921"/>
</svg>
