<svg width="16" height="17" viewBox="0 0 16 17" fill="none" xmlns="http://www.w3.org/2000/svg">
<path d="M8.00046 3.41668C8.33009 3.41668 8.65233 3.31893 8.92641 3.13579C9.20049 2.95266 9.41411 2.69236 9.54026 2.38782C9.6664 2.08327 9.69941 1.74816 9.6351 1.42486C9.57079 1.10156 9.41206 0.804587 9.17897 0.571499C8.94588 0.338412 8.64891 0.179677 8.32561 0.115369C8.00231 0.0510601 7.6672 0.0840656 7.36265 0.210212C7.05811 0.336358 6.79781 0.549979 6.61467 0.82406C6.43154 1.09814 6.33379 1.42038 6.33379 1.75001C6.33379 2.19204 6.50939 2.61596 6.82195 2.92852C7.13451 3.24108 7.55843 3.41668 8.00046 3.41668ZM14.2505 15.0833H13.4171V10.9167C13.4171 10.6957 13.3293 10.4837 13.173 10.3274C13.0168 10.1711 12.8048 10.0833 12.5838 10.0833H8.41712V8.41668H12.5838C12.8048 8.41668 13.0168 8.32888 13.173 8.1726C13.3293 8.01632 13.4171 7.80436 13.4171 7.58334C13.4171 7.36233 13.3293 7.15037 13.173 6.99409C13.0168 6.83781 12.8048 6.75001 12.5838 6.75001H8.41712V5.08334C8.41712 4.86233 8.32933 4.65037 8.17305 4.49409C8.01677 4.33781 7.8048 4.25001 7.58379 4.25001C7.36278 4.25001 7.15082 4.33781 6.99453 4.49409C6.83825 4.65037 6.75046 4.86233 6.75046 5.08334V10.9167C6.75046 11.1377 6.83825 11.3497 6.99453 11.5059C7.15082 11.6622 7.36278 11.75 7.58379 11.75H11.7505V15.9167C11.7505 16.1377 11.8383 16.3497 11.9945 16.5059C12.1508 16.6622 12.3628 16.75 12.5838 16.75H14.2505C14.4715 16.75 14.6834 16.6622 14.8397 16.5059C14.996 16.3497 15.0838 16.1377 15.0838 15.9167C15.0838 15.6957 14.996 15.4837 14.8397 15.3274C14.6834 15.1711 14.4715 15.0833 14.2505 15.0833ZM8.58379 13.75C8.16403 14.3097 7.5788 14.7231 6.91102 14.9317C6.24323 15.1403 5.52674 15.1335 4.86303 14.9123C4.19932 14.6911 3.62205 14.2666 3.21298 13.699C2.80391 13.1315 2.58379 12.4496 2.58379 11.75C2.58477 11.1023 2.77445 10.4689 3.12964 9.92721C3.48483 9.38554 3.99013 8.9591 4.58379 8.70001C4.78712 8.61161 4.94701 8.44605 5.02827 8.23976C5.10954 8.03347 5.10553 7.80334 5.01712 7.60001C4.92872 7.39668 4.76316 7.23679 4.55687 7.15553C4.35058 7.07426 4.12046 7.07827 3.91712 7.16668C3.21587 7.47288 2.59426 7.93595 2.10015 8.52022C1.60604 9.10449 1.25263 9.79438 1.06712 10.5367C0.881619 11.2791 0.868975 12.0541 1.03017 12.8022C1.19136 13.5502 1.52208 14.2512 1.99687 14.8513C2.47165 15.4514 3.07783 15.9345 3.76872 16.2634C4.45961 16.5923 5.21678 16.7583 5.9819 16.7485C6.74703 16.7387 7.4997 16.5534 8.18196 16.207C8.86421 15.8605 9.45784 15.362 9.91712 14.75C10.0497 14.5732 10.1067 14.351 10.0754 14.1322C10.0442 13.9134 9.92727 13.716 9.75046 13.5833C9.57365 13.4507 9.3514 13.3938 9.13261 13.4251C8.91381 13.4563 8.7164 13.5732 8.58379 13.75Z" fill="#040921"/>
</svg>
