<svg width="15" height="18" viewBox="0 0 15 18" fill="none" xmlns="http://www.w3.org/2000/svg">
<ellipse cx="7.64911" cy="5.06372" rx="3.98169" ry="3.98169" stroke="white" stroke-width="1.5" stroke-linecap="round" stroke-linejoin="round"/>
<path fill-rule="evenodd" clip-rule="evenodd" d="M1.33333 14.5832C1.33226 14.3033 1.39486 14.0268 1.51639 13.7746C1.89778 13.0118 2.9733 12.6076 3.86574 12.4245C4.50938 12.2872 5.1619 12.1954 5.81845 12.1499C7.03401 12.0431 8.25659 12.0431 9.47215 12.1499C10.1286 12.1959 10.7811 12.2877 11.4249 12.4245C12.3173 12.6076 13.3928 12.9737 13.7742 13.7746C14.0186 14.2886 14.0186 14.8853 13.7742 15.3993C13.3928 16.2003 12.3173 16.5664 11.4249 16.7418C10.782 16.8849 10.1292 16.9792 9.47215 17.024C8.48279 17.1079 7.4888 17.1232 6.49732 17.0698C6.26849 17.0698 6.04729 17.0698 5.81845 17.024C5.16384 16.9798 4.51358 16.8854 3.87337 16.7418C2.9733 16.5664 1.90541 16.2003 1.51639 15.3993C1.39548 15.1443 1.33294 14.8654 1.33333 14.5832Z" stroke="white" stroke-width="1.5" stroke-linecap="round" stroke-linejoin="round"/>
</svg>
