<svg width="14" height="13" viewBox="0 0 14 13" fill="none" xmlns="http://www.w3.org/2000/svg">
<path d="M5.36528 3.03115C6.00374 1.06618 6.32297 0.083698 6.89824 0.0182326C6.96586 0.0105371 7.03414 0.0105371 7.10176 0.0182326C7.67703 0.083698 7.99626 1.06618 8.63472 3.03115C8.81177 3.57606 8.9003 3.84851 9.10513 4.01584C9.13146 4.03735 9.15899 4.05735 9.18759 4.07575C9.41002 4.21885 9.6965 4.21885 10.2694 4.21885C12.3355 4.21885 13.3686 4.21885 13.6086 4.74573C13.6368 4.80767 13.6579 4.87261 13.6715 4.9393C13.787 5.50664 12.9513 6.11385 11.2798 7.32827C10.8162 7.66504 10.5845 7.83342 10.4886 8.07994C10.4763 8.11163 10.4658 8.14399 10.4571 8.17688C10.3898 8.43264 10.4783 8.7051 10.6553 9.25C11.2938 11.215 11.613 12.1975 11.1861 12.5886C11.1359 12.6345 11.0807 12.6747 11.0215 12.7082C10.5176 12.9934 9.68182 12.3861 8.01031 11.1717C7.54679 10.835 7.31503 10.6666 7.05096 10.6516C7.01701 10.6497 6.98299 10.6497 6.94904 10.6516C6.68497 10.6666 6.45321 10.835 5.98969 11.1717C4.31818 12.3861 3.48243 12.9934 2.97855 12.7082C2.91932 12.6747 2.86408 12.6345 2.81389 12.5886C2.38697 12.1975 2.7062 11.215 3.34465 9.25C3.5217 8.7051 3.61023 8.43264 3.54287 8.17687C3.53421 8.14399 3.5237 8.11163 3.51137 8.07994C3.41553 7.83342 3.18377 7.66504 2.72025 7.32827C1.04874 6.11385 0.212991 5.50664 0.328499 4.9393C0.342077 4.87261 0.363176 4.80767 0.391392 4.74573C0.631422 4.21885 1.66447 4.21885 3.73056 4.21885C4.3035 4.21885 4.58998 4.21885 4.81241 4.07575C4.84101 4.05735 4.86854 4.03735 4.89487 4.01584C5.0997 3.84851 5.18823 3.57606 5.36528 3.03115Z" fill="url(#paint0_linear_1_497)"/>
<defs>
<linearGradient id="paint0_linear_1_497" x1="10.78" y1="-7.01923" x2="-9.46877" y2="1.94599" gradientUnits="userSpaceOnUse">
<stop offset="0.0001" stop-color="#9D50FF"/>
<stop offset="1" stop-color="#583CF0"/>
</linearGradient>
</defs>
</svg>
