<svg width="14" height="14" viewBox="0 0 14 14" fill="none" xmlns="http://www.w3.org/2000/svg">
<path d="M13.0007 6.33325C12.8238 6.33325 12.6543 6.40349 12.5292 6.52851C12.4042 6.65354 12.334 6.82311 12.334 6.99992C12.3419 8.2486 11.9142 9.46097 11.1244 10.4282C10.3347 11.3955 9.23234 12.057 8.00729 12.299C6.78225 12.5409 5.51117 12.3481 4.41299 11.7538C3.3148 11.1594 2.45826 10.2007 1.99087 9.04275C1.52348 7.88481 1.47451 6.60013 1.8524 5.40997C2.23028 4.21981 3.01137 3.19867 4.06112 2.52244C5.11087 1.8462 6.36358 1.55719 7.60349 1.70519C8.8434 1.85319 9.99289 2.42893 10.854 3.33325H9.25399C9.07718 3.33325 8.90761 3.40349 8.78258 3.52851C8.65756 3.65354 8.58732 3.82311 8.58732 3.99992C8.58732 4.17673 8.65756 4.3463 8.78258 4.47132C8.90761 4.59635 9.07718 4.66658 9.25399 4.66658H12.274C12.4508 4.66658 12.6204 4.59635 12.7454 4.47132C12.8704 4.3463 12.9407 4.17673 12.9407 3.99992V0.999918C12.9407 0.823107 12.8704 0.653538 12.7454 0.528514C12.6204 0.40349 12.4508 0.333252 12.274 0.333252C12.0972 0.333252 11.9276 0.40349 11.8026 0.528514C11.6776 0.653538 11.6073 0.823107 11.6073 0.999918V2.17992C10.4971 1.11862 9.05449 0.47322 7.52333 0.352804C5.99218 0.232389 4.46641 0.644348 3.20393 1.51905C1.94146 2.39374 1.01973 3.67752 0.594539 5.15338C0.169352 6.62923 0.266793 8.20663 0.870392 9.61894C1.47399 11.0312 2.54672 12.1918 3.90725 12.9045C5.26778 13.6171 6.83265 13.8382 8.33735 13.5302C9.84204 13.2223 11.1943 12.4042 12.1654 11.2144C13.1366 10.0245 13.6671 8.5358 13.6673 6.99992C13.6673 6.82311 13.5971 6.65354 13.4721 6.52851C13.347 6.40349 13.1775 6.33325 13.0007 6.33325Z" fill="#040921"/>
</svg>
