<svg width="19" height="19" viewBox="0 0 19 19" fill="none" xmlns="http://www.w3.org/2000/svg">
<path d="M14.8327 10.834C14.6117 10.834 14.3997 10.9218 14.2434 11.0781C14.0871 11.2344 13.9993 11.4464 13.9993 11.6674V11.984L12.766 10.7507C12.3305 10.3187 11.742 10.0762 11.1285 10.0762C10.5151 10.0762 9.9265 10.3187 9.49102 10.7507L8.90768 11.334L6.84102 9.26737C6.39945 8.84704 5.81315 8.61261 5.20352 8.61261C4.59388 8.61261 4.00758 8.84704 3.56602 9.26737L2.33268 10.5007V5.83404C2.33268 5.61303 2.42048 5.40106 2.57676 5.24478C2.73304 5.0885 2.945 5.00071 3.16602 5.00071H8.99935C9.22036 5.00071 9.43232 4.91291 9.5886 4.75663C9.74488 4.60035 9.83268 4.38839 9.83268 4.16737C9.83268 3.94636 9.74488 3.7344 9.5886 3.57812C9.43232 3.42184 9.22036 3.33404 8.99935 3.33404H3.16602C2.50297 3.33404 1.86709 3.59743 1.39825 4.06627C0.929408 4.53511 0.666016 5.171 0.666016 5.83404V15.834C0.666016 16.4971 0.929408 17.133 1.39825 17.6018C1.86709 18.0706 2.50297 18.334 3.16602 18.334H13.166C13.8291 18.334 14.4649 18.0706 14.9338 17.6018C15.4026 17.133 15.666 16.4971 15.666 15.834V11.6674C15.666 11.4464 15.5782 11.2344 15.4219 11.0781C15.2657 10.9218 15.0537 10.834 14.8327 10.834ZM3.16602 16.6674C2.945 16.6674 2.73304 16.5796 2.57676 16.4233C2.42048 16.267 2.33268 16.0551 2.33268 15.834V12.859L4.74935 10.4424C4.87178 10.3257 5.0344 10.2606 5.20352 10.2606C5.37263 10.2606 5.53526 10.3257 5.65768 10.4424L8.29935 13.084L11.8827 16.6674H3.16602ZM13.9993 15.834C13.9981 15.9936 13.9455 16.1484 13.8493 16.2757L10.091 12.5007L10.6743 11.9174C10.7341 11.8564 10.8054 11.808 10.8841 11.7749C10.9628 11.7418 11.0473 11.7248 11.1327 11.7248C11.218 11.7248 11.3026 11.7418 11.3813 11.7749C11.46 11.808 11.5313 11.8564 11.591 11.9174L13.9993 14.3424V15.834ZM17.9243 3.57571L15.4243 1.07571C15.3451 0.99984 15.2516 0.940369 15.1493 0.900707C14.9465 0.817359 14.7189 0.817359 14.516 0.900707C14.4137 0.940369 14.3203 0.99984 14.241 1.07571L11.741 3.57571C11.6633 3.65341 11.6017 3.74565 11.5596 3.84717C11.5176 3.94868 11.4959 4.05749 11.4959 4.16737C11.4959 4.38929 11.5841 4.60212 11.741 4.75904C11.8979 4.91596 12.1108 5.00412 12.3327 5.00412C12.5546 5.00412 12.7674 4.91596 12.9243 4.75904L13.9993 3.67571V8.33404C13.9993 8.55505 14.0871 8.76701 14.2434 8.9233C14.3997 9.07958 14.6117 9.16737 14.8327 9.16737C15.0537 9.16737 15.2657 9.07958 15.4219 8.9233C15.5782 8.76701 15.666 8.55505 15.666 8.33404V3.67571L16.741 4.75904C16.8185 4.83715 16.9107 4.89914 17.0122 4.94145C17.1138 4.98376 17.2227 5.00554 17.3327 5.00554C17.4427 5.00554 17.5516 4.98376 17.6532 4.94145C17.7547 4.89914 17.8469 4.83715 17.9243 4.75904C18.0025 4.68157 18.0645 4.5894 18.1068 4.48785C18.1491 4.3863 18.1708 4.27738 18.1708 4.16737C18.1708 4.05736 18.1491 3.94844 18.1068 3.84689C18.0645 3.74534 18.0025 3.65318 17.9243 3.57571Z" fill="#040921"/>
</svg>
