<svg width="14" height="14" viewBox="0 0 14 14" fill="none" xmlns="http://www.w3.org/2000/svg">
<path d="M13.1987 5.71873C13.0114 5.49383 12.777 5.31278 12.512 5.18837C12.2471 5.06397 11.9581 4.99923 11.6654 4.99873H8.62536L8.9987 4.04539C9.15399 3.62798 9.2057 3.17913 9.14941 2.73734C9.09311 2.29555 8.93049 1.87401 8.67549 1.50888C8.42049 1.14375 8.08072 0.845925 7.68533 0.640956C7.28993 0.435988 6.85072 0.329992 6.40536 0.332061C6.27712 0.332329 6.15168 0.369578 6.04408 0.439343C5.93647 0.509108 5.85128 0.608428 5.7987 0.725394L3.8987 4.99873H2.33203C1.8016 4.99873 1.29289 5.20944 0.917818 5.58451C0.542745 5.95959 0.332031 6.46829 0.332031 6.99873V11.6654C0.332031 12.1958 0.542745 12.7045 0.917818 13.0796C1.29289 13.4547 1.8016 13.6654 2.33203 13.6654H10.8187C11.2866 13.6652 11.7396 13.5011 12.0989 13.2014C12.4582 12.9018 12.7011 12.4856 12.7854 12.0254L13.632 7.35873C13.6844 7.07031 13.6727 6.77391 13.5978 6.49051C13.523 6.20711 13.3867 5.94363 13.1987 5.71873ZM3.66536 12.3321H2.33203C2.15522 12.3321 1.98565 12.2618 1.86063 12.1368C1.7356 12.0118 1.66536 11.8422 1.66536 11.6654V6.99873C1.66536 6.82192 1.7356 6.65235 1.86063 6.52732C1.98565 6.4023 2.15522 6.33206 2.33203 6.33206H3.66536V12.3321ZM12.332 7.11873L11.4854 11.7854C11.457 11.9407 11.3744 12.0809 11.2523 12.181C11.1302 12.2811 10.9766 12.3346 10.8187 12.3321H4.9987V5.80539L6.81203 1.72539C6.99869 1.77981 7.17204 1.87233 7.32114 1.99712C7.47024 2.1219 7.59185 2.27624 7.6783 2.45039C7.76475 2.62454 7.81415 2.81472 7.8234 3.00893C7.83265 3.20313 7.80154 3.39715 7.73203 3.57873L7.3787 4.53206C7.30341 4.73356 7.27799 4.95029 7.30461 5.16375C7.33124 5.3772 7.40911 5.58105 7.53159 5.75789C7.65406 5.93472 7.81751 6.0793 8.00797 6.17929C8.19843 6.27927 8.41026 6.33168 8.62536 6.33206H11.6654C11.7633 6.3319 11.8601 6.35332 11.9488 6.3948C12.0375 6.43629 12.116 6.49681 12.1787 6.57206C12.2429 6.64628 12.29 6.73376 12.3165 6.82826C12.343 6.92275 12.3483 7.02194 12.332 7.11873Z" fill="#040921"/>
</svg>
