<svg width="14" height="14" viewBox="0 0 14 14" fill="none" xmlns="http://www.w3.org/2000/svg">
<path d="M13.4872 12.5393L11.0139 10.086C11.9739 8.88891 12.4389 7.3695 12.3131 5.84017C12.1873 4.31083 11.4803 2.88782 10.3375 1.86373C9.19477 0.839636 7.70306 0.292305 6.16913 0.334279C4.63521 0.376252 3.17567 1.00434 2.09061 2.08939C1.00556 3.17445 0.377473 4.63399 0.335499 6.16791C0.293526 7.70184 0.840856 9.19354 1.86495 10.3363C2.88904 11.4791 4.31205 12.186 5.84139 12.3118C7.37072 12.4376 8.89013 11.9727 10.0872 11.0126L12.5405 13.466C12.6025 13.5285 12.6762 13.578 12.7575 13.6119C12.8387 13.6457 12.9258 13.6632 13.0139 13.6632C13.1019 13.6632 13.189 13.6457 13.2702 13.6119C13.3515 13.578 13.4252 13.5285 13.4872 13.466C13.6073 13.3417 13.6745 13.1755 13.6745 13.0026C13.6745 12.8297 13.6073 12.6636 13.4872 12.5393ZM6.34719 11.0126C5.42421 11.0126 4.52195 10.7389 3.75452 10.2262C2.9871 9.71338 2.38896 8.98454 2.03575 8.13182C1.68254 7.2791 1.59012 6.34079 1.77019 5.43554C1.95025 4.5303 2.39471 3.69878 3.04735 3.04613C3.7 2.39349 4.53152 1.94903 5.43676 1.76897C6.34201 1.5889 7.28032 1.68132 8.13304 2.03453C8.98576 2.38774 9.7146 2.98587 10.2274 3.7533C10.7402 4.52073 11.0139 5.42299 11.0139 6.34597C11.0139 7.58364 10.5222 8.77063 9.64702 9.6458C8.77185 10.521 7.58486 11.0126 6.34719 11.0126Z" fill="#040921"/>
</svg>
