<svg width="24" height="26" viewBox="0 0 24 26" fill="none" xmlns="http://www.w3.org/2000/svg">
<path d="M17.3338 5.33333C17.8612 5.33333 18.3768 5.17694 18.8153 4.88392C19.2539 4.5909 19.5957 4.17443 19.7975 3.68716C19.9993 3.19989 20.0521 2.66371 19.9492 2.14643C19.8463 1.62914 19.5924 1.15399 19.2194 0.78105C18.8465 0.40811 18.3713 0.154134 17.8541 0.0512404C17.3368 -0.0516535 16.8006 0.00115542 16.3133 0.202989C15.8261 0.404823 15.4096 0.746616 15.1166 1.18515C14.8235 1.62368 14.6671 2.13925 14.6671 2.66667C14.6671 3.37391 14.9481 4.05219 15.4482 4.55229C15.9483 5.05238 16.6266 5.33333 17.3338 5.33333ZM12.9338 20.5333C12.3994 21.2331 11.7 21.7896 10.8982 22.1533C10.0963 22.517 9.21688 22.6765 8.33837 22.6176C7.45986 22.5587 6.6096 22.2832 5.86347 21.8157C5.11735 21.3482 4.49858 20.7032 4.06238 19.9384C3.62618 19.1736 3.38612 18.3126 3.36364 17.4324C3.34116 16.5522 3.53694 15.6801 3.93352 14.894C4.3301 14.1079 4.91514 13.4322 5.63642 12.9272C6.3577 12.4222 7.19279 12.1037 8.06715 12C8.42077 11.9611 8.74445 11.7833 8.967 11.5058C9.18954 11.2282 9.29271 10.8736 9.25381 10.52C9.21491 10.1664 9.03713 9.84269 8.75958 9.62015C8.48203 9.39761 8.12743 9.29444 7.77381 9.33333C5.65208 9.4518 3.66431 10.4083 2.24778 11.9923C0.831259 13.5764 0.102016 15.6583 0.220479 17.78C0.338943 19.9017 1.29541 21.8895 2.87947 23.306C4.46352 24.7226 6.54541 25.4518 8.66714 25.3333C9.90911 25.3333 11.134 25.0442 12.2449 24.4888C13.3557 23.9333 14.322 23.1269 15.0671 22.1333C15.2793 21.8504 15.3704 21.4948 15.3204 21.1448C15.2704 20.7947 15.0834 20.4788 14.8005 20.2667C14.5176 20.0545 14.162 19.9634 13.8119 20.0134C13.4618 20.0634 13.146 20.2504 12.9338 20.5333ZM22.0005 22.6667H20.6671V16C20.6671 15.6464 20.5267 15.3072 20.2766 15.0572C20.0266 14.8071 19.6874 14.6667 19.3338 14.6667H13.2405L15.4938 8.45333V8.04C15.5004 7.96013 15.5004 7.87987 15.4938 7.8C15.5014 7.71573 15.5014 7.63094 15.4938 7.54667C15.4591 7.46845 15.419 7.39272 15.3738 7.32C15.3338 7.24727 15.2845 7.18005 15.2271 7.12C15.1699 7.05217 15.1024 6.99369 15.0271 6.94667C15.0271 6.94667 15.0271 6.86667 14.9205 6.84L8.94714 3.4H8.78714C8.7054 3.36544 8.62058 3.33865 8.53381 3.32H8.00048C7.90784 3.33915 7.81817 3.37054 7.73381 3.41333H7.58714L4.00048 5.50667C3.74557 5.65108 3.54532 5.87542 3.43067 6.14503C3.31603 6.41464 3.29338 6.71451 3.36622 6.99828C3.43906 7.28205 3.60334 7.53393 3.83366 7.715C4.06398 7.89606 4.34753 7.99622 4.64048 8C4.88306 8.00639 5.12278 7.94646 5.33381 7.82667L8.30714 6.09333L12.6271 8.6L10.1071 15.5467C10.1007 15.6176 10.1007 15.689 10.1071 15.76C10.0947 15.8395 10.0947 15.9205 10.1071 16C10.1317 16.171 10.1674 16.3403 10.2138 16.5067L10.3605 16.7067C10.3968 16.7856 10.4464 16.8578 10.5071 16.92C10.5641 16.9676 10.6268 17.0079 10.6938 17.04C10.7732 17.101 10.858 17.1546 10.9471 17.2C11.0925 17.2527 11.2459 17.2798 11.4005 17.28H18.0671V23.9467C18.0671 24.3003 18.2076 24.6394 18.4577 24.8895C18.7077 25.1395 19.0469 25.28 19.4005 25.28H22.0671C22.4208 25.28 22.7599 25.1395 23.01 24.8895C23.26 24.6394 23.4005 24.3003 23.4005 23.9467C23.4005 23.593 23.26 23.2539 23.01 23.0039C22.7599 22.7538 22.4208 22.6133 22.0671 22.6133L22.0005 22.6667Z" fill="#040921"/>
</svg>
