<svg width="14" height="14" viewBox="0 0 14 14" fill="none" xmlns="http://www.w3.org/2000/svg">
<path d="M7.66659 6.33331H3.66659C3.48977 6.33331 3.32021 6.40355 3.19518 6.52858C3.07016 6.6536 2.99992 6.82317 2.99992 6.99998C2.99992 7.17679 3.07016 7.34636 3.19518 7.47138C3.32021 7.59641 3.48977 7.66665 3.66659 7.66665H7.66659C7.8434 7.66665 8.01297 7.59641 8.13799 7.47138C8.26301 7.34636 8.33325 7.17679 8.33325 6.99998C8.33325 6.82317 8.26301 6.6536 8.13799 6.52858C8.01297 6.40355 7.8434 6.33331 7.66659 6.33331ZM10.3333 3.66665H3.66659C3.48977 3.66665 3.32021 3.73688 3.19518 3.86191C3.07016 3.98693 2.99992 4.1565 2.99992 4.33331C2.99992 4.51012 3.07016 4.67969 3.19518 4.80472C3.32021 4.92974 3.48977 4.99998 3.66659 4.99998H10.3333C10.5101 4.99998 10.6796 4.92974 10.8047 4.80472C10.9297 4.67969 10.9999 4.51012 10.9999 4.33331C10.9999 4.1565 10.9297 3.98693 10.8047 3.86191C10.6796 3.73688 10.5101 3.66665 10.3333 3.66665ZM11.6666 0.333313H2.33325C1.80282 0.333313 1.29411 0.544027 0.919038 0.9191C0.543966 1.29417 0.333252 1.80288 0.333252 2.33331V8.99998C0.333252 9.53041 0.543966 10.0391 0.919038 10.4142C1.29411 10.7893 1.80282 11 2.33325 11H10.0599L12.5266 13.4733C12.5889 13.5351 12.6628 13.584 12.744 13.6172C12.8252 13.6503 12.9122 13.6672 12.9999 13.6666C13.0874 13.6689 13.1741 13.6506 13.2533 13.6133C13.375 13.5633 13.4792 13.4784 13.5528 13.3692C13.6263 13.2601 13.6659 13.1316 13.6666 13V2.33331C13.6666 1.80288 13.4559 1.29417 13.0808 0.9191C12.7057 0.544027 12.197 0.333313 11.6666 0.333313ZM12.3333 11.3933L10.8066 9.85998C10.7443 9.79819 10.6704 9.74931 10.5892 9.71613C10.508 9.68296 10.421 9.66614 10.3333 9.66665H2.33325C2.15644 9.66665 1.98687 9.59641 1.86185 9.47138C1.73682 9.34636 1.66659 9.17679 1.66659 8.99998V2.33331C1.66659 2.1565 1.73682 1.98693 1.86185 1.86191C1.98687 1.73688 2.15644 1.66665 2.33325 1.66665H11.6666C11.8434 1.66665 12.013 1.73688 12.138 1.86191C12.263 1.98693 12.3333 2.1565 12.3333 2.33331V11.3933Z" fill="black"/>
</svg>
