<svg id="star" width="8" height="8" viewBox="0 0 8 8" fill="none" xmlns="http://www.w3.org/2000/svg">
<path d="M3.09182 2.29508C3.44652 1.20343 3.62387 0.65761 3.94347 0.62124C3.98103 0.616965 4.01897 0.616965 4.05653 0.62124C4.37613 0.65761 4.55348 1.20343 4.90818 2.29508C5.00654 2.59781 5.05572 2.74917 5.16952 2.84213C5.18414 2.85408 5.19944 2.8652 5.21533 2.87542C5.3389 2.95492 5.49805 2.95492 5.81636 2.95492C6.96419 2.95492 7.5381 2.95492 7.67145 3.24763C7.68713 3.28204 7.69885 3.31811 7.70639 3.35516C7.77056 3.67036 7.30625 4.0077 6.37764 4.68237C6.12013 4.86947 5.99137 4.96301 5.93813 5.09997C5.93128 5.11757 5.92544 5.13555 5.92063 5.15382C5.88321 5.29591 5.93239 5.44728 6.03075 5.75C6.38545 6.84165 6.5628 7.38748 6.32561 7.60475C6.29773 7.63029 6.26705 7.65259 6.23414 7.67121C5.95421 7.82964 5.4899 7.4923 4.56129 6.81763C4.30377 6.63053 4.17502 6.53699 4.02831 6.52867C4.00945 6.5276 3.99055 6.5276 3.97169 6.52867C3.82498 6.53699 3.69623 6.63053 3.43871 6.81763C2.5101 7.4923 2.0458 7.82964 1.76586 7.67121C1.73295 7.65259 1.70227 7.63029 1.67439 7.60475C1.4372 7.38748 1.61455 6.84165 1.96925 5.75C2.06761 5.44728 2.11679 5.29591 2.07937 5.15382C2.07456 5.13555 2.06872 5.11757 2.06187 5.09997C2.00863 4.96301 1.87987 4.86947 1.62236 4.68237C0.693746 4.0077 0.229439 3.67036 0.29361 3.35516C0.301154 3.31811 0.312875 3.28204 0.32855 3.24763C0.4619 2.95492 1.03581 2.95492 2.18364 2.95492C2.50195 2.95492 2.6611 2.95492 2.78467 2.87542C2.80056 2.8652 2.81586 2.85408 2.83049 2.84213C2.94428 2.74917 2.99346 2.59781 3.09182 2.29508Z" fill="url(#paint0_linear_1_25910)"/>
<defs>
<linearGradient id="paint0_linear_1_25910" x1="6.1" y1="-3.28846" x2="-5.14932" y2="1.69222" gradientUnits="userSpaceOnUse">
<stop offset="0.0001" stop-color="#9D50FF"/>
<stop offset="1" stop-color="#583CF0"/>
</linearGradient>
</defs>
</svg>
