<svg width="290" height="203" viewBox="0 0 290 203" fill="none" xmlns="http://www.w3.org/2000/svg">
<path d="M202.104 151.665C199.965 153.266 197.243 153.848 194.715 154.527C191.944 155.304 189.367 156.565 186.742 157.681C183.728 158.991 180.665 159.912 177.408 160.349C175.172 160.64 172.255 160.931 170.602 162.629C170.164 163.066 170.699 163.793 171.282 163.502C172.498 162.823 173.567 162.192 174.929 161.804C176.29 161.416 177.7 161.271 179.109 161.028C182.075 160.543 184.846 159.33 187.568 158.117C190.34 156.856 193.062 155.595 195.979 154.721C198.167 154.042 200.5 153.315 202.299 151.811C202.347 151.762 202.202 151.568 202.104 151.665Z" fill="#7BAEDD"/>
<path d="M197.291 156.081C192.624 159.283 187.228 161.029 181.88 162.775C179.79 163.455 177.699 163.988 175.56 164.619C173.956 165.104 171.331 165.686 170.31 167.141C170.067 167.481 170.456 168.015 170.845 167.869C171.622 167.578 172.254 167.044 173.032 166.705C174.15 166.171 175.366 165.832 176.533 165.492C178.672 164.861 180.811 164.231 182.95 163.503C188.054 161.757 193.208 159.913 197.534 156.614C197.729 156.275 197.534 155.935 197.291 156.081Z" fill="#7BAEDD"/>
<path d="M197.289 162.629C192.962 165.103 188.344 166.753 183.58 168.16C181.343 168.839 179.058 169.421 176.773 170.003C174.537 170.585 172.106 171.07 169.967 171.943C169.481 172.137 169.87 172.817 170.308 172.72C172.544 172.283 174.78 171.41 177.016 170.779C179.399 170.1 181.829 169.372 184.212 168.645C188.83 167.189 193.351 165.394 197.484 162.92C197.678 162.823 197.484 162.532 197.289 162.629Z" fill="#7BAEDD"/>
<path d="M191.018 169.906C187.712 170.973 184.407 171.895 181.052 172.865C177.746 173.787 174.246 174.66 171.183 176.213C170.697 176.455 171.037 177.328 171.572 177.134C174.829 175.921 177.989 174.709 181.295 173.69C184.601 172.671 187.907 171.652 191.116 170.343C191.407 170.197 191.31 169.809 191.018 169.906Z" fill="#7BAEDD"/>
<path d="M189.026 175.679C186.109 176.747 183.338 178.056 180.275 178.784C177.795 179.366 174.733 179.706 172.642 181.355C172.302 181.598 172.691 182.277 173.08 182.083C174.247 181.598 175.413 181.064 176.629 180.676C178.039 180.239 179.497 179.9 180.907 179.512C183.824 178.736 186.449 177.28 189.22 176.067C189.414 175.97 189.22 175.582 189.026 175.679Z" fill="#7BAEDD"/>
<path d="M191.748 179.657C188.637 181.549 184.699 182.373 181.15 183.004C179.449 183.295 177.747 183.586 176.046 184.023C174.733 184.362 173.08 184.799 172.156 185.818C171.865 186.109 172.156 186.739 172.594 186.545C174.101 185.915 175.462 185.235 177.018 184.799C178.671 184.362 180.372 184.071 182.074 183.732C185.428 183.052 189.123 182.034 191.943 180.045C192.235 179.899 191.991 179.511 191.748 179.657Z" fill="#7BAEDD"/>
<path d="M190.241 184.702C187.129 186.206 183.921 187.564 180.663 188.729C179.108 189.311 177.503 189.796 175.899 190.33C174.441 190.815 172.885 191.106 171.475 191.833C170.989 192.076 171.378 192.658 171.815 192.61C173.42 192.367 175.024 191.688 176.58 191.154C178.184 190.621 179.74 190.039 181.295 189.408C184.407 188.195 187.567 186.837 190.435 185.09C190.678 184.945 190.484 184.605 190.241 184.702Z" fill="#7BAEDD"/>
<path d="M184.893 191.203C182.802 192.804 180.323 193.629 177.843 194.357C176.142 194.89 173.906 195.327 172.253 196.297C168.752 195.327 164.766 196.928 161.46 194.987C161.217 194.842 160.974 195.181 161.168 195.375C162.578 196.54 164.28 196.831 166.078 196.976C167.731 197.073 169.433 197.073 171.086 197.267C170.843 197.558 171.134 198.044 171.523 197.898C171.912 197.801 172.253 197.656 172.642 197.461C172.787 197.461 172.933 197.413 173.03 197.267C173.662 196.976 174.246 196.685 174.878 196.443C176.19 195.958 177.503 195.521 178.816 195.084C181.149 194.26 183.337 193.338 185.184 191.64C185.476 191.446 185.136 191.009 184.893 191.203Z" fill="#7BAEDD"/>
<path d="M174.148 197.946C173.322 198.092 172.544 198.334 171.766 198.674C171.328 198.868 171.717 199.547 172.155 199.353C172.836 199.013 173.565 198.771 174.294 198.577C174.683 198.383 174.537 197.849 174.148 197.946Z" fill="#7BAEDD"/>
<path d="M248.335 137.16C248.141 137.209 248.529 137.112 248.529 137.16C248.627 137.16 248.675 137.112 248.773 137.063C249.064 136.966 249.405 136.966 249.745 136.918C250.134 136.869 251.155 136.966 251.398 136.578C251.544 136.336 251.301 136.093 251.057 136.142C251.203 136.045 250.96 136.093 250.814 136.045H250.766C250.766 136.045 250.766 136.045 250.717 136.045C250.571 135.996 250.377 135.996 250.231 135.948C249.793 135.899 249.405 135.851 248.967 135.851C248.384 135.851 247.557 135.996 247.752 136.772C247.8 137.063 248.092 137.209 248.335 137.16Z" fill="#7BAEDD"/>
<path d="M248.19 137.937C247.753 138.228 247.85 139.004 248.482 139.004C249.211 139.004 249.892 138.761 250.621 138.713C251.35 138.664 251.982 138.519 252.566 138.082C252.712 137.985 252.663 137.791 252.468 137.791C251.204 137.791 249.309 137.112 248.19 137.937Z" fill="#7BAEDD"/>
<path d="M252.612 143.904C253.536 143.855 254.8 143.758 255.238 142.837C255.335 142.642 255.043 142.351 254.897 142.545C254.314 143.225 252.467 142.885 251.737 142.837C250.668 142.788 249.404 142.4 248.383 142.642C247.799 142.788 247.799 143.661 248.383 143.807C249.598 144.098 251.3 143.952 252.612 143.904Z" fill="#7BAEDD"/>
<path d="M250.571 135.414C249.745 135.123 249.016 134.687 248.238 134.25C247.703 133.959 247.217 134.735 247.752 135.075C248.578 135.56 249.502 135.754 250.425 135.948C250.766 135.996 250.912 135.511 250.571 135.414Z" fill="#7BAEDD"/>
<path d="M249.112 132.164C249.064 132.601 249.647 132.601 249.793 132.261C250.279 131.048 250.522 129.787 250.96 128.574C251.494 127.07 252.126 125.566 252.758 124.062C253.828 121.588 254.995 119.163 255.967 116.64C256.064 116.398 255.675 116.252 255.578 116.495C254.314 119.163 253.001 121.831 251.737 124.499C250.717 126.828 249.355 129.544 249.112 132.164Z" fill="#7BAEDD"/>
<path d="M252.665 136.53C253.297 134.395 253.588 132.212 254.366 130.078C255.241 127.749 256.359 125.469 257.478 123.238C257.623 122.947 257.234 122.753 257.089 122.995C255.825 125.081 254.609 127.167 253.686 129.447C252.811 131.582 251.741 134.104 251.838 136.433C251.838 136.918 252.519 137.015 252.665 136.53Z" fill="#7BAEDD"/>
<path d="M257.039 129.593C256.553 133.231 254.608 136.433 253.49 139.877C253.442 140.023 253.49 140.217 253.587 140.314C253.636 140.363 253.636 140.363 253.685 140.411C252.032 140.654 250.33 140.217 248.677 140.265C247.802 140.314 247.851 141.527 248.677 141.575C250.476 141.672 252.518 141.769 254.122 140.945C254.268 140.848 254.317 140.702 254.268 140.605C254.365 140.605 254.414 140.557 254.511 140.557C254.949 140.508 255.046 139.926 254.608 139.829C254.511 139.78 254.462 139.78 254.414 139.78C254.462 139.78 254.511 139.78 254.511 139.732C254.657 139.198 254.851 138.665 255.046 138.082C255.386 137.112 255.775 136.142 256.115 135.172C256.796 133.377 257.331 131.533 257.477 129.641C257.525 129.399 257.088 129.302 257.039 129.593Z" fill="#7BAEDD"/>
<path d="M256.406 143.904C257.719 140.896 258.351 137.549 259.566 134.492C259.664 134.201 259.177 134.007 259.08 134.298C257.719 137.306 256.552 140.459 255.629 143.613C255.483 144.049 256.212 144.389 256.406 143.904Z" fill="#7BAEDD"/>
<path d="M268.463 122.705C264.671 127.41 262.921 133.232 260.199 138.568C259.129 140.605 258.108 142.643 257.136 144.778C257.039 145.069 256.796 145.457 256.601 145.893C256.552 145.748 256.455 145.602 256.261 145.602C253.83 145.457 250.864 145.602 248.725 145.36C248.385 145.311 248.093 145.651 248.142 145.942C248.191 147.058 249.844 146.912 250.719 146.864C250.767 147.009 250.864 147.155 251.108 147.252C252.517 147.737 254.559 148.028 256.115 147.494C256.066 147.931 256.164 148.319 256.455 148.561C256.796 148.901 257.428 148.561 257.282 148.076C257.233 147.882 257.525 147.106 257.622 146.864C257.914 145.942 258.303 145.02 258.74 144.147C259.615 142.255 260.539 140.363 261.463 138.519C263.991 133.377 265.546 127.701 268.852 122.947C268.949 122.802 268.609 122.559 268.463 122.705ZM253.879 146.621C254.705 146.524 255.483 146.427 256.309 146.33C256.358 146.33 256.455 146.281 256.504 146.281C256.455 146.378 256.407 146.475 256.407 146.621C255.532 146.718 254.705 146.718 253.879 146.621Z" fill="#7BAEDD"/>
<path d="M126.604 47.074C129.326 40.6219 131.417 33.7818 136.327 28.5425C136.764 28.0573 136.035 27.3296 135.598 27.8148C130.639 33.1511 128.597 40.2339 126.166 46.977C126.069 47.2196 126.507 47.3166 126.604 47.074Z" fill="#7BAEDD"/>
<path d="M135.453 24.9528C129.863 28.6882 128.55 35.965 125.682 41.5924C125.536 41.8835 125.973 42.126 126.119 41.8349C129.085 36.4986 130.543 29.3188 135.988 25.826C136.523 25.4864 135.988 24.6132 135.453 24.9528Z" fill="#7BAEDD"/>
<path d="M124.123 24.5162C124.901 23.4975 125.63 22.4302 126.359 21.4114C127.234 20.1501 128.255 19.0829 129.179 17.8701C129.471 17.482 129.033 16.9968 128.644 17.3364C126.505 19.0829 125.241 21.9936 123.685 24.2736C123.491 24.5647 123.929 24.7588 124.123 24.5162Z" fill="#7BAEDD"/>
<path d="M123.588 20.0045C124.755 17.967 126.067 16.1235 127.769 14.6681C129.665 13.7464 131.464 13.3098 133.603 13.2128C135.742 13.1157 137.929 13.2613 140.069 13.4068C145.416 13.7464 150.861 13.7464 156.014 15.2988C156.257 15.3473 156.306 15.0562 156.112 14.9592C150.91 12.9217 145.27 12.5821 139.777 12.1455C137.346 11.9515 134.964 11.8059 132.533 11.9515C131.853 12 131.123 12.097 130.345 12.2425C130.248 12.194 130.151 12.1455 130.005 12.194C129.714 12.291 129.47 12.3881 129.179 12.5336C128.206 12.8247 127.331 13.2613 126.699 13.989C126.554 14.183 126.505 14.3771 126.554 14.5226C125.095 16.075 123.977 18.064 123.102 19.7619C123.053 20.053 123.442 20.247 123.588 20.0045Z" fill="#7BAEDD"/>
<path d="M161.219 30.7254C157.475 29.5126 153.586 29.1731 149.697 28.785C147.704 28.5909 145.662 28.3969 143.669 28.2513C142.356 28.1543 140.898 28.1543 139.536 28.4454C139.779 28.1058 139.974 27.7662 140.168 27.3781C140.266 27.1356 140.168 26.893 140.022 26.796C142.016 26.6019 143.96 26.7475 146.051 26.893C149.6 27.087 153.197 26.893 156.552 28.1543C156.795 28.2513 156.989 27.8147 156.746 27.7177C153.392 26.2138 149.648 26.2138 146.051 25.9713C142.939 25.7772 138.807 24.8555 136.036 26.796C135.647 27.087 135.89 27.7662 136.376 27.6207C137.397 27.2326 138.418 27.0385 139.439 26.893C138.564 27.7177 137.835 28.6879 137.057 29.6097C136.23 30.5314 135.355 31.4531 134.578 32.4719C133.8 33.4906 133.07 34.6064 132.584 35.8192C132.001 37.2746 131.563 38.7784 130.786 40.1853C130.64 40.4279 130.98 40.6219 131.126 40.3793C132.73 38.0023 133.411 35.2371 135.258 33.0055C136.182 31.8897 137.397 30.871 138.418 29.8037C140.314 29.5126 142.113 29.2216 144.058 29.3671C145.905 29.4641 147.801 29.6582 149.648 29.8037C153.489 30.0463 157.329 30.3374 161.073 31.2106C161.365 31.2591 161.51 30.8225 161.219 30.7254Z" fill="#7BAEDD"/>
<path d="M143.131 23.448C146.68 23.545 150.278 23.7876 153.827 23.7391C154.216 23.7391 154.216 23.1569 153.827 23.1569C150.278 22.9629 146.68 22.6718 143.131 22.4777C141.333 22.3807 139.583 22.3322 137.784 22.3322C136.812 22.3322 135.742 22.2837 134.672 22.3322C134.721 22.0411 134.478 21.653 134.089 21.7501C131.415 22.5748 129.714 25.1944 128.547 27.523C127.234 30.1426 126.505 32.9563 125.484 35.673C125.387 35.9156 125.776 36.0126 125.922 35.77C127.672 31.5495 128.936 26.4557 132.679 23.642C134.332 23.8361 136.18 23.448 137.881 23.3995C139.583 23.351 141.333 23.351 143.131 23.448Z" fill="#7BAEDD"/>
<path d="M167.002 20.9265C155.431 18.7919 143.423 18.6949 131.707 18.8404C131.221 18.8404 131.075 19.3741 131.27 19.6651C129.617 19.8107 128.498 21.7512 127.818 23.0125C126.748 24.953 126.116 27.2815 124.707 29.028C124.512 29.2705 124.852 29.6101 125.047 29.3676C127.526 26.7964 127.915 21.8482 131.561 20.5869C131.853 20.4899 131.95 20.1503 131.853 19.9077C143.569 20.1503 155.237 19.7622 166.856 21.3631C167.148 21.4116 167.293 20.975 167.002 20.9265Z" fill="#7BAEDD"/>
<path d="M137.784 15.4441C135.401 15.6382 132.387 15.9778 130.443 17.4331C130.005 17.7727 130.248 18.5004 130.832 18.3549C131.95 18.0638 133.019 17.5302 134.137 17.2391C135.45 16.851 136.86 16.7055 138.221 16.5599C140.798 16.3174 143.374 16.4144 145.951 16.4144C151.493 16.4629 156.987 16.8025 162.334 18.3549C162.675 18.4519 162.82 17.9668 162.48 17.8212C157.132 16.0263 151.59 15.4441 145.951 15.2986C143.228 15.2986 140.506 15.2501 137.784 15.4441Z" fill="#7BAEDD"/>
<path d="M271.865 54.2534C267.344 53.9138 263.26 51.8763 258.836 51.0516C258.544 51.0031 258.399 51.4397 258.69 51.4882C263.017 52.5555 267.295 55.3692 271.865 55.3207C272.594 55.3692 272.594 54.3019 271.865 54.2534Z" fill="#7BAEDD"/>
<path d="M273.374 51.6337C271.526 50.5179 268.998 50.3723 266.859 50.1783C264.331 49.9357 261.803 49.8387 259.324 49.3536C259.081 49.3051 258.984 49.6447 259.227 49.7417C261.269 50.4694 263.408 50.6634 265.595 50.906C266.859 51.0515 268.075 51.197 269.29 51.4396C270.554 51.6822 271.769 52.2158 272.985 52.5069C273.568 52.6524 273.86 51.9247 273.374 51.6337Z" fill="#7BAEDD"/>
<path d="M268.607 47.4623C270.26 47.5593 271.476 47.9474 272.934 48.6751C273.323 48.8692 273.809 48.4811 273.566 48.0445C272.886 46.9772 271.281 46.7346 270.114 46.5406C268.607 46.3465 267.052 46.3465 265.496 46.2495C263.454 46.104 261.412 45.8129 259.37 45.6674C257.086 45.4733 254.849 45.2793 252.613 44.7456C252.273 44.6486 252.127 45.1337 252.467 45.2793C256.308 46.6376 260.44 46.5891 264.475 47.1712C265.836 47.3168 267.198 47.3653 268.607 47.4623Z" fill="#7BAEDD"/>
<path d="M270.747 43.9688C268.9 43.3867 266.955 43.1441 265.059 42.9016C261.073 42.465 257.038 42.4164 253.003 41.9798C252.711 41.9313 252.711 42.3679 252.954 42.4164C256.503 43.3382 260.295 43.3382 263.892 43.6777C265.886 43.8718 267.83 44.2114 269.726 44.745C270.65 44.9876 271.476 45.3272 272.351 45.7153C273.227 46.1034 274.004 46.734 274.928 47.1221C275.414 47.3162 275.852 46.831 275.511 46.3944C274.345 45.1331 272.351 44.5025 270.747 43.9688Z" fill="#7BAEDD"/>
<path d="M272.691 40.4757C270.309 39.845 267.83 39.5054 265.399 39.1173C262.628 38.6322 259.857 38.2441 257.037 37.9045C254.509 37.6135 251.69 37.2739 249.113 37.8075C248.87 37.856 248.967 38.1471 249.162 38.1956C251.495 38.3897 253.877 38.4382 256.211 38.6807C258.933 38.9718 261.607 39.4084 264.281 39.942C266.517 40.3301 268.705 40.7667 270.941 41.2519C272.74 41.64 274.49 42.0281 275.754 43.3864C276.046 43.6775 276.581 43.4834 276.581 43.0468C276.532 41.3489 273.955 40.8153 272.691 40.4757Z" fill="#7BAEDD"/>
<path d="M277.456 38.7782C275.56 37.5654 272.935 37.1288 270.796 36.5952C268.414 36.013 266.031 35.5764 263.601 35.2854C258.496 34.6062 253.392 34.3636 248.238 34.2666C247.947 34.2666 247.947 34.7032 248.238 34.7517C253.148 35.1883 258.107 35.5279 263.017 36.2556C265.399 36.5952 267.733 37.0803 270.018 37.6624C271.185 37.9535 272.351 38.2931 273.518 38.6812C274.685 39.0693 275.852 39.6514 277.019 39.8455C277.602 39.8455 277.991 39.1178 277.456 38.7782Z" fill="#7BAEDD"/>
<path d="M273.177 34.5094C271.038 33.8788 268.802 33.5392 266.663 32.957C266.371 32.86 266.177 33.2966 266.469 33.4422C270.017 34.9945 274.15 35.0431 277.067 37.8082C277.456 38.1963 278.136 37.7112 277.844 37.2261C276.872 35.6737 274.879 34.9945 273.177 34.5094Z" fill="#7BAEDD"/>
<path d="M270.312 59.2508C266.52 57.4073 262.096 56.8737 258.109 55.6124C257.866 55.5153 257.769 55.9034 258.012 56.0005C260.005 56.7281 261.998 57.3588 264.04 57.9409C266.082 58.5231 268.027 59.2993 270.02 59.8814C270.409 60.027 270.7 59.4448 270.312 59.2508Z" fill="#7BAEDD"/>
<path d="M269.242 61.4329C266.811 60.4141 263.651 59.3954 261.026 60.3171C260.734 60.4141 260.88 60.8507 261.172 60.7537C263.797 60.0745 266.617 61.3843 269.048 62.1605C269.534 62.4031 269.68 61.6269 269.242 61.4329Z" fill="#7BAEDD"/>
<path d="M268.706 65.023C267.101 64.5863 265.497 64.3438 263.893 63.8587C263.552 63.7616 263.455 64.2468 263.747 64.3923C265.303 64.9744 266.858 65.4596 268.511 65.7506C268.949 65.7506 269.143 65.12 268.706 65.023Z" fill="#7BAEDD"/>
<path d="M266.52 67.8852C266.86 68.0307 267.006 67.4486 266.665 67.303C266.131 67.109 265.645 67.012 265.061 67.012C264.672 67.012 264.672 67.6426 265.061 67.5941C265.596 67.6426 266.082 67.7396 266.52 67.8852Z" fill="#7BAEDD"/>
<path d="M109.101 91.6564C109.004 91.5593 108.955 91.5107 108.858 91.4136C108.76 91.3165 108.614 91.4622 108.712 91.5593C108.809 91.6564 108.858 91.705 108.955 91.8021C109.052 91.8992 109.198 91.7535 109.101 91.6564Z" fill="#7BAEDD"/>
<path d="M107.982 99.8064C108.274 100.146 108.857 99.8064 108.712 99.3698C107.642 96.5561 108.857 92.8692 110.705 90.5891C110.899 90.3466 110.608 90.104 110.413 90.2981C109.052 91.4623 108.274 93.3058 107.788 95.0037C107.35 96.4106 106.913 98.5451 107.982 99.8064Z" fill="#7BAEDD"/>
<path d="M107.839 90.2494C106.04 92.384 104.776 96.0709 105.554 98.8361C105.7 99.3212 106.478 99.2242 106.478 98.6905C106.381 95.7798 106.575 93.0631 108.277 90.5405C108.423 90.3465 108.034 90.0069 107.839 90.2494Z" fill="#7BAEDD"/>
<path d="M104.581 89.0364C102.734 91.3165 100.886 95.9736 102.637 98.7388C102.928 99.2239 103.658 98.7873 103.414 98.3022C102.15 95.5855 103.414 91.7046 105.019 89.376C105.165 89.0849 104.776 88.7938 104.581 89.0364Z" fill="#7BAEDD"/>
<path d="M101.811 87.2903C100.352 88.6001 99.4771 90.3951 98.8451 92.2385C98.3589 93.6939 97.6297 96.265 98.4076 97.7204C98.5534 98.0114 98.9909 97.9144 99.0882 97.6233C99.234 96.9927 99.1368 96.362 99.1368 95.7314C99.1854 94.7611 99.3799 93.7909 99.5743 92.8207C100.012 90.9772 100.838 89.0852 102.151 87.6784C102.394 87.3873 102.054 87.0477 101.811 87.2903Z" fill="#7BAEDD"/>
<path d="M95.9274 93.9853C95.9274 91.7052 96.6566 89.6677 97.8234 87.7757C97.9206 87.5817 97.6776 87.4362 97.5317 87.6302C96.1705 89.5222 95.344 91.6082 95.3927 93.9853C95.4413 94.3249 95.9274 94.3249 95.9274 93.9853Z" fill="#7BAEDD"/>
<path d="M114.11 101.165C114.937 99.2732 115.228 97.0901 115.763 95.1011C116.395 92.8211 117.173 90.638 118.243 88.552C118.34 88.358 118.048 88.1639 117.951 88.358C116.735 90.2984 115.909 92.336 115.228 94.4705C114.548 96.5565 113.819 98.8366 113.527 100.971C113.478 101.311 113.964 101.456 114.11 101.165Z" fill="#7BAEDD"/>
<path d="M116.686 101.747C116.783 100.292 117.123 98.9333 117.61 97.575C118.096 96.3137 118.582 95.0524 118.776 93.694C118.825 93.5 118.485 93.4515 118.387 93.6455C117.61 96.2652 115.616 98.9333 115.957 101.747C116.005 102.232 116.637 102.232 116.686 101.747Z" fill="#7BAEDD"/>
<path d="M119.456 103.639C120.039 101.456 121.011 99.0302 120.574 96.7017C120.525 96.5076 120.185 96.5561 120.185 96.7502C120.379 99.0787 119.067 101.262 118.775 103.542C118.678 103.93 119.358 103.978 119.456 103.639Z" fill="#7BAEDD"/>
<path d="M121.158 104.512C121.255 103.785 121.401 103.057 121.644 102.329C121.79 101.941 121.206 101.796 121.06 102.184C120.769 102.96 120.574 103.736 120.574 104.512C120.574 104.901 121.109 104.901 121.158 104.512Z" fill="#7BAEDD"/>
<path d="M222.522 117.61C222.522 117.319 222.084 117.319 222.084 117.61C222.084 119.454 221.209 121.103 221.015 122.898C220.966 123.238 221.501 123.286 221.598 122.995C222.084 121.2 222.619 119.405 222.522 117.61Z" fill="#7BAEDD"/>
<path d="M224.419 124.887C224.468 122.171 225.927 119.648 227.045 117.222C227.191 116.883 226.753 116.64 226.559 116.931C225.246 119.308 223.447 122.025 223.69 124.839C223.739 125.324 224.419 125.372 224.419 124.887Z" fill="#7BAEDD"/>
<path d="M231.611 113.729C229.958 117.707 227.576 121.685 227.527 126.1C227.527 126.585 228.159 126.536 228.208 126.1C228.743 121.782 230.687 117.901 232.146 113.875C232.292 113.535 231.708 113.39 231.611 113.729Z" fill="#7BAEDD"/>
<path d="M236.911 111.498C235.939 116.301 231.952 120.376 231.758 125.373C231.758 125.809 232.39 125.858 232.487 125.47C233.119 122.899 233.945 120.618 235.112 118.193C236.133 116.058 237.057 113.924 237.446 111.595C237.446 111.304 236.96 111.159 236.911 111.498Z" fill="#7BAEDD"/>
<path d="M240.897 110.285C240.654 112.953 239.05 115.427 238.078 117.901C236.96 120.715 235.987 123.577 235.21 126.488C235.064 127.022 235.842 127.216 235.987 126.682C236.96 123.82 237.835 120.958 238.856 118.096C239.779 115.573 241.286 113.002 241.384 110.237C241.481 109.945 240.946 109.994 240.897 110.285Z" fill="#7BAEDD"/>
<path d="M240.317 126.73C242.942 120.472 246.588 114.554 247.998 107.859C248.095 107.519 247.56 107.374 247.463 107.714C245.859 114.36 242.018 120.181 239.539 126.536C239.393 127.021 240.122 127.167 240.317 126.73Z" fill="#7BAEDD"/>
<path d="M250.475 106.986C248.044 114.118 244.155 120.667 241.821 127.798C241.675 128.235 242.356 128.38 242.502 127.992C245.321 121.055 248.773 114.312 250.961 107.132C251.107 106.792 250.62 106.647 250.475 106.986Z" fill="#7BAEDD"/>
<path d="M250.96 111.983C249.744 118.047 245.952 123.238 244.591 129.302C244.494 129.787 245.223 129.981 245.32 129.496C246.876 123.529 250.473 118.241 251.543 112.128C251.592 111.74 251.008 111.595 250.96 111.983Z" fill="#7BAEDD"/>
<path d="M56.6476 157.827C56.5018 157.633 56.2587 157.778 56.2101 157.972C55.9184 157.924 55.6267 157.827 55.2864 157.778C54.3141 157.584 53.1959 157.39 52.0292 157.051C51.7375 156.614 51.3972 156.226 51.0569 155.886C50.911 155.741 50.6679 155.935 50.7652 156.129C50.911 156.371 51.0569 156.565 51.1541 156.808C48.8692 156.032 46.7787 154.722 46.5357 152.248C46.487 151.763 45.7578 151.763 45.7578 152.248C45.8064 153.412 46.1467 154.334 46.7301 155.11C47.0218 158.894 51.5916 160.883 54.6544 161.999C54.9947 162.241 55.4322 162.484 55.8698 162.678C56.0156 162.726 56.1615 162.678 56.2587 162.581C57.4255 162.969 58.5922 163.26 59.759 163.551C60.0021 163.745 60.2938 163.842 60.6341 163.988C60.8285 164.036 60.9744 163.988 61.0716 163.891C61.9953 164.133 62.9676 164.327 63.8913 164.521C64.3288 164.91 64.8636 165.249 65.447 165.443C65.7873 165.54 65.9817 165.201 65.8845 164.958C66.6623 165.104 67.3916 165.298 68.1208 165.492C68.7528 165.637 69.3848 165.783 70.0168 165.977C70.2599 166.219 70.4543 166.462 70.746 166.704C71.0863 166.996 71.5239 166.704 71.4753 166.365C73.274 166.801 75.0242 167.19 76.8229 167.578C76.9202 167.626 77.0174 167.723 77.1146 167.772C77.2605 167.869 77.4549 167.82 77.5522 167.723C81.0038 168.402 84.4555 168.985 87.9558 169.179C88.1016 169.276 88.2475 169.373 88.442 169.47C88.685 169.615 88.9767 169.421 89.0253 169.227C89.5115 169.227 90.0463 169.276 90.5324 169.276C91.6506 169.276 92.7687 169.324 93.9355 169.373C95.1509 170.488 97.1441 170.585 98.8942 170.537C100.353 170.488 101.811 170.343 103.124 169.712C103.804 169.373 104.388 168.888 104.923 168.354C106.381 167.917 107.742 167.238 109.006 166.365C109.59 165.928 109.103 165.055 108.423 165.395C108.131 165.54 107.839 165.686 107.499 165.831C107.305 165.492 106.916 165.298 106.527 165.54C106.478 165.54 106.43 165.54 106.381 165.54C103.561 165.831 100.839 165.783 98.0678 165.346C95.1509 164.861 92.3312 164.036 89.4629 163.26C86.7404 162.532 83.9694 161.902 81.1497 161.562C77.9411 161.223 74.6839 161.223 71.4266 160.98C66.4193 160.592 61.6064 159.185 56.6962 158.166C56.7448 158.021 56.6962 157.924 56.6476 157.827ZM47.2649 155.741C48.4803 156.905 50.1818 157.633 51.8347 158.118C52.2722 158.991 52.7098 159.816 53.2446 160.592C50.7166 159.622 48.2372 158.166 47.2649 155.741ZM55.0919 161.271C54.1682 160.495 53.5362 159.476 52.9042 158.457C54.1682 158.797 55.4322 159.04 56.6962 159.282C57.1824 160.252 57.6199 161.32 58.3005 162.193C57.7171 162.047 57.0852 161.853 56.5018 161.708C56.0642 161.562 55.5781 161.417 55.0919 161.271ZM64.0857 163.503C63.1134 162.532 62.287 161.368 61.3147 160.349C63.4537 160.883 65.5928 161.417 67.7805 161.756C67.5374 161.756 67.343 161.95 67.4888 162.241C67.9263 163.018 68.4125 163.842 68.9473 164.57C67.343 164.182 65.69 163.842 64.0857 163.503ZM100.207 169.518C98.8942 169.712 97.0468 169.858 95.6856 169.324C97.7761 169.324 99.9151 169.276 102.006 168.985C101.422 169.227 100.839 169.373 100.207 169.518ZM78.8648 162.629C82.2678 162.823 85.525 163.503 88.8309 164.376C93.6438 165.637 99.0401 167.529 104.145 167.044C102.638 167.481 101.131 167.723 99.5262 167.869C97.7275 168.014 95.9287 168.014 94.0813 168.014C93.9841 167.869 93.8869 167.675 93.8382 167.481C93.6438 166.947 92.8173 167.19 93.0118 167.723C93.0604 167.82 93.0604 167.917 93.109 168.014C92.2339 168.014 91.4075 167.966 90.581 167.966C89.706 167.966 88.8309 167.917 87.9558 167.869C87.3724 167.141 86.9835 166.316 87.0321 165.298C87.0321 164.764 86.2543 164.764 86.2057 165.298C86.1084 166.219 86.3029 167.044 86.7404 167.772C85.8167 167.723 84.893 167.626 83.9694 167.481C83.9694 167.287 83.8235 167.093 83.5804 167.141C82.0734 167.19 81.7331 165.637 81.4414 164.424C81.2955 163.891 80.5663 164.133 80.6635 164.667C80.8094 165.443 81.0524 166.462 81.5386 167.19C79.8857 166.947 78.2328 166.607 76.5798 166.268C75.6562 165.346 75.0242 164.133 74.4894 162.921C74.3435 162.629 73.906 162.823 74.0032 163.115C74.3435 164.133 74.7325 165.152 75.2672 165.977C73.6143 165.637 71.9128 165.249 70.2599 164.861C69.4334 163.891 68.7042 162.921 67.975 161.853C67.9263 161.756 67.8291 161.756 67.7805 161.708C68.1694 161.756 68.5583 161.853 68.9473 161.902C72.2531 162.387 75.5589 162.387 78.8648 162.629ZM58.6408 159.67C59.3701 159.816 60.0507 160.01 60.7799 160.204C60.7313 160.252 60.7313 160.349 60.7799 160.446C61.4605 161.32 62.0439 162.338 62.7245 163.212C61.8981 163.018 61.0716 162.872 60.2938 162.678C59.2728 161.756 58.5922 160.64 57.863 159.525C58.0575 159.525 58.3491 159.622 58.6408 159.67Z" fill="#7BAEDD"/>
<path d="M91.2621 161.804C94.6165 163.162 98.5543 163.259 102.103 162.871C105.263 162.58 109.59 161.659 111.34 158.651C111.535 158.311 111.048 157.923 110.757 158.214C108.277 160.64 104.826 161.367 101.471 161.61C98.1654 161.804 94.7624 161.513 91.5538 160.737C97.4848 161.416 103.416 161.173 109.055 158.942C109.298 158.845 109.201 158.457 108.958 158.505C105.798 159.427 102.638 160.058 99.3322 160.155C95.9777 160.252 92.6719 159.912 89.3661 159.524C88.8799 159.475 88.7827 160.3 89.2688 160.397C89.9494 160.494 90.6787 160.591 91.3593 160.688C90.8245 160.737 90.6787 161.61 91.2621 161.804Z" fill="#7BAEDD"/>
<path d="M41.4777 148.658C44.2001 151.229 48.0894 151.86 51.541 153.024C52.2216 153.267 52.4647 152.199 51.8327 151.957C49.013 150.792 45.9503 150.307 43.3737 148.706C41.2832 147.445 37.9774 143.952 38.8525 141.284C38.9497 140.993 38.5608 140.896 38.4149 141.09C36.6648 143.467 39.8248 147.105 41.4777 148.658Z" fill="#7BAEDD"/>
<path d="M32.581 142.06C31.317 143.176 30.3447 144.049 28.6918 143.079C28.157 142.739 27.7195 142.303 27.3305 141.818C27.0389 141.478 26.3096 141.041 26.7958 140.799C26.893 140.75 26.8444 140.508 26.7472 140.556C26.6499 140.556 26.5527 140.556 26.4555 140.508C26.3096 140.459 26.2124 140.459 26.1152 140.605C25.7262 141.138 26.3582 141.915 26.6499 142.4C27.1847 143.224 27.8653 143.904 28.6918 144.437C30.4905 145.505 32.581 144.437 33.5533 142.836C33.8936 142.157 33.1158 141.624 32.581 142.06Z" fill="#7BAEDD"/>
<path d="M136.568 167.19C135.013 168.5 132.873 169.421 131.123 167.869C129.47 166.365 130.394 164.085 129.227 162.484C129.13 162.339 128.936 162.436 128.984 162.581C129.179 163.697 128.887 164.958 129.081 166.123C129.276 167.335 129.859 168.5 130.832 169.227C132.971 170.828 135.742 169.906 137.297 167.966C137.784 167.432 137.152 166.753 136.568 167.19Z" fill="#7BAEDD"/>
<path d="M172.351 201.002C171.671 200.857 170.99 200.857 170.309 200.808C169.386 200.711 168.413 200.469 167.538 200.226C165.837 199.741 164.184 199.013 162.531 198.334C159.663 197.17 156.211 195.617 153.051 196.248C152.759 196.297 152.857 196.685 153.1 196.685C154.801 196.879 156.405 197.073 158.058 197.606C159.808 198.189 161.51 198.965 163.212 199.692C164.67 200.323 166.128 200.905 167.636 201.39C169.045 201.827 170.941 202.361 172.4 201.973C172.837 201.827 172.837 201.099 172.351 201.002Z" fill="#7BAEDD"/>
<path d="M9.24842 152.733C7.78996 152.151 6.38012 151.569 4.97028 150.89C3.7549 150.307 2.68537 149.434 1.42137 148.998C0.886607 148.803 0.594915 149.483 0.935222 149.871C1.71306 150.744 2.97706 151.278 4.04659 151.763C5.31059 152.345 6.57458 152.83 7.88719 153.315C10.7069 154.382 13.5266 155.353 16.0545 157.002C16.2976 157.148 16.5893 156.808 16.3462 156.614C14.2072 154.916 11.7278 153.752 9.24842 152.733Z" fill="#7BAEDD"/>
<path d="M1.71197 146.572C3.75381 148.464 6.96241 149.094 9.53902 149.725C9.87932 149.822 9.97656 149.337 9.68486 149.191C8.5181 148.706 7.35134 148.27 6.23319 147.785C4.87196 147.251 3.65658 146.426 2.34397 145.747C1.8092 145.505 1.27443 146.184 1.71197 146.572Z" fill="#7BAEDD"/>
<path d="M6.52316 145.747C6.86346 145.844 7.00931 145.311 6.669 145.214C6.28008 145.068 5.89116 144.923 5.50224 144.729C5.11332 144.535 4.82162 145.117 5.16193 145.262C5.59947 145.456 6.037 145.602 6.52316 145.747Z" fill="#7BAEDD"/>
<path d="M73.0801 129.35C76.1914 128.38 79.3514 127.603 82.5114 126.924C84.1157 126.585 85.7686 126.099 87.3729 126.002C88.248 125.954 89.1717 126.051 90.0468 125.954C90.0468 126.148 90.1926 126.294 90.4357 126.342C92.7692 126.585 95.1027 127.215 97.096 128.477C97.3877 128.671 97.6307 128.186 97.3877 127.991C95.6861 126.682 93.5957 125.857 91.4566 125.663C91.8941 125.372 91.6997 124.596 91.0677 124.741C89.7065 125.032 88.3938 125.081 87.0326 125.226C85.6228 125.372 84.2129 125.857 82.8517 126.197C79.5459 127.021 76.2887 127.943 73.0314 129.059C72.7398 129.059 72.837 129.398 73.0801 129.35Z" fill="#7BAEDD"/>
<path d="M76.0424 125.615C78.5704 125.567 81.0012 124.305 83.2375 123.287C84.6473 122.656 86.1058 122.025 87.6128 121.637C88.2935 121.443 88.9741 121.395 89.6547 121.395C89.995 121.395 90.3353 121.492 90.627 121.589C90.5784 121.734 90.627 121.88 90.8214 121.977C93.2522 123.044 96.1205 122.753 98.5026 124.014C98.6971 124.111 98.7943 123.869 98.6485 123.772C96.8011 122.365 94.2731 121.783 91.9882 121.395C91.9882 121.298 91.9396 121.201 91.8424 121.104C90.0922 119.503 86.6405 120.91 84.7932 121.686C81.9735 122.899 79.008 124.985 75.8966 125.179C75.7507 125.13 75.7507 125.615 76.0424 125.615Z" fill="#7BAEDD"/>
<path d="M83.1886 119.599C86.1055 118.629 88.9738 118.823 91.9394 118.483C92.3769 118.435 92.3769 117.853 91.9394 117.804C89.1197 117.513 85.7166 118.192 83.0914 119.163C82.7511 119.211 82.8969 119.648 83.1886 119.599Z" fill="#7BAEDD"/>
<path d="M87.1263 114.7C87.9042 114.7 88.6334 114.7 89.4112 114.7C89.8974 114.7 89.8974 113.972 89.4112 113.972C88.6334 113.972 87.9042 113.972 87.1263 113.972C86.6402 113.972 86.6402 114.7 87.1263 114.7Z" fill="#7BAEDD"/>
<path d="M93.3028 124.499C95.296 125.081 97.4351 125.421 99.4283 125.906C101.47 126.439 103.463 127.021 105.408 127.846C105.651 127.943 105.846 127.555 105.602 127.409C103.706 126.488 101.713 125.76 99.6228 125.178C97.5809 124.596 95.4905 123.965 93.4 123.674C92.9625 123.674 92.9139 124.402 93.3028 124.499Z" fill="#7BAEDD"/>
<path d="M91.9414 119.405C92.9137 119.356 93.9347 119.405 94.907 119.599C95.1986 119.647 95.3445 119.211 95.0528 119.114C94.0319 118.871 93.011 118.677 91.9414 118.774C91.5039 118.823 91.5039 119.453 91.9414 119.405Z" fill="#7BAEDD"/>
<path d="M233.704 132.795C230.009 132.213 226.655 130.757 223.106 129.641C222.814 129.544 222.668 130.03 222.96 130.127C226.314 131.388 229.912 133.522 233.606 133.522C234.044 133.522 234.141 132.892 233.704 132.795Z" fill="#7BAEDD"/>
<path d="M229.961 134.832C227.628 134.25 225.197 134.25 222.863 133.717C222.572 133.668 222.426 134.105 222.718 134.202C225.003 134.929 227.385 135.172 229.718 135.56C230.204 135.609 230.399 134.929 229.961 134.832Z" fill="#7BAEDD"/>
<path d="M225.586 136.336C224.614 136.385 223.641 136.288 222.669 136.094C222.28 135.997 222.086 136.579 222.523 136.676C223.544 136.918 224.565 137.064 225.634 136.967C225.975 136.967 226.023 136.336 225.586 136.336Z" fill="#7BAEDD"/>
<path d="M240.118 130.03C234.527 127.507 228.013 127.653 222.082 126.246C221.936 126.197 221.888 126.44 222.033 126.488C224.902 127.604 227.964 127.992 230.979 128.477C233.993 128.963 236.958 129.642 239.827 130.806C240.264 131 240.556 130.224 240.118 130.03Z" fill="#7BAEDD"/>
<path d="M91.7944 130.951C93.4473 130.806 95.1002 130.903 96.7045 130.757C97.0934 130.709 97.2393 130.126 96.8017 130.029C93.5445 129.544 89.8011 130.321 86.5925 130.951C83.1895 131.582 79.6892 132.455 76.5292 133.813C76.3833 133.862 76.4806 134.104 76.6264 134.056C79.8836 133.183 83.0436 132.261 86.3494 131.679C88.1482 131.339 89.947 131.145 91.7944 130.951Z" fill="#7BAEDD"/>
<path d="M84.9385 135.753C86.8345 133.91 89.8 133.619 92.2308 132.988C95.3908 132.115 98.4049 131.387 101.711 131.048C102.197 130.999 102.197 130.32 101.711 130.271C98.4049 129.932 94.856 131.436 91.7446 132.406C89.3139 133.182 86.4456 133.522 84.744 135.608C84.6954 135.705 84.8413 135.85 84.9385 135.753Z" fill="#7BAEDD"/>
<path d="M97.4336 134.444C97.1419 134.444 97.1419 134.881 97.4336 134.929C100.642 135.172 103.705 134.007 106.816 133.522C107.205 133.474 107.108 132.795 106.719 132.843C103.608 133.134 100.642 134.444 97.4336 134.444Z" fill="#7BAEDD"/>
<path d="M112.067 134.25C110.657 134.25 109.248 134.395 107.886 134.104C107.449 134.007 107.254 134.638 107.692 134.783C109.102 135.317 110.56 135.172 112.067 135.123C112.602 135.075 112.602 134.25 112.067 134.25Z" fill="#7BAEDD"/>
<path d="M184.698 150.599C182.267 151.132 180.031 152.151 177.698 153.024C177.357 153.121 177.503 153.606 177.843 153.509C180.226 152.879 182.559 152.103 184.941 151.375C185.427 151.229 185.184 150.502 184.698 150.599Z" fill="#7BAEDD"/>
<path d="M20.9638 115.476C17.9983 115.718 15.0327 116.058 12.1158 116.543C9.68506 116.98 6.03892 117.804 5.11523 120.424C4.92077 121.006 5.74723 121.249 6.03892 120.812C7.74045 118.532 10.6088 117.901 13.2826 117.416C14.741 117.174 16.1995 116.98 17.658 116.786C18.8247 116.64 20.0401 116.543 21.1582 116.058C21.4013 116.009 21.2555 115.476 20.9638 115.476Z" fill="#7BAEDD"/>
<path d="M14.8361 120.473C16.5863 120.23 18.385 120.327 20.1838 120.133C20.5727 120.084 20.5727 119.599 20.1838 119.551C18.2878 119.308 16.3432 119.308 14.4472 119.502C12.7943 119.696 10.8011 120.084 9.53706 121.249C9.19675 121.54 9.53706 122.17 9.97459 122.025C11.6275 121.443 13.0374 120.715 14.8361 120.473Z" fill="#7BAEDD"/>
<path d="M22.0321 121.88C20.1847 121.346 17.8998 121.831 16.6358 123.335C16.2955 123.723 16.8302 124.305 17.2192 123.917C18.629 122.559 20.2333 122.607 22.0321 122.365C22.2751 122.316 22.2265 121.928 22.0321 121.88Z" fill="#7BAEDD"/>
<path d="M133.312 156.177C133.118 156.177 132.972 156.226 132.826 156.371C132.631 156.371 132.486 156.371 132.291 156.42C130.395 156.711 129.131 157.73 128.451 159.476C127.041 163.114 128.791 168.548 133.166 168.839C136.278 169.081 137.979 165.54 138.319 162.969C138.708 159.961 136.764 156.177 133.312 156.177ZM134.43 166.995C131.805 168.499 129.812 164.812 129.617 162.726C129.471 161.368 129.666 159.525 130.687 158.506C131.076 158.118 132.097 157.487 132.923 157.342C132.972 157.39 133.069 157.439 133.166 157.487C133.458 157.584 133.701 157.681 133.944 157.827C133.944 157.924 133.993 158.021 133.993 158.118C133.993 158.263 134.187 158.263 134.236 158.166C134.236 158.118 134.284 158.069 134.284 157.972C134.916 158.263 135.5 158.603 135.937 159.233C136.521 160.01 136.764 161.028 136.812 161.999C136.861 163.794 136.083 166.025 134.43 166.995Z" fill="#040921"/>
<path d="M131.709 158.506C131.028 158.748 131.126 159.718 131.904 159.815C131.223 161.804 130.931 166.85 133.508 166.122C135.307 165.588 135.112 163.357 134.772 161.95C134.48 160.834 133.362 157.875 131.709 158.506ZM133.07 164.812C132.584 164.715 132.39 162.775 132.341 162.435C132.292 161.756 132.292 160.931 132.438 160.204C132.876 160.834 133.168 161.95 133.313 162.387C133.459 162.92 133.556 163.454 133.508 163.988C133.508 164.23 133.119 164.812 133.07 164.812Z" fill="#040921"/>
<path d="M29.7622 131.97C29.2761 131.824 28.7413 132.115 28.2551 132.503C27.0884 133.474 26.2619 135.075 25.873 136.53C25.4355 138.179 26.4078 140.265 27.4773 141.527C28.6441 142.933 30.4428 143.758 32.2416 142.982C37.1517 140.702 34.0403 131.291 29.7622 131.97ZM30.1025 139.877C28.5954 139.683 28.7413 136.821 29.1788 135.366C30.1997 136.433 30.2484 138.373 30.1025 139.877ZM32.193 140.896C31.2207 142.012 30.1511 141.769 29.2761 140.993C29.7136 141.284 30.297 141.381 30.9776 141.284C31.3179 141.236 31.4637 140.896 31.5124 140.556C31.6582 139.344 31.6096 132.649 28.9358 134.153C28.6441 134.298 28.5954 134.589 28.7413 134.88C27.8662 136.239 27.6718 138.616 28.4496 140.071C27.769 139.15 27.2828 138.034 27.1856 137.258C27.0884 136.675 27.6231 134.929 28.3524 133.765C28.401 133.765 28.401 133.765 28.4496 133.765C29.2761 133.668 30.1511 133.425 30.9776 133.813C31.7554 134.201 32.2902 135.026 32.6305 135.802C33.1653 137.355 33.3597 139.586 32.193 140.896Z" fill="#040921"/>
<path d="M122.52 156.371C122.568 156.032 122.228 155.644 121.936 155.595C120.332 155.304 118.242 154.285 116.394 154.285C116.589 153.606 116.151 152.685 115.568 152.248C114.596 151.52 113.04 151.569 111.922 151.666C111.144 151.714 109.685 151.957 108.324 152.393C106.623 151.375 103.706 149.774 101.761 150.841C100.449 151.569 99.9137 153.8 100.254 155.547C99.9624 155.498 99.6707 155.45 99.4276 155.45C98.4553 155.353 97.5316 155.304 96.5593 155.207C94.3716 155.013 92.2325 154.625 90.0935 154.237C82.0233 152.782 74.0018 150.89 65.9803 149.289C63.501 148.804 61.0216 148.173 58.5908 147.445C58.7367 147.3 58.8825 147.106 58.9311 146.912C59.1256 146.087 59.1256 145.165 59.1256 144.292C59.1256 143.661 59.32 142.691 58.9311 142.157C57.8616 140.751 55.3336 140.557 53.7293 140.411C53.5835 140.411 53.4862 140.362 53.3404 140.362C53.3404 140.314 53.389 140.265 53.389 140.217C53.7779 137.646 50.9096 136.433 48.8192 136.53C47.6524 136.627 46.5829 136.967 45.5133 137.403C43.5687 136.773 41.4783 136.87 39.7767 138.131C39.7281 138.131 39.7281 138.179 39.7281 138.179C39.5823 138.228 39.485 138.276 39.3392 138.325C36.8598 139.441 36.2764 142.449 36.7626 144.923C36.7626 144.971 36.714 145.02 36.714 145.068C36.4223 146.184 37.7349 147.251 38.4155 147.979C39.3878 148.998 40.5546 149.822 41.7213 150.599C44.1035 152.054 46.8259 152.976 49.4998 153.703C52.3195 154.431 55.1391 154.965 58.0074 155.547C61.3619 156.274 64.6677 157.293 68.0222 158.021C71.9114 158.846 75.8006 159.331 79.6898 160.01C83.579 160.689 87.3224 161.902 91.163 162.727C92.9618 163.115 94.7605 163.309 96.5593 163.697C98.4067 164.133 100.157 164.522 102.101 164.473C103.706 164.376 105.31 164.182 106.914 164.036C107.4 165.201 108.762 165.492 110.026 165.298C110.998 165.152 111.97 164.716 112.845 164.279C113.575 163.939 114.741 163.648 115.276 163.018C115.568 163.115 115.811 163.212 116.103 163.26C117.561 163.6 119.165 163.745 120.672 163.454C124.319 162.727 122.325 158.749 122.52 156.371ZM114.061 153.315C114.741 153.461 114.693 153.655 114.693 153.994C114.012 153.8 113.38 153.461 112.748 153.121C113.234 153.17 113.623 153.218 114.061 153.315ZM110.56 153.461C110.512 153.461 110.512 153.412 110.463 153.412C110.463 153.412 110.463 153.412 110.512 153.412C110.512 153.412 110.56 153.412 110.56 153.461ZM102.928 151.86C104.484 151.666 106.088 152.393 107.644 152.588C107.206 152.782 106.817 152.976 106.477 153.17C106.088 153.315 105.699 153.509 105.359 153.752C104.872 154.043 104.435 154.334 103.997 154.577C103.803 154.043 103.511 153.509 103.025 153.267C102.588 153.073 102.101 153.073 101.713 153.364C101.81 152.588 102.15 151.957 102.928 151.86ZM102.733 154.625C102.685 154.625 102.636 154.577 102.636 154.577C102.733 154.625 102.588 154.528 102.588 154.528C102.49 154.48 102.442 154.48 102.393 154.431L102.345 154.382C102.345 154.382 102.345 154.382 102.345 154.334C102.345 154.334 102.344 154.285 102.393 154.285C102.393 154.285 102.393 154.285 102.393 154.237C102.393 154.237 102.393 154.188 102.442 154.188C102.442 154.188 102.442 154.188 102.442 154.14C102.442 154.14 102.442 154.14 102.49 154.14L102.539 154.091C102.588 154.091 102.636 154.043 102.733 154.043C102.782 154.043 102.831 154.043 102.831 154.043C102.782 154.043 102.928 154.091 102.977 154.091C103.074 154.14 103.122 154.14 103.22 154.188C103.414 154.334 103.56 154.528 103.706 154.722L103.754 154.771C103.56 154.868 103.414 154.965 103.22 155.062C103.122 154.868 102.977 154.674 102.733 154.625ZM54.1668 143.273C54.2154 143.758 54.3613 144.146 53.9724 144.292C53.5348 144.438 53.0001 144.34 52.6111 144.098C52.2708 143.855 52.3195 143.37 52.757 143.225C53.1459 143.079 53.7293 143.128 54.1668 143.273ZM56.9865 142.497C57.181 142.594 57.3754 142.691 57.5213 142.837C57.4241 142.788 57.5213 143.079 57.5213 143.322C57.5213 144.146 57.4727 144.923 57.3754 145.747C57.3268 146.135 57.3754 146.232 57.181 146.281C56.6948 146.427 56.0628 146.135 55.6253 146.038C55.1877 145.893 54.7502 145.747 54.3127 145.602C55.4308 145.262 55.9656 143.904 55.285 142.934C55.0905 142.643 54.6044 142.594 54.3127 142.788C53.7293 142.303 52.9028 142.06 52.1736 142.206C50.9582 142.497 50.8124 143.952 51.3958 144.826C50.5207 144.389 49.6456 143.952 48.8678 143.419C48.6247 143.128 48.3816 142.885 48.1872 142.643C47.9927 142.4 47.701 142.06 47.5552 141.769C47.4579 141.527 47.9441 141.187 48.0899 140.945C48.1385 140.896 48.1385 140.848 48.1385 140.848C49.3539 140.848 50.6179 141.042 51.7847 141.187C53.5835 141.381 55.4308 141.721 56.9865 142.497ZM44.1035 139.004C44.3466 138.907 44.5896 138.81 44.8327 138.713C45.6592 138.907 46.437 139.295 47.1662 139.78C46.7773 140.168 46.2912 140.362 45.7564 140.508C45.2216 139.974 44.6869 139.441 44.1035 139.004ZM46.437 141.09C46.437 141.139 46.437 141.139 46.437 141.187L46.3884 141.139C46.3398 141.09 46.3884 141.09 46.437 141.09ZM47.701 137.937C48.6247 137.743 49.5484 137.743 50.4721 138.034C51.5416 138.374 51.5902 139.344 52.0278 140.217C50.7152 140.12 49.3539 140.071 48.1385 140.314C48.2844 140.217 48.3816 140.12 48.5275 140.023C48.7705 139.829 48.7705 139.344 48.5275 139.15C48.0899 138.762 47.5552 138.422 47.0204 138.082C47.2635 138.034 47.5066 137.985 47.701 137.937ZM97.8719 162.193C95.9273 161.756 93.9827 161.514 92.0867 161.126C88.2461 160.398 84.4541 159.185 80.6135 158.409C76.7243 157.681 72.7865 157.245 68.9459 156.469C65.5428 155.789 62.1883 154.722 58.7853 153.946C53.1945 152.685 47.2635 152.005 42.3533 148.949C40.9921 148.124 39.8253 147.057 38.8044 145.844C38.9503 145.505 38.853 145.068 38.4155 144.826C38.1724 144.68 38.0266 144.583 37.7835 144.535C37.8321 142.497 38.4155 140.265 40.4573 139.586C41.0407 139.392 41.6241 139.392 42.1589 139.586C42.2075 139.683 42.3047 139.78 42.4506 139.732H42.4992C43.034 139.974 43.5687 140.411 44.0549 140.896C43.909 140.945 43.7632 140.945 43.6173 140.993C43.3256 141.042 43.3743 141.527 43.6659 141.527C43.9576 141.527 44.2493 141.478 44.5896 141.478C45.3675 142.303 46.0481 143.176 46.6315 143.758C48.9164 145.844 52.3195 147.057 55.1878 148.124C58.5422 149.386 61.9939 150.259 65.4942 150.938C73.5157 152.588 81.5372 154.431 89.6073 155.935C93.4479 156.663 97.2399 157.051 101.129 157.39C101.226 157.439 101.324 157.439 101.469 157.39C102.15 157.439 102.782 157.293 103.414 157.002C105.067 157.972 108.664 157.584 109.491 155.692C109.783 155.062 109.053 154.382 108.47 154.916C107.741 155.644 107.109 156.129 106.088 156.42C105.504 156.566 104.921 156.614 104.289 156.566C104.727 156.323 105.116 156.08 105.504 155.838C105.553 155.886 105.602 155.935 105.699 155.935L105.748 155.983C105.796 156.129 106.039 156.032 106.039 155.886C106.039 155.886 106.477 155.304 106.525 155.159C106.963 154.916 107.352 154.771 107.838 154.625C110.755 153.849 111.192 158.118 110.609 160.01C109.734 162.775 105.602 162.241 103.414 162.533C101.518 162.775 99.7679 162.63 97.8719 162.193ZM111.144 163.309C110.172 163.745 109.102 164.133 108.227 163.794C109.005 163.648 109.783 163.357 110.463 162.872C111.144 162.435 111.679 161.756 112.019 161.029C112.359 161.417 112.991 161.708 113.477 161.999C112.651 162.435 111.776 163.018 111.144 163.309ZM119.311 161.853C117.999 161.902 116.492 161.756 115.276 161.126C114.352 160.641 113.526 159.573 112.456 159.767C112.943 157.633 112.456 155.11 110.998 153.752C112.068 154.528 113.283 154.868 114.547 154.771C114.401 154.868 114.45 155.11 114.644 155.11C116.832 155.11 118.776 156.226 120.818 156.905C120.818 157.875 121.013 158.846 121.159 159.816C121.45 161.32 120.77 161.805 119.311 161.853Z" fill="#040921"/>
<path d="M119.358 158.166C118.921 157.924 118.435 157.681 117.9 157.584C117.657 157.536 117.462 157.633 117.316 157.778C116.976 157.584 116.539 157.536 116.101 157.633C115.031 157.875 114.886 159.185 115.275 160.058C116.247 162.241 119.164 160.592 119.65 158.942C119.747 158.651 119.601 158.312 119.358 158.166ZM116.539 159.719C116.247 159.476 116.052 158.845 116.441 158.603C116.684 158.457 117.025 158.409 117.365 158.506C117.414 158.603 117.511 158.651 117.657 158.7C117.851 158.797 118.046 158.894 118.24 158.991C117.803 159.573 117.025 160.155 116.539 159.719Z" fill="#040921"/>
<path d="M250.183 20.9259C249.794 20.5863 248.968 20.8774 249.162 21.508C249.211 21.6536 249.259 21.7506 249.356 21.8961C248.968 23.5941 250.134 25.2435 251.058 26.5533C251.301 26.8929 251.836 27.0384 252.128 26.6988C253.635 24.8069 251.739 22.2842 250.183 20.9259ZM250.718 23.7396C250.864 23.9822 251.009 24.1762 251.107 24.4188C250.961 24.1762 250.864 23.9822 250.718 23.7396Z" fill="#040921"/>
<path d="M152.903 6.12945C151.688 8.11844 153.244 10.253 154.848 11.4658C155.091 11.6113 155.334 11.3687 155.237 11.1262C155.577 11.2717 156.015 11.0777 156.015 10.6411C155.917 8.99166 154.896 7.24522 153.827 5.98391C153.535 5.74135 153.098 5.83838 152.903 6.12945ZM153.584 7.68183C154.167 8.65207 154.459 9.76785 154.994 10.7866C154.216 9.9619 153.487 8.79761 153.584 7.68183Z" fill="#040921"/>
<path d="M261.948 146.038C262.58 144.923 262.969 143.661 263.407 142.449C263.99 140.799 264.719 139.198 265.449 137.597C267.004 134.104 268.366 130.563 269.678 126.973C272.352 119.648 274.686 112.128 276.97 104.658C279.207 97.4779 281.103 90.007 284.068 83.1183C286.548 77.2969 289.951 71.3784 289.999 64.8293C290.048 60.4147 287.569 56.1941 285.818 52.2646C284.797 49.8876 283.777 47.5105 282.756 45.1334C281.686 42.7078 280.811 39.9426 279.304 37.7595C279.207 37.614 278.915 37.6625 278.915 37.8566C279.109 39.6515 279.839 41.2524 280.471 42.9503C281.2 44.9393 281.978 46.8798 282.804 48.8203C284.311 52.5557 285.916 56.2911 287.471 60.0266C290.097 66.3331 286.742 73.2704 284.165 79.0433C281.2 85.6409 279.061 92.4326 276.922 99.3213C274.588 106.792 272.303 114.263 269.775 121.685C268.317 125.954 266.713 130.175 264.962 134.396C264.136 136.433 263.164 138.422 262.337 140.46C261.705 142.012 261.316 143.71 260.49 145.165C260.393 145.311 260.393 145.456 260.393 145.602C260.198 145.99 259.906 146.281 259.615 146.621C257.135 143.807 255.385 140.508 253.246 137.452C251.545 134.978 249.697 132.698 248.19 130.126C248.19 129.641 248.142 129.156 248.142 128.623C248.093 128.089 247.753 127.798 247.364 127.701C248.044 127.07 248.482 126.051 248.871 125.275C249.843 123.286 250.572 121.249 251.302 119.163C253.295 113.535 255.288 107.908 257.427 102.378C260.393 94.7127 263.018 86.9022 265.692 79.1403C268.171 71.815 270.845 64.5382 273.567 57.3099C274.88 53.8655 276.047 50.3242 276.922 46.7343C277.7 43.5325 278.478 39.9911 278.186 36.6438C277.651 30.5313 269.97 29.367 265.108 28.5423C262.434 28.1057 259.761 27.8146 257.087 27.6205C256.358 23.0604 253.198 15.5895 247.51 16.7538C242.211 17.8696 246.246 23.8366 248.531 26.8928C246.975 26.7473 245.468 26.5533 243.912 26.3107C235.793 25.0979 227.675 23.6911 219.653 22.0902C205.944 19.3735 192.477 15.8321 178.573 14.2312C172.642 13.552 166.711 13.0669 160.78 12.4848C160.78 12.4363 160.78 12.3392 160.78 12.2907C160.488 11.0779 159.808 9.86512 159.322 8.74935C158.69 7.29399 158.009 5.88714 157.231 4.57731C155.919 2.44278 153.828 0.0171819 151.057 0.45379C148.383 0.890398 147.605 2.87939 148.383 5.25648C148.772 6.51779 149.501 7.7306 150.182 8.89488C150.668 9.71959 151.349 10.5443 151.738 11.4175C150.279 11.2235 148.821 11.0294 147.362 10.7869C144.154 10.3017 140.994 9.62256 137.737 9.57405C137.639 9.57405 137.591 9.62256 137.542 9.62256C133.313 9.23447 128.645 8.11869 124.951 10.9809C122.569 12.8244 121.353 15.5895 120.089 18.2577C118.436 21.7506 116.929 25.292 115.471 28.8818C112.505 36.2072 110.269 43.8236 107.303 51.1489C104.338 58.5712 100.935 65.7995 97.7748 73.1248C96.2191 76.7632 94.7607 80.4986 93.3508 84.1856C92.7188 85.7865 92.2327 87.4844 91.6007 89.0853C91.1631 90.2496 91.0173 91.4139 91.1632 92.6267C91.4548 94.6157 92.8647 96.168 94.7121 97.2353C93.7398 97.2353 92.8161 97.3323 91.8438 97.5264C91.941 97.0898 91.7952 96.6046 91.2604 96.5076C87.8573 95.974 84.4056 96.5076 81.0512 97.2838C77.3564 98.157 73.6617 99.0788 69.9183 99.8064C62.3343 101.262 54.799 102.766 47.2636 104.609C43.6661 105.531 40.02 106.453 36.4224 107.374C32.7277 108.296 28.9357 109.024 25.2896 110.139C21.692 111.255 18.2404 112.711 14.6428 113.681C12.601 114.215 10.2188 115.524 7.98255 115.524C7.93393 115.476 7.88532 115.476 7.8367 115.476C7.59363 115.476 7.35055 115.476 7.10747 115.476C6.91301 115.427 6.76717 115.427 6.62132 115.379C6.52409 115.33 6.47548 115.427 6.42686 115.476C4.19056 115.476 1.46811 115.767 0.544424 117.804C0.349963 118.241 0.301348 118.581 0.349963 118.92C0.301348 118.969 0.252732 119.017 0.252732 119.066C0.155502 119.26 0.106887 119.405 0.00965643 119.599C-0.0389588 119.696 0.106887 119.842 0.204117 119.745C0.252732 119.696 0.301348 119.696 0.349963 119.648C0.836115 123.238 1.27365 126.828 1.4195 130.466C1.56534 133.813 1.61396 137.161 1.61396 140.508C1.61396 142.788 1.56534 145.068 1.66257 147.397C1.71119 148.173 1.61396 149.919 2.14873 150.89C2.97518 153.509 5.11425 154.674 7.4964 155.741C10.5592 157.099 13.5247 158.652 16.6361 159.816C20.2822 161.223 24.0256 162.144 27.8662 162.824C31.6581 163.503 35.4501 164.473 39.1449 165.492C46.6316 167.626 53.9725 170.343 61.362 172.866C68.8974 175.437 76.4814 177.523 84.1626 179.609C92.0868 181.743 100.011 184.023 107.838 186.643C115.519 189.263 123.103 192.173 130.882 194.502C138.66 196.782 146.633 198.48 154.557 200.226C158.349 201.051 162.19 202.167 166.031 202.652C169.482 203.089 173.031 202.409 176.24 201.148C177.795 200.566 179.302 199.79 180.712 198.965C182.414 197.995 184.261 197.316 186.109 196.685C189.658 195.472 192.915 193.92 196.221 192.125C199.672 190.233 203.027 188.244 206.527 186.449C209.979 184.654 213.479 182.908 216.882 181.016C223.688 177.135 230.251 172.817 236.863 168.597C239.585 166.85 242.551 165.298 245.176 163.357C247.704 161.514 248.725 159.04 249.065 155.983C249.357 153.655 249.357 151.326 249.26 148.998C249.697 149.24 250.135 149.434 250.524 149.58C251.982 150.113 253.489 150.404 255.045 150.259C257.719 150.065 259.906 148.707 260.879 146.329C261.073 146.524 261.657 146.524 261.948 146.038ZM242.648 128.234C242.843 128.234 243.037 128.186 243.231 128.186C243.037 128.283 242.843 128.332 242.599 128.429C242.648 128.38 242.648 128.283 242.648 128.234ZM265.157 74.3861C263.212 80.1591 261.268 85.8835 259.226 91.6079C257.184 97.3323 254.948 102.96 252.954 108.684C251.739 112.177 250.378 115.621 249.163 119.066C248.579 120.667 247.996 122.219 247.315 123.771C247.023 124.354 246.732 124.936 246.391 125.518C246.294 125.712 246.148 125.906 246.003 126.1C245.808 126.343 245.662 126.245 246.051 126.245C245.662 126.294 245.371 126.488 245.225 126.779C244.058 126.537 242.891 126.731 241.724 127.022C241.53 126.973 241.335 127.022 241.141 127.07C240.412 126.488 239.439 126.343 238.516 126.197C236.863 126.003 235.259 125.906 233.606 125.566C229.668 124.79 225.779 123.674 221.938 122.559C214.208 120.327 206.478 118.29 198.505 116.834C190.581 115.379 182.56 114.312 174.587 113.099C166.614 111.886 158.69 110.431 150.863 108.636C145.661 107.423 140.508 106.21 135.257 105.191C129.958 104.173 124.562 103.687 119.36 102.329C116.783 101.65 114.255 100.777 111.679 100.049C111.63 100.049 111.63 100.049 111.582 100C111.679 99.8549 111.727 99.7094 111.776 99.5154C112.019 97.1868 112.797 94.8582 113.526 92.6267C114.401 89.91 115.422 87.1933 116.394 84.5251C118.825 77.9275 120.916 71.2328 123.93 64.8778C127.187 57.9891 129.521 50.7123 132.583 43.7265C134.236 39.9426 135.111 35.431 138.32 32.5688C138.368 32.5202 138.417 32.5202 138.466 32.4717C138.612 32.5688 138.757 32.6173 138.952 32.6658C139.584 32.7628 140.119 32.2777 140.021 31.7441C140.362 31.6955 140.702 31.647 141.091 31.6955C141.237 31.6955 141.334 31.5985 141.334 31.453C141.383 31.453 141.383 31.5015 141.431 31.5015C148.626 30.9193 155.919 32.6658 162.871 34.4607C170.309 36.4012 177.698 38.3902 185.234 39.8941C201.131 43.1444 217.222 45.57 233.168 48.7718C240.217 50.1786 247.218 51.9251 254.267 53.526C257.767 54.3022 261.365 54.8843 264.865 55.6605C266.178 55.9516 267.49 56.1941 268.852 56.4367C269.775 56.5822 270.748 56.6792 271.623 57.1158C269.386 62.8403 267.15 68.5647 265.157 74.3861ZM247.315 22.8178C246.537 21.2169 245.516 18.7428 247.899 18.0637C250.329 17.3845 252.177 19.4705 253.295 21.2655C254.462 23.1089 255.239 25.292 255.628 27.475C253.587 27.3295 251.545 27.1839 249.503 26.9899C248.774 25.583 247.996 24.2247 247.315 22.8178ZM150.328 6.61482C149.453 4.77136 148.432 2.1032 151.397 1.81213C153.877 1.56957 155.53 4.48029 156.502 6.32375C157.134 7.48804 157.62 8.65232 158.155 9.86512C158.495 10.6413 158.738 11.6116 159.176 12.3878C158.738 12.3392 158.301 12.2907 157.863 12.2422C156.064 12.0482 154.266 11.8056 152.467 11.563C152.078 9.81661 151.057 8.1672 150.328 6.61482ZM93.0591 89.813C95.4899 82.3421 98.6013 75.0653 101.761 67.8855C104.921 60.7057 108.178 53.5745 110.804 46.2006C113.526 38.6813 116.006 31.1134 119.214 23.7396C120.381 21.0714 121.596 18.4032 122.957 15.7836C123.93 13.9401 125.194 12.2907 127.09 11.369C128.548 10.6413 130.25 10.4958 131.854 10.4473C133.847 10.3988 135.889 10.3502 137.931 10.2532C138.028 10.2532 138.077 10.2047 138.125 10.1562C141.917 10.4473 145.564 11.4175 149.258 12.3392C153.002 13.3095 156.988 13.6006 160.829 14.0372C168.947 14.9589 177.115 15.541 185.185 16.8509C193.255 18.1607 201.179 19.9556 209.152 21.7506C217.174 23.5455 225.195 25.1464 233.314 26.5048C240.703 27.7661 248.044 28.7848 255.531 29.367C259.177 29.658 262.775 29.9976 266.372 30.6768C268.025 31.0164 269.63 31.4045 271.185 31.9381C272.595 32.3747 274.005 32.9083 275.123 33.9756C277.165 35.9161 276.241 39.7971 275.901 42.1741C275.318 45.8125 274.297 49.4024 273.081 52.8953C272.838 53.6715 272.546 54.4477 272.255 55.2239C271.428 54.8843 270.553 54.7388 269.678 54.5932C268.074 54.3507 266.47 54.0596 264.865 53.72C260.83 52.8468 256.795 52.2646 252.809 51.2944C244.836 49.3539 236.863 47.656 228.841 46.1036C212.896 43.0474 196.804 40.7673 180.955 37.3229C174.149 35.8676 167.489 33.9271 160.731 32.3747C154.412 30.9193 147.897 29.9491 141.431 31.0164C141.334 31.0164 141.285 31.1134 141.285 31.1619C141.285 31.1619 141.237 31.1134 141.188 31.1134C140.653 30.9193 140.119 30.8708 139.632 30.8708C139.389 30.5798 139.146 30.2887 138.903 29.9976C138.417 29.2699 138.028 28.4937 137.639 27.7176C136.764 26.0196 135.986 24.2732 135.014 22.6238C133.847 20.6348 132.146 19.0339 130.639 17.336C129.18 15.7351 128.889 13.3095 127.09 11.9997C126.847 11.8541 126.604 12.1937 126.798 12.3878C127.673 13.261 128.062 14.4253 128.5 15.5895C128.889 16.6083 129.423 17.433 130.055 18.3547C131.368 20.2952 132.924 22.0416 133.945 24.1277C134.771 25.7771 135.549 27.5235 136.375 29.1729C136.667 29.7551 137.105 30.7738 137.639 31.5015C135.549 32.8598 134.139 35.9161 133.264 37.9536C130.93 43.3384 128.694 48.7718 126.604 54.2051C123.833 61.4819 120.381 68.4677 117.707 75.793C115.714 81.3233 113.623 86.8052 111.776 92.3841C111.047 94.6157 110.22 97.0413 110.123 99.4183C110.123 99.4669 110.123 99.4669 110.123 99.5154C108.227 99.0788 106.331 98.7877 104.435 98.3996C103.511 98.2055 102.539 98.0115 101.567 97.8174C101.47 97.7204 101.372 97.6234 101.226 97.5749C97.3859 96.6046 91.309 95.0523 93.0591 89.813ZM3.85026 117.125C5.16287 116.689 6.42686 116.203 7.78809 115.961C7.8367 115.961 7.8367 115.961 7.88532 115.912C9.7327 116.058 11.6773 115.427 13.3788 114.942C14.9345 114.554 16.4902 114.263 17.9973 113.826C19.796 113.293 21.5462 112.662 23.345 112.08C26.9911 110.867 30.6858 110.188 34.3806 109.315C38.1726 108.442 41.9646 107.52 45.7566 106.598C53.2919 104.755 60.8273 103.202 68.4599 101.795C72.2032 101.116 75.9466 100.389 79.6413 99.4183C83.4333 98.4481 87.0309 98.0115 90.9687 98.157C91.2118 98.157 91.4062 98.06 91.5521 97.9145C93.1564 97.7204 94.7607 97.7689 96.3164 98.0115C97.9207 98.6907 99.5736 99.0788 100.935 99.1758C101.081 99.1758 101.226 99.1758 101.324 99.1273C101.567 99.1758 101.761 99.2243 101.956 99.3213C105.505 100.243 109.054 100.922 112.554 101.989C116.346 103.154 120.041 104.367 123.978 105.094C127.916 105.773 131.854 106.307 135.743 107.083C143.668 108.636 151.446 110.722 159.322 112.323C167.246 113.923 175.219 115.039 183.192 116.203C193.206 117.659 203.27 119.26 213.041 121.928C218 123.286 222.959 124.839 227.918 126.148C230.397 126.828 232.925 127.361 235.453 127.798C236.814 128.04 239.051 127.604 240.071 128.671C239.488 129.253 238.759 129.69 237.932 130.175C235.356 131.776 232.585 133.086 229.814 134.396C222.084 138.034 214.16 141.284 206.235 144.535C200.207 147.009 194.13 149.434 188.102 151.957C188.102 151.569 187.956 151.181 187.47 150.987C185.817 150.404 184.018 150.21 182.268 149.822C180.178 149.386 178.136 148.998 176.045 148.561C172.059 147.785 168.024 147.009 164.037 146.184C156.064 144.535 148.237 142.4 140.459 140.071C132.729 137.743 124.999 135.317 117.221 133.134C113.429 132.067 109.588 131 105.748 130.029C101.907 129.059 98.0665 128.671 94.2259 128.04C93.5453 127.943 92.9133 127.846 92.2813 127.798C92.1355 122.704 92.2327 117.61 92.2327 112.468C92.2327 109.751 92.2327 106.986 92.0382 104.27C91.941 103.154 91.8924 102.038 91.7465 100.922C91.6493 100.389 91.8438 99.4183 91.5035 98.9817C91.4548 98.9332 91.309 98.8847 91.2118 98.8847C91.0173 98.9817 90.9687 99.0302 90.7742 99.1758C90.677 99.2728 90.7256 99.4669 90.8228 99.5154V99.5639C90.7256 99.7579 90.677 99.952 90.6284 100.146C90.5312 100.583 90.5312 101.068 90.5312 101.504C90.4825 102.766 90.4825 103.978 90.5312 105.24C90.5798 107.811 90.4825 110.382 90.3853 112.953C90.3367 115.524 90.2881 118.047 90.1908 120.618C90.0936 122.947 89.9964 125.324 90.2395 127.652C88.781 127.604 87.3225 127.701 85.7669 127.992C82.8013 128.574 79.933 129.399 77.0161 130.223C71.7171 131.727 65.9805 132.115 60.9245 134.396C60.8759 134.396 60.8759 134.444 60.8759 134.444C57.6187 133.571 54.3614 132.795 51.007 132.261C47.3609 131.679 43.9092 130.903 40.4575 129.641C38.4643 128.914 36.3738 127.943 34.2348 127.604C33.1652 127.022 31.7068 126.828 30.4428 126.585C30.3942 126.44 30.2969 126.245 30.1025 126.148C28.8385 125.324 26.9425 125.227 25.4354 124.984C23.588 124.693 21.692 124.499 19.8447 124.111C15.6637 123.286 11.7259 121.394 7.59363 120.376C5.79486 119.939 3.07241 119.939 1.71119 118.581C1.27365 118.095 3.60718 117.222 3.85026 117.125ZM164.572 157.73C160.731 156.857 156.842 155.838 152.953 155.159C150.085 154.625 147.168 154.382 144.3 153.8C141.772 153.267 139.389 152.151 136.764 152.054C136.764 152.054 136.764 152.054 136.716 152.054C136.667 152.005 136.618 151.957 136.57 151.908C136.473 151.811 136.375 151.908 136.375 152.005C134.528 151.423 132.681 150.793 130.833 150.404C130.785 150.356 130.736 150.307 130.687 150.259C128.159 148.513 124.61 148.755 121.742 148.318C117.756 147.736 113.818 146.863 109.88 146.087C101.907 144.535 93.9342 143.128 86.0099 141.381C78.1829 139.635 70.5503 137.161 62.8205 134.929C62.4316 134.832 61.994 134.687 61.6051 134.59C64.9596 133.716 68.5571 133.522 72.0088 132.989C75.8007 132.407 79.4955 131.194 83.2389 130.272C85.1349 129.835 87.0795 129.35 89.0241 129.205C91.1631 129.059 93.3022 129.544 95.3441 129.884C97.1914 130.175 99.0874 130.321 100.935 130.66C102.928 131 104.873 131.533 106.817 132.018C122.374 136.19 137.688 141.381 153.245 145.408C158.933 146.863 164.669 148.076 170.455 149.192C173.323 149.725 176.24 150.307 179.108 150.89C180.566 151.181 181.976 151.472 183.386 151.763C184.504 152.005 185.622 152.151 186.692 152.491C186.4 152.636 186.109 152.733 185.817 152.879C182.56 154.285 179.448 156.129 176.094 157.39C172.253 158.846 168.559 158.652 164.572 157.73ZM163.94 200.42C159.954 199.547 156.016 198.625 152.078 197.752C144.154 196.006 136.229 194.259 128.451 191.834C120.673 189.408 113.137 186.449 105.407 183.926C97.5804 181.355 89.6075 179.172 81.6346 177.038C74.002 175 66.5152 172.769 59.0285 170.197C51.639 167.626 44.2981 165.007 36.7627 163.018C33.0194 162.047 29.1788 161.417 25.3868 160.592C21.4976 159.767 17.7056 158.555 14.0594 157.002C11.969 156.129 9.97577 155.11 7.88532 154.285C6.2324 153.655 4.43364 152.782 3.21826 151.423C3.70441 151.326 3.94749 150.696 3.70441 150.259C3.9961 150.793 3.70441 150.065 3.6558 149.871C3.55857 149.58 3.55857 149.24 3.50995 148.901C3.3641 147.833 3.3641 146.718 3.31549 145.602C3.26687 143.613 3.26687 141.624 3.21826 139.635C3.12103 136.093 2.97518 132.552 2.68349 129.011C2.44042 126.051 2.10011 122.85 1.07919 120.036C2.14873 120.812 3.89887 121.2 4.77395 121.394C8.85762 122.316 12.7955 123.626 16.7333 124.936C18.921 125.663 21.1573 126.051 23.4422 126.391C24.4631 126.537 25.5326 126.682 26.5536 126.876C27.5745 127.07 28.5468 127.41 29.5191 127.555C29.7135 127.604 29.908 127.555 30.0538 127.458C30.4914 127.652 30.8803 127.798 31.3178 127.943C31.3665 127.992 31.4151 128.04 31.4637 127.992C31.4637 127.992 31.4637 127.992 31.5123 127.992C32.5818 128.429 33.6514 128.865 34.5751 129.641C35.1098 130.126 35.8391 129.544 35.5474 128.865C35.5474 128.865 35.5474 128.865 35.5474 128.817C37.1517 129.447 38.6587 130.223 40.1172 130.854C43.5203 132.261 46.9719 133.086 50.6181 133.716C58.4937 135.075 66.0777 137.694 73.7103 139.974C81.4401 142.254 89.3644 143.952 97.2887 145.456C105.213 147.009 113.137 148.755 121.11 149.968C123.784 150.404 127.284 150.21 129.569 151.811C130.104 152.199 130.59 151.908 130.833 151.472C131.465 151.763 132.146 152.054 132.778 152.345C134.188 152.976 135.597 153.509 137.056 153.946C140.459 154.965 144.056 156.08 147.605 156.566C148.189 156.663 148.675 155.983 148.335 155.595C152.029 156.517 155.773 157.439 159.467 158.36C162.968 159.234 166.468 160.301 170.066 160.398C170.26 163.648 169.677 166.899 169.482 170.1C169.239 173.884 169.628 177.717 169.774 181.501C169.92 184.897 169.871 188.341 169.823 191.737C169.823 193.338 169.774 194.939 169.774 196.539C169.774 197.849 169.531 199.353 169.92 200.614C168.024 200.954 165.982 200.857 163.94 200.42ZM244.107 161.562C243.037 162.435 241.773 163.066 240.558 163.794C238.905 164.764 237.3 165.831 235.696 166.85C229.084 171.071 222.521 175.388 215.715 179.318C212.312 181.258 208.812 182.956 205.36 184.751C201.86 186.546 198.505 188.535 195.054 190.427C193.45 191.349 191.797 192.222 190.095 193.047C188.345 193.871 186.449 194.453 184.602 195.133C181.15 196.345 178.136 198.383 174.733 199.644C173.76 199.984 172.739 200.275 171.767 200.469C172.059 199.305 171.767 197.801 171.767 196.685C171.767 195.084 171.767 193.483 171.767 191.882C171.767 188.486 171.767 185.042 171.573 181.646C171.378 177.862 170.989 174.078 170.989 170.246C170.989 166.947 171.184 163.794 170.698 160.544C174.344 160.495 177.844 158.991 181.053 157.439C186.498 154.771 192.04 152.49 197.63 150.21C205.701 146.912 213.819 143.613 221.841 140.168C227.918 137.549 234.432 134.978 239.974 131.291C240.558 130.903 241.579 130.223 242.162 129.447C243.377 129.108 244.495 128.623 245.711 128.332C245.808 128.332 245.905 128.38 246.003 128.332C246.051 128.332 246.051 128.332 246.1 128.332C246.051 128.429 246.051 128.526 246.051 128.671C246.246 132.552 246.391 136.433 246.586 140.265C246.78 144.195 247.121 148.173 247.121 152.151C247.218 155.595 246.975 159.185 244.107 161.562ZM254.607 148.658C253.392 148.707 252.177 148.464 251.059 148.027C250.281 147.736 249.697 147.203 249.017 146.766C248.919 145.214 248.822 143.661 248.725 142.157C248.531 138.665 248.385 135.172 248.239 131.727C249.406 133.91 250.815 136.045 252.079 138.131C254.024 141.381 255.677 144.874 258.302 147.639C257.184 148.27 255.92 148.61 254.607 148.658Z" fill="#040921"/>
</svg>
