<svg width="18" height="13" viewBox="0 0 18 13" fill="none" xmlns="http://www.w3.org/2000/svg">
<path d="M13.1658 3.73333C13.4954 3.73333 13.8177 3.63558 14.0917 3.45244C14.3658 3.26931 14.5794 3.00901 14.7056 2.70447C14.8317 2.39992 14.8647 2.06481 14.8004 1.74151C14.7361 1.41821 14.5774 1.12124 14.3443 0.88815C14.1112 0.655063 13.8142 0.496328 13.4909 0.432019C13.1676 0.36771 12.8325 0.400716 12.528 0.526862C12.2234 0.653008 11.9631 0.866629 11.78 1.14071C11.5969 1.41479 11.4991 1.73703 11.4991 2.06666C11.4991 2.50869 11.6747 2.93261 11.9873 3.24517C12.2998 3.55773 12.7238 3.73333 13.1658 3.73333ZM1.25745 7.6C1.42258 7.65278 1.58177 7.7226 1.73245 7.80833C2.25072 8.11151 2.84035 8.2713 3.44078 8.2713C4.04122 8.2713 4.63084 8.11151 5.14912 7.80833C5.47501 7.62585 5.84228 7.53003 6.21578 7.53003C6.58929 7.53003 6.95655 7.62585 7.28245 7.80833L7.45745 7.89166C7.96312 8.13784 8.5213 8.25666 9.0834 8.23778C9.64549 8.21889 10.1944 8.06288 10.6825 7.78333C11.0083 7.60085 11.3756 7.50503 11.7491 7.50503C12.1226 7.50503 12.4899 7.60085 12.8158 7.78333C13.3439 8.08515 13.9409 8.24587 14.5491 8.25C15.1361 8.2439 15.711 8.08292 16.2158 7.78333C16.3665 7.6976 16.5257 7.62778 16.6908 7.575C16.814 7.56652 16.9337 7.53078 17.0414 7.47036C17.149 7.40994 17.2419 7.32635 17.3133 7.22564C17.3847 7.12493 17.4329 7.00961 17.4543 6.88802C17.4757 6.76643 17.4698 6.6416 17.437 6.52257C17.4043 6.40353 17.3455 6.29326 17.2649 6.19972C17.1843 6.10619 17.084 6.03172 16.9711 5.98172C16.8582 5.93171 16.7356 5.90741 16.6122 5.91057C16.4888 5.91373 16.3676 5.94427 16.2574 5.99999C15.9667 6.09024 15.6871 6.21325 15.4241 6.36666C15.1581 6.52026 14.8563 6.60112 14.5491 6.60112C14.2419 6.60112 13.9402 6.52026 13.6741 6.36666C13.0968 6.041 12.4453 5.86988 11.7824 5.86988C11.1196 5.86988 10.4681 6.041 9.89078 6.36666C9.81238 6.40498 9.73167 6.43838 9.64912 6.46666L10.9491 5.16666C10.9789 5.12806 11.0041 5.08611 11.0241 5.04166C11.0618 5.00067 11.0953 4.956 11.1241 4.90833C11.128 4.85562 11.128 4.8027 11.1241 4.74999C11.1289 4.69732 11.1289 4.64433 11.1241 4.59166C11.1281 4.54174 11.1281 4.49158 11.1241 4.44166C11.1289 4.38899 11.1289 4.336 11.1241 4.28333C11.0995 4.23434 11.0716 4.18702 11.0408 4.14166C11.0191 4.09366 10.9911 4.04881 10.9574 4.00833L8.39912 1.23333C8.33181 1.15995 8.253 1.09803 8.16578 1.04999C8.1077 1.04231 8.04886 1.04231 7.99078 1.04999C7.94387 1.04237 7.89603 1.04237 7.84912 1.04999C7.73819 1.00536 7.61811 0.988203 7.49912 0.999995L4.54912 2.09999C4.34142 2.17521 4.17208 2.32982 4.07833 2.52983C3.98457 2.72985 3.97406 2.9589 4.04912 3.16666C4.12433 3.37436 4.27894 3.54369 4.47895 3.63745C4.67897 3.73121 4.90803 3.74171 5.11578 3.66666L7.55745 2.77499L9.22412 4.54166L7.64078 6.12499C7.11029 5.91877 6.54066 5.83274 5.97292 5.87308C5.40518 5.91343 4.85345 6.07915 4.35745 6.35833C4.09142 6.51192 3.78964 6.59278 3.48245 6.59278C3.17526 6.59278 2.87348 6.51192 2.60745 6.35833C2.34447 6.20492 2.06489 6.08191 1.77412 5.99166C1.66749 5.95188 1.55385 5.93436 1.44019 5.94018C1.32654 5.946 1.21528 5.97504 1.11328 6.0255C1.01127 6.07597 0.920688 6.14679 0.847104 6.23361C0.773521 6.32042 0.7185 6.42139 0.685433 6.53029C0.652365 6.63918 0.641953 6.75369 0.654837 6.86677C0.667721 6.97984 0.703629 7.08907 0.760346 7.18774C0.817064 7.2864 0.893389 7.3724 0.984617 7.44044C1.07584 7.50847 1.18004 7.5571 1.29078 7.58333L1.25745 7.6ZM16.2574 10.175C15.9667 10.2652 15.6871 10.3883 15.4241 10.5417C15.1581 10.6953 14.8563 10.7761 14.5491 10.7761C14.2419 10.7761 13.9402 10.6953 13.6741 10.5417C13.0968 10.216 12.4453 10.0449 11.7824 10.0449C11.1196 10.0449 10.4681 10.216 9.89078 10.5417C9.62249 10.6975 9.31773 10.7796 9.00745 10.7796C8.69716 10.7796 8.39241 10.6975 8.12412 10.5417C7.54683 10.216 6.89525 10.0449 6.23245 10.0449C5.56964 10.0449 4.91806 10.216 4.34078 10.5417C4.07475 10.6953 3.77297 10.7761 3.46578 10.7761C3.15859 10.7761 2.85682 10.6953 2.59078 10.5417C2.3278 10.3883 2.04823 10.2652 1.75745 10.175C1.65082 10.1352 1.53718 10.1177 1.42353 10.1235C1.30987 10.1293 1.19861 10.1584 1.09661 10.2088C0.994606 10.2593 0.904021 10.3301 0.830438 10.4169C0.756855 10.5038 0.701834 10.6047 0.668766 10.7136C0.635699 10.8225 0.625286 10.937 0.63817 11.0501C0.651054 11.1632 0.686962 11.2724 0.743679 11.3711C0.800397 11.4697 0.876722 11.5557 0.96795 11.6238C1.05918 11.6918 1.16337 11.7404 1.27412 11.7667C1.43924 11.8194 1.59843 11.8893 1.74912 11.975C2.26739 12.2782 2.85701 12.438 3.45745 12.438C4.05789 12.438 4.64751 12.2782 5.16578 11.975C5.49168 11.7925 5.85894 11.6967 6.23245 11.6967C6.60596 11.6967 6.97322 11.7925 7.29912 11.975C7.82187 12.2739 8.41361 12.4311 9.01578 12.4311C9.61796 12.4311 10.2097 12.2739 10.7324 11.975C11.0583 11.7925 11.4256 11.6967 11.7991 11.6967C12.1726 11.6967 12.5399 11.7925 12.8658 11.975C13.3939 12.2768 13.9909 12.4375 14.5991 12.4417C15.1861 12.4356 15.761 12.2746 16.2658 11.975C16.4165 11.8893 16.5757 11.8194 16.7408 11.7667C16.8458 11.7349 16.9436 11.6828 17.0285 11.6133C17.1135 11.5438 17.1838 11.4582 17.2357 11.3615C17.2875 11.2647 17.3198 11.1587 17.3307 11.0495C17.3416 10.9403 17.3309 10.8301 17.2991 10.725C17.2674 10.6199 17.2153 10.5222 17.1457 10.4372C17.0762 10.3523 16.9906 10.2819 16.8939 10.2301C16.7972 10.1782 16.6912 10.146 16.582 10.1351C16.4728 10.1242 16.3625 10.1349 16.2574 10.1667V10.175Z" fill="#040921"/>
</svg>
