<svg width="12" height="14" viewBox="0 0 12 14" fill="none" xmlns="http://www.w3.org/2000/svg">
<path d="M11.3333 2.99992H8.66667V2.33325C8.66667 1.80282 8.45595 1.29411 8.08088 0.919038C7.70581 0.543966 7.1971 0.333252 6.66667 0.333252H5.33333C4.8029 0.333252 4.29419 0.543966 3.91912 0.919038C3.54405 1.29411 3.33333 1.80282 3.33333 2.33325V2.99992H0.666667C0.489856 2.99992 0.320286 3.07016 0.195262 3.19518C0.0702379 3.32021 0 3.48977 0 3.66659C0 3.8434 0.0702379 4.01297 0.195262 4.13799C0.320286 4.26301 0.489856 4.33325 0.666667 4.33325H1.33333V11.6666C1.33333 12.197 1.54405 12.7057 1.91912 13.0808C2.29419 13.4559 2.8029 13.6666 3.33333 13.6666H8.66667C9.1971 13.6666 9.70581 13.4559 10.0809 13.0808C10.456 12.7057 10.6667 12.197 10.6667 11.6666V4.33325H11.3333C11.5101 4.33325 11.6797 4.26301 11.8047 4.13799C11.9298 4.01297 12 3.8434 12 3.66659C12 3.48977 11.9298 3.32021 11.8047 3.19518C11.6797 3.07016 11.5101 2.99992 11.3333 2.99992ZM4.66667 2.33325C4.66667 2.15644 4.7369 1.98687 4.86193 1.86185C4.98695 1.73682 5.15652 1.66659 5.33333 1.66659H6.66667C6.84348 1.66659 7.01305 1.73682 7.13807 1.86185C7.2631 1.98687 7.33333 2.15644 7.33333 2.33325V2.99992H4.66667V2.33325ZM9.33333 11.6666C9.33333 11.8434 9.2631 12.013 9.13807 12.138C9.01305 12.263 8.84348 12.3333 8.66667 12.3333H3.33333C3.15652 12.3333 2.98695 12.263 2.86193 12.138C2.7369 12.013 2.66667 11.8434 2.66667 11.6666V4.33325H9.33333V11.6666Z" fill="#040921"/>
</svg>
