<svg width="26" height="28" viewBox="0 0 26 28" fill="none" xmlns="http://www.w3.org/2000/svg">
<path d="M19.0002 4.66644C17.8262 4.6655 16.6741 4.98349 15.6668 5.58644C14.9365 3.91015 13.654 2.53462 12.0329 1.68891C10.4118 0.843193 8.54984 0.578328 6.75718 0.938419C4.96452 1.29851 3.34931 2.26182 2.18051 3.66795C1.0117 5.07408 0.359852 6.83816 0.333496 8.66644V13.9998C0.335411 15.8889 1.00582 17.7165 2.22601 19.1587C3.44619 20.601 5.13742 21.5649 7.00016 21.8798V25.9998C7.00016 26.3534 7.14064 26.6925 7.39069 26.9426C7.64074 27.1926 7.97987 27.3331 8.3335 27.3331C8.68712 27.3331 9.02626 27.1926 9.2763 26.9426C9.52635 26.6925 9.66683 26.3534 9.66683 25.9998V21.8798C11.0251 21.6441 12.3009 21.0658 13.3735 20.1998C13.8495 20.9638 14.4753 21.6235 15.2132 22.1391C15.9511 22.6546 16.7857 23.0155 17.6668 23.1998V25.9998C17.6668 26.3534 17.8073 26.6925 18.0574 26.9426C18.3074 27.1926 18.6465 27.3331 19.0002 27.3331C19.3538 27.3331 19.6929 27.1926 19.943 26.9426C20.193 26.6925 20.3335 26.3534 20.3335 25.9998V23.1998C21.8393 22.8924 23.1927 22.0742 24.1646 20.8836C25.1364 19.6931 25.6671 18.2033 25.6668 16.6664V11.3331C25.6668 9.56499 24.9644 7.8693 23.7142 6.61906C22.464 5.36881 20.7683 4.66644 19.0002 4.66644ZM12.3335 11.3331V16.6664C12.3463 16.921 12.373 17.1748 12.4135 17.4264C11.7004 18.2757 10.7403 18.8816 9.66683 19.1598V15.3331C9.66683 14.9795 9.52635 14.6403 9.2763 14.3903C9.02626 14.1402 8.68712 13.9998 8.3335 13.9998C7.97987 13.9998 7.64074 14.1402 7.39069 14.3903C7.14064 14.6403 7.00016 14.9795 7.00016 15.3331V19.1464C5.8582 18.8516 4.84617 18.1865 4.12241 17.2553C3.39866 16.3241 3.00399 15.1792 3.00016 13.9998V8.66644C2.99668 7.60986 3.30712 6.57605 3.89208 5.69617C4.47704 4.81629 5.31016 4.12998 6.28577 3.72431C7.26137 3.31864 8.33549 3.21189 9.37185 3.41761C10.4082 3.62332 11.3601 4.13223 12.1068 4.87977C12.8286 5.61128 13.32 6.53844 13.5202 7.54644C12.7494 8.65894 12.3355 9.97969 12.3335 11.3331ZM23.0002 16.6664C22.9978 17.4917 22.7403 18.296 22.2629 18.9692C21.7855 19.6423 21.1116 20.1514 20.3335 20.4264V15.3331C20.3335 14.9795 20.193 14.6403 19.943 14.3903C19.6929 14.1402 19.3538 13.9998 19.0002 13.9998C18.6465 13.9998 18.3074 14.1402 18.0574 14.3903C17.8073 14.6403 17.6668 14.9795 17.6668 15.3331V20.4264C16.8888 20.1514 16.2148 19.6423 15.7374 18.9692C15.26 18.296 15.0025 17.4917 15.0002 16.6664V11.3331C15.0002 10.2722 15.4216 9.25482 16.1717 8.50467C16.9219 7.75453 17.9393 7.3331 19.0002 7.3331C20.061 7.3331 21.0784 7.75453 21.8286 8.50467C22.5787 9.25482 23.0002 10.2722 23.0002 11.3331V16.6664Z" fill="#040921"/>
</svg>
