<svg width="12" height="10" viewBox="0 0 12 10" fill="none" xmlns="http://www.w3.org/2000/svg">
<path fill-rule="evenodd" clip-rule="evenodd" d="M12 1.15432C11.5588 1.35031 11.0841 1.4823 10.5861 1.5419C11.0945 1.23712 11.4848 0.754748 11.6684 0.179987C11.1933 0.462368 10.6657 0.666756 10.1053 0.777548C9.65616 0.29918 9.0158 0 8.30824 0C6.94874 0 5.84641 1.10233 5.84641 2.46184C5.84641 2.65462 5.86841 2.84261 5.91041 3.023C3.86414 2.9206 2.05026 1.94027 0.835944 0.450769C0.623959 0.814345 0.502766 1.23712 0.502766 1.68829C0.502766 2.54223 0.936737 3.29578 1.59789 3.73735C1.19392 3.72456 0.814745 3.61376 0.482367 3.42937V3.46017C0.482367 4.65329 1.33151 5.64802 2.45704 5.87481C2.25065 5.93081 2.03306 5.96121 1.80868 5.96121C1.64989 5.96121 1.4955 5.9456 1.34511 5.9168C1.65829 6.89474 2.56783 7.6067 3.64496 7.62669C2.80261 8.28665 1.74108 8.68062 0.58756 8.68062C0.388373 8.68062 0.192387 8.66902 0 8.64582C1.08953 9.34418 2.38344 9.75215 3.77375 9.75215C8.30185 9.75215 10.7781 6.0008 10.7781 2.74781C10.7781 2.64102 10.7761 2.53463 10.7709 2.42944C11.2525 2.08146 11.67 1.64789 12 1.15432Z" fill="#040921"/>
</svg>
