<svg width="24" height="24" viewBox="0 0 24 24" fill="none" xmlns="http://www.w3.org/2000/svg">
<path d="M19.2882 3.70819C19.3812 3.80191 19.4918 3.87631 19.6136 3.92708C19.7355 3.97785 19.8662 4.00398 19.9982 4.00398C20.1302 4.00398 20.2609 3.97785 20.3828 3.92708C20.5046 3.87631 20.6152 3.80191 20.7082 3.70819C20.7965 3.61099 20.8675 3.49937 20.9182 3.37819C20.9694 3.25796 20.9966 3.12886 20.9982 2.99819C20.9989 2.86658 20.9737 2.73612 20.924 2.61428C20.8742 2.49244 20.8009 2.38163 20.7082 2.28819L20.5582 2.16819C20.5024 2.13034 20.4419 2.10007 20.3782 2.07819C20.1961 2.00161 19.9954 1.98068 19.8014 2.01806C19.6074 2.05543 19.4288 2.14943 19.2882 2.28819C19.1955 2.38163 19.1222 2.49244 19.0724 2.61428C19.0226 2.73612 18.9974 2.86658 18.9982 2.99819C18.9998 3.12886 19.0269 3.25796 19.0782 3.37819C19.1288 3.49937 19.1999 3.61099 19.2882 3.70819V3.70819ZM19.9982 4.99819C19.733 4.99819 19.4786 5.10354 19.2911 5.29108C19.1035 5.47862 18.9982 5.73297 18.9982 5.99819V9.99819C18.9982 10.2634 19.1035 10.5178 19.2911 10.7053C19.4786 10.8928 19.733 10.9982 19.9982 10.9982C20.2634 10.9982 20.5178 10.8928 20.7053 10.7053C20.8928 10.5178 20.9982 10.2634 20.9982 9.99819V5.99819C20.9982 5.73297 20.8928 5.47862 20.7053 5.29108C20.5178 5.10354 20.2634 4.99819 19.9982 4.99819ZM20.0582 12.9982C19.7958 12.9671 19.5317 13.0412 19.3237 13.2042C19.1157 13.3672 18.9807 13.6059 18.9482 13.8682C18.7361 15.5615 17.9127 17.1191 16.6328 18.2479C15.3529 19.3768 13.7048 19.9992 11.9982 19.9982H6.40819L7.04819 19.3682C7.23444 19.1808 7.33898 18.9274 7.33898 18.6632C7.33898 18.399 7.23444 18.1455 7.04819 17.9582C6.06568 16.9797 5.39589 15.7316 5.12377 14.3719C4.85165 13.0123 4.98947 11.6024 5.51973 10.3212C6.05 9.04003 6.94882 7.94517 8.10221 7.17552C9.2556 6.40587 10.6116 5.9961 11.9982 5.99819C13.2243 5.99633 14.4289 6.32077 15.4882 6.93819C15.7138 7.04014 15.9692 7.05479 16.2049 6.97931C16.4407 6.90382 16.6401 6.74357 16.7645 6.52955C16.889 6.31553 16.9296 6.06297 16.8785 5.82073C16.8275 5.57849 16.6884 5.36379 16.4882 5.21819C15.1273 4.41788 13.5769 3.99662 11.9982 3.99819C10.3057 4.00375 8.64899 4.48647 7.21837 5.39092C5.78776 6.29538 4.64118 7.58492 3.91025 9.1115C3.17933 10.6381 2.89369 12.3398 3.08613 14.0214C3.27857 15.703 3.94128 17.2962 4.99819 18.6182L3.28819 20.2882C3.14943 20.4288 3.05543 20.6074 3.01806 20.8014C2.98068 20.9954 3.00161 21.1961 3.07819 21.3782C3.15321 21.5608 3.2806 21.7171 3.44432 21.8275C3.60804 21.9378 3.80076 21.9972 3.99819 21.9982H11.9982C14.1912 21.9982 16.3087 21.1975 17.953 19.7465C19.5973 18.2955 20.6553 16.2941 20.9282 14.1182C20.945 13.9875 20.9358 13.8547 20.9011 13.7276C20.8664 13.6004 20.8069 13.4814 20.7261 13.3773C20.6452 13.2732 20.5446 13.1861 20.43 13.1211C20.3154 13.056 20.189 13.0142 20.0582 12.9982Z" fill="#040921"/>
</svg>
