<svg width="14" height="14" viewBox="0 0 14 14" fill="none" xmlns="http://www.w3.org/2000/svg">
<path d="M11.6673 5.66659C11.4905 5.66659 11.3209 5.73682 11.1959 5.86185C11.0709 5.98687 11.0007 6.15644 11.0007 6.33325V8.58659L10.014 7.59992C9.6656 7.25428 9.19474 7.06034 8.70399 7.06034C8.21323 7.06034 7.74237 7.25428 7.39398 7.59992L6.92732 8.07325L5.27398 6.41325C4.9256 6.06762 4.45474 5.87367 3.96398 5.87367C3.47323 5.87367 3.00237 6.06762 2.65398 6.41325L1.66732 7.40659V3.66659C1.66732 3.48977 1.73756 3.32021 1.86258 3.19518C1.9876 3.07016 2.15717 2.99992 2.33398 2.99992H7.66732C7.84413 2.99992 8.0137 2.92968 8.13872 2.80466C8.26375 2.67963 8.33398 2.51006 8.33398 2.33325C8.33398 2.15644 8.26375 1.98687 8.13872 1.86185C8.0137 1.73682 7.84413 1.66659 7.66732 1.66659H2.33398C1.80355 1.66659 1.29484 1.8773 0.919771 2.25237C0.544698 2.62744 0.333984 3.13615 0.333984 3.66659V11.8133C0.335741 12.3042 0.531566 12.7746 0.878754 13.1218C1.22594 13.469 1.69632 13.6648 2.18732 13.6666H10.4807C10.6613 13.6651 10.8409 13.6382 11.014 13.5866C11.3989 13.4786 11.7378 13.2473 11.9787 12.9282C12.2195 12.6091 12.349 12.2197 12.3473 11.8199V6.33325C12.3473 6.24457 12.3297 6.15678 12.2953 6.07501C12.261 5.99325 12.2107 5.91915 12.1474 5.85707C12.084 5.79499 12.009 5.74616 11.9265 5.71345C11.8441 5.68075 11.756 5.66481 11.6673 5.66659ZM2.33398 12.3333C2.15717 12.3333 1.9876 12.263 1.86258 12.138C1.73756 12.013 1.66732 11.8434 1.66732 11.6666V9.28659L3.59398 7.35992C3.69142 7.26303 3.82324 7.20864 3.96065 7.20864C4.09806 7.20864 4.22988 7.26303 4.32732 7.35992L9.30732 12.3333H2.33398ZM11.0007 11.6666C10.9964 11.7957 10.9547 11.9207 10.8807 12.0266L7.86732 8.99992L8.34065 8.53325C8.38845 8.48447 8.4455 8.44572 8.50846 8.41926C8.57142 8.3928 8.63902 8.37918 8.70732 8.37918C8.77561 8.37918 8.84322 8.3928 8.90618 8.41926C8.96914 8.44572 9.02619 8.48447 9.07398 8.53325L11.0007 10.4733V11.6666ZM13.0007 1.66659H12.334V0.999919C12.334 0.823108 12.2637 0.653538 12.1387 0.528514C12.0137 0.40349 11.8441 0.333252 11.6673 0.333252C11.4905 0.333252 11.3209 0.40349 11.1959 0.528514C11.0709 0.653538 11.0007 0.823108 11.0007 0.999919V1.66659H10.334C10.1572 1.66659 9.9876 1.73682 9.86258 1.86185C9.73756 1.98687 9.66732 2.15644 9.66732 2.33325C9.66732 2.51006 9.73756 2.67963 9.86258 2.80466C9.9876 2.92968 10.1572 2.99992 10.334 2.99992H11.0007V3.66659C11.0007 3.8434 11.0709 4.01297 11.1959 4.13799C11.3209 4.26301 11.4905 4.33325 11.6673 4.33325C11.8441 4.33325 12.0137 4.26301 12.1387 4.13799C12.2637 4.01297 12.334 3.8434 12.334 3.66659V2.99992H13.0007C13.1775 2.99992 13.347 2.92968 13.4721 2.80466C13.5971 2.67963 13.6673 2.51006 13.6673 2.33325C13.6673 2.15644 13.5971 1.98687 13.4721 1.86185C13.347 1.73682 13.1775 1.66659 13.0007 1.66659Z" fill="#040921"/>
</svg>
