<svg width="22" height="22" viewBox="0 0 22 22" fill="none" xmlns="http://www.w3.org/2000/svg">
<path d="M9.94018 5.08C10.2909 5.02623 10.6453 4.99949 11.0002 5C14.1802 5 17.1702 7.29 18.9102 11C18.6441 11.5646 18.3435 12.1123 18.0102 12.64C17.9044 12.8038 17.8487 12.995 17.8502 13.19C17.8524 13.4082 17.926 13.6198 18.0596 13.7923C18.1933 13.9648 18.3798 14.0889 18.5905 14.1455C18.8013 14.2022 19.0248 14.1883 19.227 14.1061C19.4291 14.0238 19.5988 13.8777 19.7102 13.69C20.1761 12.9579 20.5808 12.1887 20.9202 11.39C20.9738 11.2652 21.0015 11.1308 21.0015 10.995C21.0015 10.8592 20.9738 10.7248 20.9202 10.6C18.9002 5.91 15.1002 3 11.0002 3C10.5309 2.99764 10.0623 3.0378 9.60019 3.12C9.46886 3.14232 9.34322 3.1903 9.23044 3.26118C9.11766 3.33206 9.01994 3.42446 8.94287 3.5331C8.8658 3.64175 8.81088 3.76451 8.78125 3.89438C8.75162 4.02425 8.74786 4.15868 8.77018 4.29C8.79251 4.42132 8.84048 4.54696 8.91136 4.65974C8.98224 4.77253 9.07464 4.87024 9.18329 4.94731C9.29193 5.02439 9.41469 5.07931 9.54456 5.10894C9.67443 5.13857 9.80886 5.14232 9.94018 5.12V5.08ZM2.71019 1.29C2.61695 1.19676 2.50626 1.1228 2.38443 1.07234C2.26261 1.02188 2.13204 0.995908 2.00019 0.995908C1.86833 0.995908 1.73776 1.02188 1.61594 1.07234C1.49411 1.1228 1.38342 1.19676 1.29019 1.29C1.10188 1.4783 0.996094 1.7337 0.996094 2C0.996094 2.2663 1.10188 2.5217 1.29019 2.71L4.39019 5.8C2.97576 7.16153 1.85004 8.79399 1.08019 10.6C1.02512 10.7262 0.996701 10.8623 0.996701 11C0.996701 11.1377 1.02512 11.2738 1.08019 11.4C3.10019 16.09 6.90019 19 11.0002 19C12.7973 18.9876 14.552 18.4525 16.0502 17.46L19.2902 20.71C19.3831 20.8037 19.4937 20.8781 19.6156 20.9289C19.7375 20.9797 19.8682 21.0058 20.0002 21.0058C20.1322 21.0058 20.2629 20.9797 20.3848 20.9289C20.5066 20.8781 20.6172 20.8037 20.7102 20.71C20.8039 20.617 20.8783 20.5064 20.9291 20.3846C20.9798 20.2627 21.006 20.132 21.006 20C21.006 19.868 20.9798 19.7373 20.9291 19.6154C20.8783 19.4936 20.8039 19.383 20.7102 19.29L2.71019 1.29ZM9.07018 10.48L11.5202 12.93C11.3512 12.9785 11.176 13.002 11.0002 13C10.4698 13 9.96104 12.7893 9.58597 12.4142C9.2109 12.0391 9.00019 11.5304 9.00019 11C8.99814 10.8242 9.02172 10.649 9.07018 10.48ZM11.0002 17C7.82018 17 4.83019 14.71 3.10019 11C3.74627 9.57375 4.66326 8.28658 5.80019 7.21L7.57019 9C7.15443 9.7588 6.99592 10.6319 7.11844 11.4885C7.24096 12.345 7.6379 13.1387 8.24971 13.7505C8.86152 14.3623 9.65522 14.7592 10.5117 14.8817C11.3682 15.0043 12.2414 14.8458 13.0002 14.43L14.5902 16C13.5013 16.6409 12.2636 16.9856 11.0002 17Z" fill="#040921"/>
</svg>
