<svg width="14" height="14" viewBox="0 0 14 14" fill="none" xmlns="http://www.w3.org/2000/svg">
<path d="M7.00004 6.33331C6.82323 6.33331 6.65366 6.40355 6.52864 6.52858C6.40361 6.6536 6.33338 6.82317 6.33338 6.99998V9.66665C6.33338 9.84346 6.40361 10.013 6.52864 10.1381C6.65366 10.2631 6.82323 10.3333 7.00004 10.3333C7.17685 10.3333 7.34642 10.2631 7.47145 10.1381C7.59647 10.013 7.66671 9.84346 7.66671 9.66665V6.99998C7.66671 6.82317 7.59647 6.6536 7.47145 6.52858C7.34642 6.40355 7.17685 6.33331 7.00004 6.33331ZM7.25338 3.71998C7.09107 3.6533 6.90902 3.6533 6.74671 3.71998C6.66488 3.75171 6.59011 3.79929 6.52671 3.85998C6.46782 3.92478 6.42047 3.99919 6.38671 4.07998C6.34939 4.1591 6.33112 4.24586 6.33338 4.33331C6.33287 4.42105 6.34969 4.50803 6.38286 4.58925C6.41604 4.67048 6.46492 4.74435 6.52671 4.80665C6.59151 4.86553 6.66592 4.91289 6.74671 4.94665C6.84771 4.98814 6.95735 5.00419 7.06601 4.99339C7.17466 4.98259 7.279 4.94526 7.36985 4.88469C7.4607 4.82412 7.53529 4.74217 7.58705 4.64603C7.63881 4.54989 7.66617 4.4425 7.66671 4.33331C7.66425 4.1568 7.5952 3.98774 7.47338 3.85998C7.40997 3.79929 7.33521 3.75171 7.25338 3.71998ZM7.00004 0.333313C5.6815 0.333313 4.39257 0.724306 3.29624 1.45685C2.19991 2.18939 1.34543 3.23058 0.840847 4.44876C0.336263 5.66693 0.20424 7.00738 0.461475 8.30058C0.71871 9.59379 1.35365 10.7817 2.286 11.714C3.21835 12.6464 4.40623 13.2813 5.69944 13.5385C6.99265 13.7958 8.33309 13.6638 9.55127 13.1592C10.7694 12.6546 11.8106 11.8001 12.5432 10.7038C13.2757 9.60745 13.6667 8.31852 13.6667 6.99998C13.6667 6.1245 13.4943 5.25759 13.1592 4.44876C12.8242 3.63992 12.3331 2.90499 11.7141 2.28593C11.095 1.66688 10.3601 1.17581 9.55127 0.840783C8.74243 0.505751 7.87552 0.333313 7.00004 0.333313ZM7.00004 12.3333C5.94521 12.3333 4.91406 12.0205 4.037 11.4345C3.15994 10.8484 2.47635 10.0155 2.07269 9.04096C1.66902 8.06642 1.5634 6.99406 1.76919 5.9595C1.97498 4.92493 2.48293 3.97462 3.22881 3.22874C3.97469 2.48286 4.925 1.97491 5.95956 1.76912C6.99413 1.56334 8.06648 1.66895 9.04102 2.07262C10.0156 2.47629 10.8485 3.15988 11.4345 4.03694C12.0206 4.914 12.3334 5.94515 12.3334 6.99998C12.3334 8.41447 11.7715 9.77102 10.7713 10.7712C9.77109 11.7714 8.41453 12.3333 7.00004 12.3333Z" fill="#040921"/>
</svg>
