<svg width="60" height="49" viewBox="0 0 60 49" fill="none" xmlns="http://www.w3.org/2000/svg">
<path d="M29.9995 32.9996C28.4172 32.9996 26.8705 33.4688 25.5549 34.3478C24.2393 35.2269 23.2139 36.4763 22.6084 37.9381C22.0029 39.3999 21.8445 41.0084 22.1532 42.5603C22.4619 44.1121 23.2238 45.5376 24.3426 46.6564C25.4614 47.7752 26.8869 48.5372 28.4387 48.8459C29.9906 49.1545 31.5991 48.9961 33.0609 48.3906C34.5227 47.7851 35.7722 46.7597 36.6512 45.4441C37.5303 44.1285 37.9995 42.5818 37.9995 40.9996C37.9995 38.8778 37.1566 36.843 35.6563 35.3427C34.156 33.8424 32.1212 32.9996 29.9995 32.9996ZM29.9995 43.6662C29.472 43.6662 28.9565 43.5098 28.5179 43.2168C28.0794 42.9238 27.7376 42.5073 27.5358 42.0201C27.3339 41.5328 27.2811 40.9966 27.384 40.4793C27.4869 39.962 27.7409 39.4869 28.1138 39.114C28.4868 38.741 28.9619 38.487 29.4792 38.3841C29.9965 38.2813 30.5327 38.3341 31.0199 38.5359C31.5072 38.7377 31.9237 39.0795 32.2167 39.5181C32.5097 39.9566 32.6661 40.4722 32.6661 40.9996C32.6661 41.7068 32.3852 42.3851 31.8851 42.8852C31.385 43.3853 30.7067 43.6662 29.9995 43.6662ZM29.9995 22.3329C25.0521 22.35 20.3103 24.3137 16.7995 27.7996C16.3028 28.2992 16.024 28.9751 16.024 29.6796C16.024 30.3841 16.3028 31.0599 16.7995 31.5596C17.2991 32.0562 17.975 32.335 18.6795 32.335C19.3839 32.335 20.0598 32.0562 20.5595 31.5596C21.798 30.3179 23.2694 29.3327 24.8892 28.6606C26.5091 27.9884 28.2457 27.6424 29.9995 27.6424C31.7532 27.6424 33.4898 27.9884 35.1097 28.6606C36.7296 29.3327 38.2009 30.3179 39.4395 31.5596C39.9318 32.062 40.6027 32.3496 41.3061 32.3596C41.8472 32.3907 42.3849 32.2563 42.8476 31.9741C43.3103 31.692 43.6761 31.2756 43.8962 30.7803C44.1163 30.2851 44.1803 29.7346 44.0796 29.202C43.979 28.6695 43.7185 28.1803 43.3328 27.7996C41.5782 26.0575 39.4976 24.678 37.2099 23.74C34.9221 22.8021 32.472 22.3239 29.9995 22.3329ZM29.9995 11.6662C22.2234 11.6869 14.769 14.7722 9.25279 20.2529C9.00415 20.5015 8.80692 20.7967 8.67236 21.1216C8.5378 21.4464 8.46854 21.7946 8.46854 22.1462C8.46854 22.8564 8.75064 23.5374 9.25279 24.0396C9.75493 24.5417 10.436 24.8238 11.1461 24.8238C11.8563 24.8238 12.5373 24.5417 13.0395 24.0396C17.5395 19.5452 23.6394 17.0207 29.9995 17.0207C36.3595 17.0207 42.4594 19.5452 46.9595 24.0396C47.2086 24.2867 47.5041 24.4823 47.829 24.615C48.1539 24.7477 48.5018 24.8149 48.8528 24.8129C49.2037 24.8149 49.5516 24.7477 49.8765 24.615C50.2014 24.4823 50.4969 24.2867 50.7461 24.0396C50.9961 23.7917 51.1944 23.4967 51.3298 23.1718C51.4652 22.8468 51.5349 22.4983 51.5349 22.1462C51.5349 21.7942 51.4652 21.4457 51.3298 21.1207C51.1944 20.7957 50.9961 20.5008 50.7461 20.2529C45.2299 14.7722 37.7755 11.6869 29.9995 11.6662ZM58.2928 12.7062C54.5781 8.98918 50.1674 6.04051 45.3127 4.02872C40.458 2.01692 35.2545 0.981445 29.9995 0.981445C24.7444 0.981445 19.5409 2.01692 14.6862 4.02872C9.8315 6.04051 5.4208 8.98918 1.70612 12.7062C1.20398 13.2084 0.921875 13.8894 0.921875 14.5996C0.921875 15.3097 1.20398 15.9908 1.70612 16.4929C2.20826 16.9951 2.88931 17.2772 3.59945 17.2772C4.30959 17.2772 4.99064 16.9951 5.49279 16.4929C11.9935 9.99554 20.8084 6.34564 29.9995 6.34564C39.1905 6.34564 48.0054 9.99554 54.5061 16.4929C54.754 16.7429 55.049 16.9412 55.3739 17.0766C55.6989 17.212 56.0474 17.2817 56.3995 17.2817C56.7515 17.2817 57.1 17.212 57.425 17.0766C57.7499 16.9412 58.0449 16.7429 58.2928 16.4929C58.5427 16.245 58.7411 15.9501 58.8765 15.6251C59.0119 15.3002 59.0816 14.9516 59.0816 14.5996C59.0816 14.2475 59.0119 13.899 58.8765 13.574C58.7411 13.2491 58.5427 12.9541 58.2928 12.7062Z" fill="#040921"/>
</svg>
